<?xml version="1.0" standalone="no"?>
<!DOCTYPE svg PUBLIC "-//W3C//DTD SVG 1.1//EN" "http://www.w3.org/Graphics/SVG/1.1/DTD/svg11.dtd" >
<svg xmlns="http://www.w3.org/2000/svg" xmlns:xlink="http://www.w3.org/1999/xlink" version="1.1">
<metadata></metadata>
<defs>
<font id="the_best_nightregular" horiz-adv-x="1014" >
<font-face units-per-em="2048" ascent="1638" descent="-410" />
<missing-glyph horiz-adv-x="508" />
<glyph horiz-adv-x="0" />
<glyph unicode="&#xd;" horiz-adv-x="508" />
<glyph unicode=" "  horiz-adv-x="508" />
<glyph unicode="&#x09;" horiz-adv-x="508" />
<glyph unicode="&#xa0;" horiz-adv-x="508" />
<glyph unicode="!" horiz-adv-x="672" d="M207 136q0 15 16 31l82 84q15 14 29 14q13 0 31 -16l80 -86q12 -16 12 -29q0 -15 -14 -31l-80 -88q-20 -20 -29 -20q-16 0 -29 14l-88 101q-10 13 -10 26zM264 1364q0 46 21 69t62 23q42 0 62.5 -23t20.5 -69l-80 -1036h-37z" />
<glyph unicode="&#x22;" horiz-adv-x="672" d="M101 1500q0 37 20.5 57t59.5 20t60.5 -19.5t21.5 -56.5q0 -8 -4 -34l-62 -359h-30l-62 359q-4 23 -4 33zM413 1500q0 37 20.5 57t59.5 20t60.5 -19.5t21.5 -56.5q0 -8 -4 -34l-62 -359h-30l-62 359q-4 23 -4 33z" />
<glyph unicode="#" horiz-adv-x="1336" d="M117 472l30 98h271l86 290h-295l29 97h295l140 477h93l-141 -477h242l142 477h92l-141 -477h259l-29 -97h-259l-83 -290h279l-30 -98h-280l-140 -472h-92l139 472h-240l-142 -472h-92l140 472h-273zM511 569h242l86 290h-243z" />
<glyph unicode="$" d="M113 1079q0 166 125 271q105 88 266 102v100h73v-102q68 -8 141 -35q10 -6 19 -6q25 0 41 45h50l103 -282h-49q-60 134 -168 179q-74 30 -137 39v-540q241 -93 322.5 -183t81.5 -264q0 -197 -119.5 -300t-284.5 -120v-239h-73v237q-188 3 -266 38q-10 6 -19 6 q-25 0 -41 -45h-50v331h49q50 -183 152.5 -226t174.5 -43v635q-214 67 -299 153q-92 91 -92 249zM219 1139q0 -98 55 -153q52 -54 230 -113v520q-119 -5 -199 -72q-86 -73 -86 -182zM577 45q125 17 211.5 96t86.5 219q0 116 -69 183q-62 59 -229 112v-610z" />
<glyph unicode="%" horiz-adv-x="1610" d="M62 1080q0 100 52 190.5t144.5 139.5t190.5 49t190.5 -49t144.5 -139.5t52 -190.5q0 -99 -50.5 -188.5t-143 -140t-193.5 -50.5q-100 0 -192.5 50.5t-143.5 140t-51 188.5zM202 1128q0 -31 4 -62q13 -92 55.5 -173.5t106.5 -124.5q57 -40 114 -40q7 0 13 1q63 3 115 53 t73 136q13 54 13 111q0 32 -4 65q-12 93 -56 175.5t-107 124.5q-58 38 -115 38h-11q-61 -3 -113 -52t-73 -135q-15 -58 -15 -117zM297 -29l940 1461h84l-938 -1461h-86zM774 359q0 99 52 189.5t144.5 140t190.5 49.5q97 0 190 -49.5t145 -140t52 -189.5q0 -100 -50.5 -189.5 t-143 -139.5t-193.5 -50t-193 50t-143 139.5t-51 189.5zM914 406q0 -31 4 -62q13 -92 55.5 -173.5t106.5 -124.5q59 -39 116 -39h11q63 3 115 53t73 136q13 54 13 111q0 32 -4 65q-12 93 -56 175.5t-107 124.5q-58 38 -115 38h-11q-61 -3 -113 -52t-73 -135 q-15 -58 -15 -117z" />
<glyph unicode="&#x26;" horiz-adv-x="1683" d="M152 520q0 161 76 266.5t225 151.5q-42 61 -62.5 116t-20.5 111q0 105 77 197t182 92q68 0 142 -39q9 -6 18 -6q23 0 38 45h46l96 -281h-46q-55 133 -155 178q-85 37 -141 37q-65 0 -106 -45.5t-41 -117.5q0 -131 102 -267l531 -670q98 146 121 244q17 78 17 130 q0 97 -62 97h-90v50h443v-50h-90q-95 0 -145 -227q-31 -132 -155 -292q109 -136 248 -136h16q143 17 192 128l49 -1l-103 -231h-160q-56 0 -139 25t-167 132q-67 -74 -175 -123.5t-241 -49.5q-229 0 -374.5 150.5t-145.5 385.5zM256 589q0 -91 35.5 -181.5t101.5 -164.5 q72 -83 165 -127t194 -44q88 0 169 33.5t130 90.5l-554 683q-118 0 -179.5 -86t-61.5 -204z" />
<glyph unicode="'" horiz-adv-x="346" d="M101 1500q0 37 20.5 57t59.5 20t60.5 -19.5t21.5 -56.5q0 -8 -4 -34l-62 -359h-30l-62 359q-4 23 -4 33z" />
<glyph unicode="(" horiz-adv-x="758" d="M252 601q2 277 99.5 530t268.5 442h80q-172 -242 -230 -438q-57 -193 -57 -523v-22q0 -330 57 -522q58 -196 230 -438h-80q-171 189 -268.5 441.5t-99.5 529.5z" />
<glyph unicode=")" horiz-adv-x="758" d="M58 -370q172 242 230 438q57 192 57 522v22q0 330 -57 523q-58 196 -230 438h80q171 -189 268.5 -442t99.5 -530q-2 -277 -99.5 -529.5t-268.5 -441.5h-80z" />
<glyph unicode="*" horiz-adv-x="1024" d="M218 1333q0 17 6 36q11 35 36 53q17 12 34 12q9 0 18 -3q20 -6 74 -62q47 -49 112 -75q-4 71 -37 130q-37 66 -37 84q0 32 23.5 51.5t62.5 19.5q37 0 61.5 -18t24.5 -47q0 -21 -36 -89q-33 -61 -37 -130q66 25 113 75q51 55 69 61q11 3 21 3q18 0 35 -10q26 -17 38 -53 q6 -19 6 -36q0 -15 -4 -28q-10 -30 -38 -38q-6 -2 -19 -2q-25 0 -76 9q-28 5 -55 5q-41 0 -81 -11q44 -55 105 -83q68 -32 79 -47q13 -18 13 -38q0 -9 -2 -17q-8 -30 -39 -53q-29 -22 -59 -22q-1 0 -1 1q-31 0 -48 23q-12 17 -22 94q-10 67 -47 125q-38 -58 -46 -124 q-9 -75 -20 -90q-19 -25 -49 -27h-5q-28 0 -57 21q-30 21 -39 51q-4 10 -4 20q0 17 11 32q13 17 83 51q61 29 105 82q-41 11 -80 11q-27 0 -53 -5q-54 -11 -78 -11q-9 0 -14 2q-30 9 -41 38q-6 13 -6 29z" />
<glyph unicode="+" d="M87 647v140h350v369l1 1h139v-370h349l1 -1v-139h-350v-370h-140v370h-350z" />
<glyph unicode="," horiz-adv-x="557" d="M119 91v42l119 125q44 0 88.5 -65.5t44.5 -151.5q0 -109 -71 -226.5t-139 -117.5v43q73 43 87 190q0 119 -129 161z" />
<glyph unicode="-" horiz-adv-x="670" d="M116 437v83q0 29 41 29h356q41 0 41 -29v-83q0 -28 -40 -28h-358q-40 0 -40 28z" />
<glyph unicode="." horiz-adv-x="557" d="M129 136q0 15 16 31l82 84q15 14 29 14q13 0 31 -16l80 -86q12 -16 12 -29q0 -15 -14 -31l-80 -88q-20 -20 -29 -20q-16 0 -29 14l-88 101q-10 13 -10 26z" />
<glyph unicode="/" horiz-adv-x="569" d="M13 -50l541 1484h80l-541 -1484h-80z" />
<glyph unicode="0" d="M77 717q0 194 57.5 372t160.5 274t212 96q108 0 211 -96t161 -274t58 -372t-56.5 -370t-159 -274t-214.5 -98t-214.5 98t-159 274t-56.5 370zM232 814q0 -62 5 -125q14 -180 61.5 -340t118.5 -244q65 -78 129 -78q6 0 12 1q70 7 127.5 104.5t81.5 265.5q15 107 15 220 q0 62 -5 126q-14 181 -62.5 343t-119.5 244q-65 76 -128 76q-6 0 -11 -1q-68 -7 -126 -102.5t-82 -264.5q-16 -110 -16 -225z" />
<glyph unicode="1" d="M218 1208v50q292 63 327 176h50v-1149q0 -235 103 -235h96v-50h-560v50h96q103 0 103 235v794q0 129 -117 129h-98z" />
<glyph unicode="2" d="M114 0l1 50q607 675 607 986q0 148 -86 245t-186 97q-170 0 -275 -131h-22v49q39 50 115 104t185 54q183 0 306.5 -121t123.5 -297q0 -262 -627 -916h422q130 0 209 112h49l-103 -232h-719z" />
<glyph unicode="3" d="M83 105v100h49q0 -83 86 -133t217 -50q151 0 218 116.5t67 280.5q0 104 -44.5 205.5t-176.5 148.5v19q81 45 144 120.5t63 209.5q0 110 -55 189.5t-166 92.5q-68 0 -123.5 -45t-55.5 -111h-42v159q0 20 73.5 33.5t155.5 13.5q155 0 257 -84t102 -249q0 -87 -61 -166 t-193 -139q93 -14 195 -134.5t102 -278.5q0 -163 -144 -294t-325 -131q-152 0 -247.5 39t-95.5 88z" />
<glyph unicode="4" d="M43 338v35l660 1061h34v-996h19q133 0 193 132h49l-103 -232h-158v-171q0 -117 72 -117h76v-50h-442v50h76q81 0 81 120v168h-557zM176 438h424v686z" />
<glyph unicode="5" d="M77 99v106h46q0 -88 86 -135.5t217 -47.5q151 0 217.5 116.5t66.5 347.5q0 159 -110 265t-285 106q-40 0 -86 -5l144 582h396q103 0 112 52h50l-63 -172h-429l-104 -415q226 0 388 -124.5t162 -300.5q0 -234 -143.5 -365t-324.5 -131q-152 0 -248 39q-92 37 -92 82z" />
<glyph unicode="6" d="M77 510q0 320 209 634.5t515 314.5v-48q-177 -12 -326.5 -179.5t-233.5 -467.5q96 93 266 93q108 0 211 -57t161 -162.5t58 -221.5t-56.5 -220.5t-144 -162.5t-169.5 -58q-243 0 -366.5 162.5t-123.5 372.5zM232 469q0 -153 95.5 -305.5t230.5 -152.5q101 0 163 98.5 t62 247.5q0 203 -100 333.5t-216 130.5q-91 0 -163 -101.5t-72 -250.5z" />
<glyph unicode="7" d="M96 1202l103 232h719l-1 -50q-370 -866 -370 -1205q0 -129 67 -129h117v-50h-411v50h67q72 0 72 131q19 296 278 1133h-399q-133 0 -192 -112h-50z" />
<glyph unicode="8" d="M77 403q0 112 57.5 214.5t160.5 158.5q41 21 82 35q-24 9 -48 21q-86 44 -133 123t-47 166t48 167t133.5 123t176.5 43q90 0 176 -43t134 -123t48 -167t-47 -166t-132 -123q-25 -13 -50 -21q42 -14 82 -35q103 -56 161 -158.5t58 -214.5t-56.5 -213.5t-159 -158 t-214.5 -56.5t-214.5 56.5t-159 158t-56.5 213.5zM235 422q0 -18 2 -35q14 -104 61.5 -196.5t118.5 -140.5q64 -44 128 -44h13q70 4 127.5 60t81.5 153q15 62 15 127q0 36 -5 73q-11 112 -73.5 212.5t-231.5 153.5q-114 -21 -181 -157q-56 -115 -56 -206zM278 1165 q0 -28 4 -57q12 -80 51.5 -152t218.5 -126q121 25 156 124q27 75 27 140q0 20 -3 39q-12 81 -52.5 154t-99.5 110q-55 33 -106 33h-9q-57 -3 -105.5 -46t-68.5 -119q-13 -49 -13 -100z" />
<glyph unicode="9" d="M77 1018q0 116 56.5 220.5t144 162.5t169.5 58q243 0 366.5 -162.5t123.5 -372.5q0 -320 -209 -634.5t-515 -314.5v48q177 12 326.5 179.5t233.5 467.5q-95 -93 -266 -93q-108 0 -211 57t-161 162.5t-58 221.5zM232 1077q0 -203 100 -333.5t215 -130.5q91 0 163.5 101.5 t72.5 250.5q0 153 -96 305.5t-231 152.5q-101 0 -162.5 -98.5t-61.5 -247.5z" />
<glyph unicode=":" horiz-adv-x="557" d="M129 136q0 15 16 31l82 84q15 14 29 14q13 0 31 -16l80 -86q12 -16 12 -29q0 -15 -14 -31l-80 -88q-20 -20 -29 -20q-16 0 -29 14l-88 101q-10 13 -10 26zM129 829q0 15 16 31l82 84q15 14 29 14q13 0 31 -16l80 -86q12 -16 12 -29q0 -15 -14 -31l-80 -88 q-20 -20 -29 -20q-16 0 -29 14l-88 101q-10 13 -10 26z" />
<glyph unicode=";" horiz-adv-x="557" d="M119 91v42l119 125q44 0 88.5 -65.5t44.5 -151.5q0 -109 -71 -226.5t-139 -117.5v43q73 43 87 190q0 119 -129 161zM129 828q0 15 16 31l82 84q15 14 29 14q13 0 31 -16l80 -86q12 -16 12 -29q0 -15 -14 -31l-80 -88q-20 -20 -29 -20q-16 0 -29 14l-88 101q-10 13 -10 26 z" />
<glyph unicode="&#x3c;" d="M87 674v83l840 484v-167l-625 -359l625 -355v-167z" />
<glyph unicode="=" d="M87 491v140h840v-140h-840zM87 803v140h840v-140h-840z" />
<glyph unicode="&#x3e;" d="M87 193v167l625 355l-625 359v167l840 -484v-83z" />
<glyph unicode="?" horiz-adv-x="748" d="M132 1266v64q128 104 242 104q132 0 212 -68t80 -182q0 -69 -32.5 -140t-124.5 -186q-90 -113 -141.5 -187.5t-51.5 -142.5q0 -63 35 -189h-47q-50 138 -50 211q0 109 116.5 312t116.5 309q0 82 -47 129t-130 47q-84 0 -178 -81zM207 136q0 15 16 31l82 84q15 14 29 14 q13 0 31 -16l80 -86q12 -16 12 -29q0 -15 -14 -31l-80 -88q-20 -20 -29 -20q-16 0 -29 14l-88 101q-10 13 -10 26z" />
<glyph unicode="@" horiz-adv-x="2019" d="M100 508q0 242 124 464.5t345.5 342t456.5 119.5q362 0 609 -230t247 -566q0 -270 -176 -439q-175 -168 -346 -170q-63 1 -100.5 18t-61.5 54q-29 -37 -82 -64.5t-133 -27.5q-144 0 -256.5 100.5t-112.5 233.5q1 87 53 166.5t132.5 115t173.5 49.5q67 16 110 42.5 t43 74.5q-2 69 -41 125t-129 56q-72 0 -121.5 -59t-50.5 -125h-45v159q0 20 72 40q73 20 178 20q109 -2 193.5 -64.5t84.5 -157.5v-589q0 -117 94 -117q185 35 267 191.5t82 382.5q-20 335 -232 540q-197 188 -480 188q-205 0 -392.5 -137.5t-269.5 -355.5 q-67 -178 -67 -361q0 -313 129.5 -511.5t305 -290.5t318.5 -92q274 0 575 208v-75q-263 -184 -571 -184q-240 0 -461 122.5t-343 342t-122 461.5zM753 343q0 -107 64 -194t183 -87q97 5 126 167v476q-54 -63 -154 -83q-83 -10 -151 -80t-68 -199z" />
<glyph unicode="A" horiz-adv-x="807" d="M-14 601v21q3 25 12 25l-4 8q32 87 54 87h4v4l-4 20q11 17 21 17q14 93 94 185l21 21h4l8 -4q0 15 25 33v-4l-12 -29h4q8 4 12 4q2 -8 9 -8q33 25 33 41h4q8 0 8 -12h4q40 14 62 41q7 0 21 12h4v-8q-62 -57 -79 -82h4q21 20 71 37v8h-13v-8q-8 0 -8 8q20 18 45 21l9 -4h4 v4h-8v16h20q15 17 37 17l-8 12h4l13 -8q0 5 20 16l13 -8h4v8h8q6 0 12 -12q21 12 29 12v-8q-5 0 -29 -12v-9h4q33 21 54 21v-8q-57 -11 -227 -174q-164 -208 -194 -350h8q139 44 149 70q21 0 103 78q70 60 107 169q0 5 17 13l8 -4l8 12q29 0 29 -21l9 5h4v-9l-4 -8q4 0 4 -4 l8 4q24 -22 50 -70q20 0 20 -37l-4 -8q4 -8 4 -17q-20 -92 -20 -111q5 1 107 156h8v-4q-4 -8 -4 -12q5 1 78 103h13l-4 8v4q32 53 41 54h4v-12h4q0 4 4 12h-8v12q0 7 16 17l17 -12q-54 -108 -111 -198l-13 -9q4 -8 4 -12h4q34 66 58 66l-4 8v4q0 4 21 21v-8l-4 -9q8 -1 8 -8 q-25 -15 -25 -20l8 -13h-12v8h-4v-4q4 -8 4 -12l-8 -4l-9 4q-8 -54 -12 -54q-8 0 -8 -4q4 -8 4 -12l-17 -9l5 -8v-4l-13 8q-6 -26 -37 -74q-15 -45 -29 -54l4 -8v-4l-8 4q-19 -9 -41 -58h4l21 17v-4q0 -3 -46 -54h4q14 8 21 8l4 -8q-14 -12 -21 -12v-4h9v-9h-17 q-32 27 -107 62q-21 26 -50 70q-106 -86 -256 -127q-88 -17 -94 -17q-75 0 -108 70q-12 3 -33 54q-41 32 -41 78zM64 684h5q0 10 28 70q32 52 38 74h-9q0 -6 -24 -45q-38 -77 -38 -91v-8zM64 754h9l4 16h-8zM85 791q6 0 17 17v8h-5q-8 -4 -12 -4v-21zM155 787h17v8h-17v-8z M159 911h4l5 16q-9 0 -9 -12v-4zM168 531h33v4q0 6 -13 13h-20v-17zM176 940h4q25 25 25 37q-5 0 -29 -33v-4zM201 935h4q29 21 29 25h-5l-8 -4q0 4 -4 4zM205 548l16 -9l54 29q37 17 45 17v8h-8q-58 -29 -66 -29l-8 4q-33 -11 -33 -20zM217 968q4 0 4 -4q7 4 17 4q0 9 -9 9 h-4q-8 -2 -8 -9zM225 989v4q0 6 25 21v-4q0 -6 -21 -21h-4zM234 907h8q8 28 25 28v9h-9q0 -7 -24 -33v-4zM279 1039q0 5 21 20h4v-4q0 -6 -17 -16h-8zM312 1068v8q10 0 37 20h4v-8q-8 0 -29 -25q-8 5 -12 5zM374 622h4q8 0 8 8h-4q-8 -1 -8 -8zM374 1063v5q1 8 8 8l4 -8 l-8 -5h-4zM473 1063l8 -4h4v4q0 9 -8 9zM489 1068h5q13 8 20 8v4h-12q0 -8 -13 -8v-4zM518 1092v9h17q0 -9 -8 -9h-9zM547 1105v12q16 0 25 8h4v-4q0 -5 -25 -16h-4zM675 614h4q17 27 17 33q-7 0 -21 -29v-4zM725 692q6 0 24 33h-4q-20 -18 -20 -33zM749 729q9 0 9 8v5 q-9 -2 -9 -9v-4zM774 787l46 58l4 -9q-3 0 -46 -57zM865 865q8 0 8 9v4q-8 -2 -8 -9v-4z" />
<glyph unicode="B" horiz-adv-x="738" d="M-63 459q86 339 112 409q-4 8 -4 13q18 93 60 206q0 5 -4 5q51 187 99 314q-5 8 -5 13l52 116q6 22 13 22q0 -5 4 -5v5l-4 25q3 0 22 22l-5 9v4q0 6 30 52q-4 8 -4 13q8 4 17 4v4q0 9 -8 9q5 21 13 21l12 -17v-21h13q-8 -15 -8 -26l8 -5q18 26 18 39h8l5 -17q-9 -1 -9 -9 q4 -8 4 -13q-17 -4 -17 -21q4 0 4 -4h-8v8h-5v-13q0 -7 18 -17v-4h13v8l21 -4l-9 -13q9 -1 9 -9q-10 0 -21 -12q0 9 -22 12q-34 -18 -39 -30h9v9l13 -9h4q0 26 13 26l39 -34q28 86 51 112h5v-5q-16 -27 -26 -69q-26 -56 -30 -56q0 9 -9 9h-4q0 -13 -9 -13h-4v17h-4 q0 -12 -22 -56q0 -13 -21 -13v-8l8 4h4l-4 -43h4q22 11 22 17h-9v9q20 0 26 47q5 0 5 5v4h-9v4q10 0 21 13l9 -13q-13 -15 -34 -77q-22 -12 -22 -17q9 -2 9 -9h-5l5 -9q-10 -26 -13 -26q-9 5 -13 5q0 -5 -4 -5v5q17 15 17 34q-9 0 -9 9q-6 -4 -26 -4v-5l9 -13v-4l-9 4h-4v-8 h-4q-9 0 -9 8v5h13v4q-5 0 -13 4q-8 -4 -13 -4v-4l5 -9q-13 -4 -13 -9q4 -8 4 -13h9v9h4q8 0 8 -13q-8 -14 -8 -21l8 4v-4l-4 -9q9 -1 9 -9l-17 -38v-5h4q10 1 21 43h5v-21h4q0 10 13 52h4q9 -2 9 -9q-13 -14 -13 -22q4 -8 4 -13q-6 0 -39 -103h-4l4 -8l-8 -13l4 -9 q-17 -42 -17 -73q6 0 13 -13l-9 -4h-4v12q-13 -4 -13 -25h4l13 8l9 -4l-4 -9q4 -7 4 -17h4v22q9 0 26 86h4l9 -5q-9 -19 -30 -112h4q95 35 185 35q96 0 142 -91q15 -6 30 -94q7 0 13 -48q-10 -94 -25 -94l4 -9q-32 -85 -104 -164h9q0 7 121 99q0 11 82 78h12v-4 q-25 -26 -25 -48l34 35l4 -9l-60 -73v-4l13 8h4v-4q0 -5 -73 -69v-4l17 8v-4q-44 -52 -60 -52v-4l4 -9l-17 -13h-4v9h-5q0 -26 -47 -43q-136 -73 -224 -73q-7 4 -21 4q-17 -13 -112 -30q-35 4 -48 17h-13v-8l5 -9h-5q-4 0 -4 4l-9 -4h-25q-5 0 -5 4l-8 -4h-9q-8 10 -69 26 l-8 -4h-5q-7 7 -47 21q0 16 -13 35zM182 540q201 71 319 250q56 117 56 147q4 0 4 4q-4 0 -4 4q-83 -8 -108 -8q0 8 61 17v4l-82 -13l-4 9l-9 -5h-4l-9 5q0 -5 -4 -5v9h-5q-8 -1 -8 -9v-4l8 4h5q0 -8 4 -8q8 4 13 4v-8l-30 -9q-9 0 -9 9v12h-4v9l30 9q8 -5 13 -5q0 7 -13 13 q-27 -8 -34 -8q-14 8 -26 8q-16 -21 -52 -21q0 4 -4 4q-13 -12 -30 -65l4 -8l-4 -9l4 -8q-21 -32 -30 -99q-4 0 -4 -5q8 -1 8 -8q-8 -13 -17 -52q4 -8 4 -13q-6 0 -13 -17l5 -9q-18 -80 -31 -95v-30zM213 911h4q8 4 13 4v26h4q9 0 9 -13h8l-4 9v17h9v13l-9 -5q-6 0 -13 13v5 h9v8h-9q-7 -47 -21 -77zM213 1281h8v13h-8v-13zM217 1298q7 0 17 30l-8 5l-9 -30v-5zM226 1216h4l4 18q-8 0 -8 -13v-5zM230 1337q8 0 8 9v4h-8v-13zM238 1079q9 0 9 8v5h-9v-13zM238 1363l18 17q-5 8 -5 13q-13 -4 -13 -26v-4zM243 1018h8q1 22 9 22q-4 8 -4 13 q-9 0 -13 -35zM243 1113q4 0 13 -4v13h-13v-9zM247 1160q8 5 13 5v8h-4q-9 -1 -9 -8v-5zM251 1057q8 0 22 -13h9v9q-1 6 -22 17h-4q0 -5 -5 -13zM251 1126q9 0 9 9v4q-9 -1 -9 -9v-4zM251 1315q18 9 26 9v22h-4q-13 -22 -22 -22v-9zM251 1410h9v13q-9 -1 -9 -8v-5zM260 1148 q9 0 9 8v4q-9 -1 -9 -8v-4zM260 1440h4q18 27 18 39q-8 0 -22 -34v-5zM264 1169q6 0 13 13h-4q-9 -1 -9 -9v-4zM273 1251h4q9 0 9 8l-9 5q0 -5 -4 -13zM277 1268q9 0 9 9v4q-9 -1 -9 -9v-4zM282 967h4q10 8 17 8v5h-9q-8 -5 -12 -5v-8zM282 1229h8q9 33 9 35q-9 0 -17 -35z M282 1509q4 -8 4 -13h4q3 22 13 22l-4 8v5q16 16 43 103q8 0 8 9v4l-8 -4l-9 4q0 -9 -47 -138h-4zM290 1634l4 -8q8 4 22 4v8h-4zM299 1272q8 0 13 26h-9q-4 -22 -4 -26zM303 1470h4q9 5 13 5q0 8 -8 8q-9 -1 -9 -8v-5zM303 1608q4 -8 4 -13h5v13h-9zM307 1225q9 0 9 13h9 q0 -5 4 -13l-17 -9zM307 1501q2 -9 9 -9q0 5 4 13h-13v-4zM312 949q30 9 30 22h4q9 -1 9 -9q0 -7 -39 -21zM312 1333v17h8v-9q0 -8 -8 -8zM325 1518h12q0 8 -8 8h-4v-8zM329 1195q4 56 21 56q0 -4 5 -4q-18 -45 -18 -52h-8zM333 1733v4l17 26q9 -4 13 -4q13 11 13 17h5l8 -4 q0 -6 -17 -30q4 0 4 -5l-8 -4q0 9 -9 9q0 -9 -9 -9h-17zM346 1509h4l5 17v13h-5l-4 -25v-5zM346 1703q6 22 13 22l9 -13q0 -7 -18 -18zM350 1483v5h5q8 -2 8 -9v-4h-4q-9 0 -9 8zM355 1768v4q1 9 8 9v-5q0 -8 -8 -8zM355 1798l8 4l5 -9v-12h-5q0 6 -8 17zM359 1548q9 0 9 9 v4q-9 -1 -9 -9v-4zM368 1798v13h8v-13h-8zM376 1354q2 9 9 9q2 -17 13 -17v-9h-5q-6 0 -17 17zM385 1716v13q14 8 26 8q-6 -21 -13 -21h-5v9h-4v-9h-4zM393 1798v8q2 9 9 9h4v-4q0 -6 -13 -13zM398 1759l8 4q7 0 13 -13l-8 -4q-6 0 -13 13zM402 1587v13h9v-5q0 -8 -9 -8z M419 967h18v8h-9q-9 -1 -9 -8zM445 971h17q0 9 -8 9q-9 -2 -9 -9zM467 975h34l-4 9q-17 -4 -30 -4v-5zM505 980q2 -9 9 -9h39v4l-22 5h-26zM518 596l9 -13q13 3 17 18q-4 7 -4 17q-6 0 -13 -13h9v-9h-9l-9 5v-5zM574 695q8 2 22 39q-22 -18 -22 -39zM600 721h9q0 3 8 26 q-17 -9 -17 -26zM609 704h4q6 0 13 13l-9 4h-4zM609 760l4 -9q8 5 13 5v4q-10 0 -17 4v-4zM622 726h8v12q-8 -1 -8 -8v-4z" />
<glyph unicode="C" horiz-adv-x="705" d="M-21 667q0 4 36 91l-4 9q7 23 22 23l-4 9v4q13 23 27 23v5l-9 13l9 5l9 -5q12 39 82 109q0 16 32 41q5 20 104 82l46 36q7 0 18 9h9q-7 -14 -50 -36q-3 -17 -36 -32q0 -12 -28 -32q-13 -21 -13 -32q-25 0 -77 -77v-4q128 134 159 150h4l-4 -23l13 9h5v-9q11 9 18 9l-9 14 h4q8 -5 18 -5v-9q-9 0 -27 -18q-9 0 -9 9q-26 -14 -45 -14v-9q13 0 13 -4l23 13h9l14 -9q44 50 68 50q-134 -120 -155 -145v-9q8 0 19 18l9 -5h4q11 9 18 9v5h-9q0 -9 -9 -9h-9q61 65 118 104h5v-4q0 -3 -27 -27l54 36h5v-5l-114 -100v-4h5q14 9 22 9l-9 -14h5q10 2 22 41 q3 0 19 5l-5 -9h5l18 13q0 -4 4 -4q-6 -20 -31 -27q-9 4 -14 4q9 -11 9 -18q56 45 68 50h14q0 13 9 13h4v-9l14 9l5 -9q-104 -79 -178 -159q-110 -119 -145 -218h5q156 0 395 209q65 77 72 78h5q20 -19 23 -19q8 5 18 5q0 -22 36 -41l-4 -18l27 -64v-9q-11 -24 -82 -95h9 l77 82h5q-50 -76 -77 -87v-9h9q4 0 54 55h5v-5q-51 -58 -55 -86q-128 -128 -240 -173q-87 -22 -105 -31l-22 4l-23 -4q-9 4 -14 4l-4 -9q-58 9 -68 9q-9 -4 -14 -4l-64 36q-140 157 -140 200v4q0 5 4 5q-9 18 -9 27zM224 890l9 -5q0 14 14 14v9h-9q0 -7 -14 -18zM233 844h5 q9 0 9 9h-5q-9 -1 -9 -9zM247 858h9v13q-9 -1 -9 -9v-4zM261 871h13q0 8 14 23v5h-5q-16 -9 -22 -28zM274 962q9 0 9 9v5q-9 -2 -9 -9v-5zM288 903h4q19 7 19 14h-10q-6 0 -13 -14zM288 976q3 0 41 32v4h-5q-15 -4 -36 -27v-9zM315 949q9 0 9 9v4q-9 -1 -9 -9v-4z" />
<glyph unicode="D" horiz-adv-x="686" d="M-20 744v16q0 4 4 4q-4 7 -4 12q10 105 24 105q-4 8 -4 12q18 79 86 141q79 65 157 83v-8q0 -6 -36 -20v-8h12q9 8 67 16h4l-4 -20q8 -1 8 -7q0 -7 -24 -28h12q8 8 27 8q0 -12 -19 -12l7 -27q-7 -1 -7 -8v-4h7l28 16v-4q-4 -11 -59 -59q-3 -13 -51 -82q-35 -73 -35 -177 v-27q6 -102 47 -165q22 -23 31 -23v27q12 75 24 75q0 4 -4 4q4 79 31 188l39 90q4 0 4 4q-8 0 -8 12l12 23q-4 7 -4 16q7 0 20 62q16 0 35 75q21 8 35 63q28 15 28 19v8h-4q-15 -12 -24 -12l-3 8q11 71 35 71q0 4 4 4l4 -8v-8h-8q1 -8 8 -8q0 8 23 12v-4l-8 -12h8v-8 q-19 -21 -19 -35l15 -12h4v12h4l8 -4v8q0 8 -12 8v8q0 7 12 7v8q0 47 31 47v16l-8 -4h-4v4q0 7 8 23l-4 8l8 20q-4 8 -4 12q8 0 20 23q15 3 31 20h4v-4l-8 -12v-4h4l20 16q-4 7 -4 12q32 36 35 78q19 14 24 47h4l-4 8q11 10 35 51l-8 12h4l8 -4q0 21 27 70q0 8 28 43v8h8v-8 h7q8 0 12 24q-4 0 -4 4l43 35h12q8 -1 8 -8q-54 -100 -165 -392q-110 -273 -207 -748h4l117 157q15 8 106 141h4l8 -4q21 35 31 39h4q6 0 12 -12l-36 -74l8 4q8 -4 12 -4v-8q-12 0 -12 -8q4 -8 4 -12q-6 0 -15 -15v-4l7 4q0 -4 4 -4q-7 -24 -27 -43l4 -8l-43 -59v-4h8 q0 9 27 35q0 -4 4 -4q-60 -83 -212 -258h8l16 8l4 -8q-20 -12 -32 -12l-4 8l-15 -8l4 -8v-8q-64 -21 -75 -35h-8q-56 11 -86 27q-4 0 -12 -3q-111 16 -188 62q-94 67 -94 126q-14 0 -31 121v24l4 7q-8 0 -8 8zM192 1073h11q0 8 -7 8h-4v-8zM254 976h4q6 0 12 11h-12 q0 -4 -4 -11zM435 1042q7 0 7 8v4h-7v-12zM439 991q3 -7 3 -15q8 0 24 47l-4 7l20 36v4h-8v7q15 0 15 55h-7q-24 -95 -36 -121q4 -7 4 -16q-7 -4 -11 -4zM442 1073q8 0 8 8v4h-8v-12zM446 1101q2 -8 8 -8v12h-8v-4zM482 1242v4q1 8 7 8h4v-12h-11zM489 1215v7h4l8 -4 q8 10 8 16h8q0 -27 -24 -27zM497 1254v8h12v3q-12 16 -12 24q10 8 16 8l8 -4h4v4h-8v8q19 0 35 58h4v-3q-4 -32 -35 -118h-12q0 12 -12 12zM548 458v8l32 31h4v-4q0 -5 -36 -35zM552 1199q19 35 28 35q-8 10 -8 20h-4q0 -7 -12 -20q4 -7 4 -12q-8 -12 -8 -23zM568 1395v12 q1 7 8 7h4v-4q-8 -9 -8 -15h-4zM576 1434l11 8v-8q0 -8 -7 -8zM587 1309h4q8 0 8 7v4h-8q0 -4 -4 -11zM595 1465v8q1 8 8 8v-8q0 -8 -8 -8zM615 1516v8q1 8 8 8h4q-6 -16 -12 -16zM638 1465v4q2 8 8 8v-12h-8zM654 595v4q1 8 8 8v-4q0 -8 -8 -8zM670 619v4q1 8 8 8v-12h-8z M697 772h4q8 0 8 11v4h-4q0 -6 -8 -15zM701 846q8 0 8 8l-8 4v-12zM709 674v4q1 8 8 8v-4q0 -8 -8 -8zM709 799q4 -7 4 -12q13 12 19 12v4q0 8 -7 8q0 -6 -16 -12zM768 1677v4q4 7 4 12h4q7 -2 7 -8q0 -8 -7 -8h-8z" />
<glyph unicode="E" horiz-adv-x="618" d="M-6 720v8q0 97 78 245q99 128 186 128h4q134 0 233 -167q39 -36 39 -90q0 -51 -43 -85h-4v4q15 20 19 35h-4q-4 -1 -81 -82q-48 -35 -62 -35l-16 4q-6 -4 -15 -4q-3 15 -51 28q-42 22 -42 50q-4 0 -4 4v4q122 94 132 159h-4q-51 0 -140 -136q-27 -56 -46 -171q3 -6 3 -15 q0 -4 -3 -4l15 -78h8q58 0 213 140l152 136q14 0 31 23q10 0 39 27h7q8 -1 8 -7q-8 -2 -8 -8v-8q12 0 12 -8v-4q-27 -31 -39 -31v-7l8 3l4 -7v-4l-175 -167q-5 0 -11 -12h3q64 58 74 58v-3l-109 -105h4q16 6 16 11l8 -3h4q7 0 7 7v4l-7 -4v4q0 6 11 12h4v-8q49 37 144 124 q10 16 27 16l-8 -12q4 -7 4 -15l-16 -12l-3 8q7 0 7 8h-4q-6 0 -15 -16q4 0 4 -4q-17 -1 -55 -43q-14 0 -77 -69l4 -8q-6 0 -16 -16v-4h4l8 4v-7q-4 0 -12 -4l-8 4q-18 -12 -23 -12l8 -12q-29 -23 -74 -85h12l8 4l3 -8q-27 -19 -38 -19v-4q11 0 11 -8v-4h-31q-65 27 -81 27 q0 -4 -4 -4q-229 141 -229 272q-7 0 -8 58zM405 495q2 -8 8 -8h4v8h-12zM413 507q16 6 16 11v4q-13 -4 -16 -15zM514 646q16 25 51 51h3v-4l-46 -47h-8zM576 705q0 5 20 15h4q0 -6 -16 -15h-8zM615 806h4q15 5 15 11v4h-3q-16 -6 -16 -11v-4z" />
<glyph unicode="F" horiz-adv-x="261" d="M-86 381q0 4 4 4l-4 7v7l8 10h-8q38 166 134 425q23 88 169 492q-121 45 -197 136q10 12 12 32q-4 6 -4 18q7 0 12 17q-4 7 -4 11l8 3l-4 18v14q10 17 16 17q118 -101 216 -126h4v4q-20 0 -23 10h3q26 -7 36 -7q131 239 283 239h4q104 0 221 -116q12 -49 12 -60 q-22 -38 -28 -38h-4q-5 0 -39 66q-45 35 -122 35q0 -14 -28 -24q0 -9 -55 -32q-69 -51 -75 -77q-3 0 -23 -28q0 -8 70 -18q96 -28 252 -45q4 0 4 3l20 -3q13 0 20 3q19 -3 122 -10q4 0 4 3l39 -3h20q41 0 126 -4v-3l-4 -7h4q15 17 220 17q4 0 12 -3l8 3l39 -3q63 7 177 10 l8 -3q17 7 63 7h47q9 0 16 -4q28 7 67 7v-7q0 -3 -16 -14q-43 -2 -43 -7q0 -3 -4 -3l-20 3q0 -7 -7 -7l-12 7h-16v-7h-39v7h-4l-51 -10v10q-25 -2 -40 -14l-16 11h-4l-23 -11q-7 4 -16 4l-8 -4l-4 7q-12 -3 -12 -7l-19 4h-12v7h-4v-7q4 0 4 -4q-35 0 -47 -3v3q-3 -3 -36 -3 v-4q17 0 32 -3q26 3 51 3q4 0 4 -3q20 7 31 7q21 -4 24 -4q35 2 35 7l8 -3h36v-7h-4q-35 0 -59 -7l-8 3l-67 -7q-7 4 -20 4h-8l-11 -7h-4v7h-8v-7l-8 3h-4v-3l28 -11v7l19 -3h63q9 0 16 3l8 -3q27 3 43 3h20l8 -3l4 7l8 -4h27l24 4q4 0 4 -4l39 4h47q9 0 16 3l8 -3l20 3 l3 -7l-19 -10l-4 7l-28 -4l-23 4q-8 -4 -12 -4l-24 4q0 -7 -43 -11q0 -7 -24 -7v4l4 7h-4q-9 -11 -47 -15q0 6 -16 15h-8l4 -7v-4h-19l-40 -4q0 4 -4 4q0 -4 -4 -4q-3 7 -3 11h-8q0 -14 -44 -14q-4 0 -11 3q-54 -4 -63 -7q-8 4 -12 4q-8 -4 -12 -4q0 4 -4 4l-4 -7l8 -4 q7 4 16 4v-4q0 -7 -8 -7q-4 0 -4 4q-6 -4 -24 -4v-7h12q8 0 8 7l8 -3q7 3 16 3q1 -7 7 -7h4v7h-11v4q1 7 7 7h44q9 0 16 3q11 0 11 -17l20 3v-3l-8 -11h24l15 11q0 -8 8 -14l28 14q16 0 16 -14h4q7 0 7 7q-3 0 -3 3l7 4h4l12 -7q8 3 12 3v-3q7 3 16 3v7l-36 11 q-15 -2 -15 -11h-16v7q6 0 35 11l8 -4l8 4q21 -3 28 -18l7 4q12 0 12 -11h20q17 -10 27 -10q8 14 24 14q1 -7 8 -7q8 3 12 3q1 -7 8 -7l8 4q7 -4 11 -4l8 4l8 -4l39 4q8 -4 12 -4l-4 7l8 4q16 -7 16 -11q18 7 35 7v-3l8 3l20 -3q4 10 24 10v-7h-8v-3h4l27 3q8 -3 12 -3 q1 7 8 7l12 -7q0 5 11 10h4q8 -14 8 -17h20v3q-16 0 -16 7v4h4q4 0 4 -4l8 4h16q9 0 15 -4q7 4 16 4h4v-7h-20v-4h32v-7h-20q-9 0 -16 -3q-6 3 -15 3l-16 -3v-4h59l24 4q4 0 4 -4q2 0 15 4q100 3 146 3v-7h-4q-181 -3 -181 -10q-4 0 -4 3q-321 -17 -449 -17l-35 -4l-8 4 q-7 -4 -16 -4h-8q-4 0 -4 4q-19 -7 -70 -7h-52l-23 -4q-4 0 -4 4q-53 -4 -79 -4h-83q-16 0 -43 -3l-8 3q-97 -4 -102 -7l-24 4q-379 0 -582 56q-32 10 -75 10q-41 -80 -106 -284q-3 0 -12 -17q4 -7 4 -11h-8v11h-4q0 -4 -4 -11q8 -1 8 -7v-7q-16 0 -16 -21h4v-11 q0 -26 -12 -28q0 7 -8 7v-14h8l-4 -7l-8 4h-4q0 -11 -7 -11l4 -7v-7h-12v11h-4q0 -14 -12 -14l4 -7v-4q-8 0 -8 -3q4 -7 4 -11l8 4h4l-4 -35h12v-8q-11 -28 -16 -28l4 -7v-7h-4l-8 4v-4l4 -17q-4 -25 -12 -25l-8 4v-14l8 3v-10h-4l-8 3l-4 -14l8 4l4 -7v-7h-8v7h-4 q0 -14 -11 -14l-4 7l8 10v14l-8 -3l4 -7q-24 -24 -40 -71h-8v7h-8q0 -7 -3 -14h7v-7l-7 4q-12 -39 -20 -39q-4 0 -4 -3q4 -7 4 -11l-24 -31h4l8 3v-14q0 -5 -12 -10q0 -4 4 -4q-4 -24 -12 -24q0 7 -8 7h-3v-4l3 -7q-3 0 -3 -3l-8 3h-8v-3l12 -15v-10h-8v10h-8q0 -6 -12 -38 q4 -7 4 -11q-8 -1 -8 -7q1 -7 8 -7q0 4 4 4l4 -7v-14h-8q0 10 -4 10q-13 -7 -24 -7q12 13 12 25h-8l-15 -11q-7 4 -16 4q0 -4 -4 -4zM-82 357v3q1 7 8 7q8 -1 8 -7l8 4q7 -1 7 -7v-4l-19 4h-12zM-66 413q8 0 8 7v3h-8v-10zM-51 392l8 -4l4 7v11q-6 0 -12 -14zM-27 452 q1 -7 8 -7v10h-8v-3zM16 532h12l4 25h-16q0 -8 4 -14q-4 -7 -4 -11zM36 599q1 -7 8 -7v3q0 7 -8 7v-3zM103 627v11h8v-11h-8zM131 711h11q-4 7 -4 11q-7 -1 -7 -7v-4zM178 827v11h8v-4q0 -7 -8 -7zM225 922v14h8v-7q0 -7 -8 -7zM812 1315q0 -7 11 -7h4v4zM827 1259 q2 -7 8 -7h8q0 7 -8 7h-8zM867 1308h4q7 0 7 7h-11v-7zM882 1266q21 -4 24 -4q0 7 -8 7h-16v-3zM890 1315q0 -5 12 -10h12q0 7 -24 10zM910 1262h8q7 4 12 4v3h-12q-8 -1 -8 -7zM934 1248h15v4h-15v-4zM993 1280l4 -7q6 3 19 3v4h-23zM1001 1305h15v7l12 -7l12 7q1 -7 8 -7 q3 0 31 7q1 -7 8 -7h39v7l8 -4h4l12 7h8l12 -7h16q0 4 -16 14l-8 -3q-4 0 -4 3l-20 -3h-8q-8 0 -15 3l-44 -7q-4 0 -4 4l-19 -4l-28 4q-6 -4 -19 -4v-10zM1008 1248h12q0 7 -8 7zM1008 1266q2 -7 8 -7h4q8 0 8 7h-20zM1016 1329h16l-4 7q-8 -3 -12 -3v-4zM1020 1276h12v7h-4 q-8 -1 -8 -7zM1032 1255q1 -7 8 -7h4q0 7 -8 7h-4zM1040 1276q8 0 8 -3q5 3 27 3v4q-15 0 -15 7q-20 -5 -20 -11zM1040 1329h8l19 4v3h-19q-8 -1 -8 -7zM1079 1340q1 -7 8 -7h4v10h-12v-3zM1087 1259q6 0 12 10h-4q-8 -1 -8 -7v-3zM1115 1276h4q7 4 11 4q2 -7 8 -7v7l-19 3 h-4v-7zM1142 1276q22 4 36 4v3h-32zM1150 1333h16v3l-16 4v-7zM1166 1269l4 -7q6 4 19 4v3h-23zM1174 1252q12 0 12 -7q6 3 15 3q0 7 -8 7h-19v-3zM1186 1333h15v7h-15v-7zM1193 1315l4 -7q8 4 12 4l20 -4q4 0 12 4l19 -4q48 4 71 4q8 -4 12 -4v4q0 5 -12 10l-8 -3 q-7 3 -15 3l-8 -3q-7 3 -16 3h-8q-8 -1 -8 -7l-19 4q-10 0 -32 -4l-24 4v-4zM1205 1245q1 -7 8 -7l4 7h-12zM1237 1238h12v3q-5 0 -12 4v-7zM1237 1333q4 0 12 -4l3 7l-15 4v-7zM1249 1252q13 0 19 -4q22 4 44 4q0 7 -12 7q-4 0 -32 -4l-8 4q-7 -4 -11 -4v-3zM1256 1336 q5 0 12 -3l20 3l24 -3l3 7h-3q-4 0 -4 -4l-28 4h-24v-4zM1323 1259q6 0 16 -7q8 0 8 7l-8 3h-16v-3zM1347 1273q8 -16 16 -18h15l4 18h-35zM1402 1276v4h8v-11q-8 0 -8 7zM1437 1276l8 4h12l-4 -7q8 -1 8 -7v-4h-4q-19 10 -20 14zM1552 1333v7h8l23 -4q24 7 24 11l19 -4h4 q23 0 28 4q21 -4 35 -4h28v-7h-32q-8 0 -15 4q-48 -4 -79 -11q-27 4 -43 4zM1567 1276v7h12v-7h-12zM1630 1238h24v3h-24v-3zM1670 1241h16v4h-16v-4zM1745 1248q7 -8 7 -14h8q0 11 12 11v3h-27zM1788 1315q1 7 8 7h12q7 -1 7 -7q0 -7 -7 -7h-12q-8 0 -8 7zM1851 1234h16v4 h-16v-4zM1855 1245h12v7q-8 -4 -12 -4v-3zM1871 1234h15q8 0 8 7l16 -3h8v3h-16v7h12v4h-28l4 -7l-8 -4l-8 4l-3 -7v-4zM1922 1248h12v7q-8 -3 -12 -3v-4zM2044 1248v7h15v-7h-15zM2185 1378v7h20v-7h-20zM2237 1396v7h11v-7h-11zM2252 1248v7h24v-7h-24z" />
<glyph unicode="G" horiz-adv-x="837" d="M26 744v30q0 4 4 4l-4 9q11 214 181 280q76 34 103 34v-4q9 4 13 4q83 0 185 -60q2 -12 121 -112q0 -10 22 -39v-13l-9 -13q21 -32 34 -81q-13 -5 -13 -9q35 -74 35 -90h4q6 0 78 107l51 73q0 12 18 18q12 15 34 56h17q-4 8 -4 13q34 25 39 25q7 0 17 -17 q-20 -24 -43 -26v-17h4q0 -23 -17 -30l4 -9q-7 -21 -21 -21q4 -8 4 -13q-38 -72 -95 -159q-32 -66 -56 -99v-18h5l21 26q0 -4 4 -4l-21 -35v-13q21 -161 21 -241q0 -10 -12 -34q4 0 4 -4l-9 -5q0 5 -4 13q-8 -4 -13 -4v-9q22 0 22 -8v-31q0 -6 -13 -12q-5 8 -5 12 q-51 -62 -64 -86q4 0 4 -4q-13 0 -26 -69l17 13l5 -9q-5 -8 -5 -13l9 5q0 -5 4 -5q-7 -43 -17 -43q0 9 -8 9q0 -13 -9 -13h-4v9l4 8l-9 5q-9 -36 -38 -69l4 -9l-52 -103q9 -2 9 -9l-17 -30v-13l21 13l4 -9l-21 -17q0 9 -9 9q-16 -26 -21 -26h-5v13q-18 -24 -38 -30 q0 -6 -26 -13l-39 -52l-9 -4l-4 8v5l9 13v4l-52 -47l4 -9q-13 -16 -43 -30q0 4 -4 4q0 -9 -9 -9h-38q0 -21 -39 -21q-9 -7 -60 -13q-125 24 -125 78l-5 8q0 8 9 26q0 4 -4 4q0 108 185 379q101 149 159 224q4 0 30 30q9 -1 9 -8v-5l-13 -17v-4h9q0 12 64 90v-8l-13 -22h5 q17 18 47 35q9 14 9 26v43l8 13l-4 30q0 5 4 43q-30 174 -95 284q0 22 -68 43l-9 13q17 24 17 30q-14 9 -21 9q-83 -33 -112 -61h8q49 34 91 39v-4q-5 -12 -52 -30q0 -7 -65 -52l-51 -86q-17 -63 -17 -73v-5q0 -9 4 -17q-4 -7 -4 -17q0 -43 86 -43q98 21 185 56q24 4 34 4 q2 -13 22 -30q-12 0 -26 -34h-9v-9h9v-9h-9l-8 5l-5 -9v-4h18v-9q-43 -17 -52 -17v-4h13q21 13 30 13v-5q0 -11 -52 -26v-4h22v-9q-12 0 -60 -17q0 -8 25 -8v-9q-32 -22 -64 -22q-8 5 -13 5q-4 -13 -26 -13q-7 0 -34 8v-4q0 -13 60 -26h30v-8q-23 -5 -26 -5q-70 11 -103 39 q-122 120 -164 246q-17 46 -17 73zM134 -247h8q0 36 22 52l-4 9q4 8 4 12q-19 0 -30 -73zM142 -320q9 -18 9 -26h4q161 0 353 474l48 189q0 5 -5 5l9 56h-4q-24 -30 -48 -30q-8 4 -13 4q-7 -17 -17 -17v-9q23 -9 26 -9v-8h-4l-26 13q-8 0 -22 -26h-4l4 -9v-8q-13 0 -13 -9 v-4q13 0 13 -4q0 -13 -13 -13l9 -13q-32 -43 -34 -43l-5 8q5 0 5 5q-9 0 -9 12q-9 -1 -9 -8l9 -13v-22q-261 -350 -263 -495zM168 -143v-5h9q6 0 13 13l-9 5q-6 0 -13 -13zM233 -36h4q8 5 17 5l-4 8l13 17v9h-9q-21 -30 -21 -39zM250 7h13q8 0 8 9q-8 0 -8 17 q-13 -4 -13 -26zM267 38q9 -14 9 -22q6 0 13 13l-5 9q16 0 22 21q9 0 9 17l-9 5l-22 -18l5 -8l-9 -5q0 5 -4 5q0 -10 -9 -17zM310 89l17 -4v9q-4 0 -12 4zM319 -363v-4h4q0 8 9 8v9h-9q0 -5 -4 -13zM371 485h8q9 0 9 9h-9q-8 -1 -8 -9zM379 175q4 0 4 -4q9 4 13 4v18h-8 q0 -7 -9 -18zM405 -285h13q0 7 13 21h-4q-6 0 -22 -21zM414 236q0 -7 13 -13h4v17h-17v-4zM414 533h4q9 0 9 8h-5q-8 -1 -8 -8zM431 494v9l21 4v-9zM448 244l22 39h8v-4q-4 -14 -26 -35h-4zM478 287v5q2 8 9 8h4v-4q0 -9 -8 -9h-5zM508 361h18q8 0 8 8v4q-7 0 -17 9h-4l4 -9 q-9 -1 -9 -8v-4zM638 33h8v13q-8 -1 -8 -8v-5zM913 925v8h13v-8h-13z" />
<glyph unicode="H" horiz-adv-x="691" d="M-13 417v29l4 22l-4 7q23 272 65 458q4 0 4 4l-4 7q12 52 18 54l-4 26q16 16 26 79q3 0 7 11q-4 6 -4 14q7 0 7 11l-3 22q8 42 32 65h-3l-7 -4v7q7 0 7 11l7 -3l4 7l-4 7q18 29 50 126q12 9 47 116q9 0 44 90l7 4q6 -4 14 -4q15 46 47 69q7 16 15 18l3 -8 q-54 -116 -72 -180q17 28 83 170q7 0 11 25h7v-4l-79 -177l7 -3q7 29 14 29q8 -1 8 -8l-4 -18h7q17 47 26 47h3v-3q-18 -45 -18 -47l7 -4q3 18 11 18h4q-18 -58 -29 -65h-4v4q0 4 15 40h-8q-43 -98 -61 -159q5 0 47 108h4q7 -1 7 -7q-7 0 -22 -54h7v11h11v-8h4l14 15h4 l4 -22h-8l4 -14q-69 -168 -98 -293q4 0 4 -3q102 47 155 47q90 -23 90 -47q94 -93 94 -148h-3l-18 29h-4v-4q0 -18 -7 -43l7 -4q-22 -127 -22 -133h11q25 90 25 93v11h8v-7l-33 -155h-7l4 36v4h-8v-8q0 -22 -29 -72v-3h4l47 50q0 6 162 206h4v-7q-22 -27 -32 -55v-3h14v-4 q-12 -37 -65 -104v-4q14 0 51 43h3q-6 -32 -65 -104v-4l7 -11q-4 -28 -57 -97q0 -15 -29 -51q-1 -5 -36 -54l3 -7q-4 0 -36 -36v-4h4q12 7 21 7h8v-3q0 -4 -26 -18h-7q-8 0 -14 3q-12 -7 -22 -7q-23 11 -58 15q-4 12 -54 32q-29 21 -29 25v11q40 183 109 455v22 q-33 -6 -62 -33h-10q0 -5 -15 -11q0 4 -4 4l8 14h-4l-25 -21h-4q-3 0 -3 3q-12 -7 -22 -7q-4 7 -4 11q-7 -4 -10 -4l-8 4l-7 -4l-14 7q-28 0 -36 -111q-40 -227 -40 -300l-15 -36q4 -7 4 -11q-11 0 -18 -47q-37 -25 -58 -25q-3 0 -29 7q-8 0 -14 -3q-29 0 -54 21 q-11 0 -11 7zM157 1262h3q9 0 33 83h-4q-20 -33 -32 -83zM182 1201q8 0 14 32q-8 0 -14 -32zM189 1348q7 0 7 8v3q-7 -1 -7 -7v-4zM193 1237q9 0 54 130q14 35 14 43h-3q-7 -5 -65 -173zM207 1392h7q11 30 11 32h-7q-11 -24 -11 -32zM222 1265q7 0 7 8v3q-7 -1 -7 -7v-4z M225 1450l7 -4l8 14v4h-4q0 -5 -11 -14zM240 1320h7v10h21v11h-21q0 -9 -7 -18v-3zM240 1471h7q0 12 3 18l-7 4q-3 -19 -3 -22zM250 1352l11 -7h11v7q-4 0 -11 4l4 7v4h-7q0 -6 -8 -15zM254 1237q7 0 7 10v4h-3zM261 1413q10 3 29 58h-7zM265 1385h7v10h-4q0 -3 -3 -10z M265 1525h7q0 13 18 44v3h-3q-10 0 -22 -47zM276 1291q4 0 14 21v11q-5 0 -14 -21v-11zM279 1410h4l4 18q-8 -1 -8 -7v-11zM297 1406l8 -3l3 7v7h-7q0 -4 -4 -11zM301 1468q8 0 11 18h-7zM308 1320q7 0 7 7v3h-7v-10zM312 1341h3q8 0 8 7l7 -3h7v7q-7 0 -7 11h-11zM326 1475 h7l4 14h-4q-7 -1 -7 -7v-7zM370 1403v10h7v-3q0 -7 -7 -7zM370 1558q13 25 18 25q0 -4 3 -4q-6 -20 -18 -28zM388 1594v3q0 6 10 11l4 -7l-11 -7h-3zM391 1453v15h7v-8q0 -7 -7 -7zM398 1471v11h8v-4q0 -7 -8 -7zM431 1547v4q1 7 7 7h4q-4 -7 -4 -11h-7zM701 814q6 0 11 15 v3h-3q0 -5 -8 -14v-4z" />
<glyph unicode="I" horiz-adv-x="276" d="M3 415l3 13q0 143 17 262q0 3 -3 3q16 162 33 245l6 4l-3 6l7 10l-4 17q5 4 20 56q11 2 23 50h14q0 -3 -7 -33l33 59l14 -6l-7 -50h10q9 50 16 50v-4q-11 -63 -16 -63l3 -6v-3h-6v-7h9v-3l-3 -7l-6 3q-7 -1 -7 -6q1 -7 7 -7v10q6 -1 6 -7q-10 -22 -10 -26h10q5 26 23 26 v-3l-3 -13q3 -7 3 -10q-6 -1 -6 -7q16 0 16 -16l7 3l3 -7v-3q-2 -10 -30 -10q4 6 4 10q-7 -3 -10 -3v-4q1 -6 6 -6q0 -4 -3 -4l3 -16l-3 -7q3 -6 3 -13l-13 10q0 -10 -6 -23q6 -1 6 -7q-5 -4 -16 -40q-4 0 -4 -3h10v-7h-6v-3q0 -4 29 -27q0 -56 -6 -56l3 -7v-6q0 -3 -3 -3 q0 -4 3 -4l-3 -16v-17q6 0 6 7v26h4l6 -3l-3 -17v-13q7 -8 7 -13q0 -19 -7 -37q3 -6 3 -10q-6 0 -13 -39h-3l-7 3q-3 -36 -6 -43l6 -3q24 42 129 182h7q8 0 10 -17q-5 0 -10 -13l3 -7q-29 -42 -29 -56q3 -6 3 -10q-20 -23 -33 -79q-4 0 -20 -30v-4h6q0 16 24 34v-7 q-52 -85 -103 -136l-13 3q-48 -13 -50 -13q-10 3 -10 7q-27 -7 -43 -7q-21 14 -30 27zM66 965q7 0 7 6l-7 4v-10zM146 942q6 3 10 3v3q0 7 -7 7zM162 607q7 0 7 6l-7 4v-10zM165 567v13q7 -1 7 -6v-7h-7zM165 637h4v13h-4v-13zM169 1008q11 23 16 23l4 -6q0 -18 -10 -20h-4z M172 948q7 0 7 10v4h-4zM285 640v3q1 7 6 7v-3q0 -7 -6 -7z" />
<glyph unicode="J" horiz-adv-x="430" d="M-411 -318q0 140 254 522q90 125 107 138q30 19 152 169q8 0 22 36v76h-9v-58h-4q-13 0 -45 343q-8 0 -18 112q17 4 23 31l-5 27v9h5l13 -9q0 18 27 18l9 -5q9 27 18 27l4 -9q-4 -9 -4 -13q4 0 4 -5l9 5q37 -40 67 -40q1 8 9 8q1 -8 9 -8q8 4 18 4q0 -7 18 -18 q0 -4 -5 -4q9 -125 27 -250q-9 0 -9 -13h-5q0 13 -8 13v-31h4l116 151q29 0 107 107l4 -9v-4l-22 -31v-5q5 0 14 -4q16 44 44 44v-17q9 0 9 -5q-34 -61 -129 -169h4q45 42 45 53h13v-9q6 0 58 81h5q9 -2 9 -9v-5q-88 -119 -246 -294q0 -10 5 -18q-5 -38 -5 -58q9 -24 9 -27 h-4q9 -18 9 -31l-9 -5h-9l-5 18l5 9q-5 8 -5 18v5q0 4 5 4q-5 7 -5 27h-9q0 -9 -4 -9l4 -22v-36q0 -9 -13 -9v-5q13 0 13 -8q0 -9 -13 -9v-9q13 0 13 -9v-23h-4l-18 18l5 9q-5 9 -5 14q9 0 9 9l-9 4h-9v-4q-4 -40 -4 -50q3 0 26 -26l-4 -23l18 -31q-5 -8 -5 -18l-13 9v-9h9 q0 -2 -13 -49v-13h4q13 37 13 40h9v-4q-11 -81 -31 -125l5 -9v-5l-67 -200l-41 -76q-30 -45 -80 -72h5l9 5l4 -9q-34 -59 -62 -80h-9v9l-14 -9h-4v9q-70 -62 -134 -103q4 -9 4 -13q-14 -9 -26 -9q0 4 -5 4q0 -9 -9 -9l-9 5q0 -31 -169 -45q-72 26 -72 80q0 15 -4 23z M-317 -256v-4h9v13q-9 -1 -9 -9zM-313 -229v-9h5q6 0 22 53h9l-18 -84v-40q0 -5 -4 -5q15 -36 22 -36h13q147 31 295 255q86 153 133 383l5 32v62h-9v-5l-4 -53h-9v58q0 4 4 4l-4 9v45q0 6 -14 13q-4 0 -76 -84q-28 -49 -44 -49q-9 0 -63 -81q-30 -11 -147 -192q5 -8 5 -13 q-35 -75 -85 -156q0 -11 -31 -76zM-277 -167q7 18 13 18v-13q0 -9 -9 -9h-4v4zM-264 -140q0 6 14 13h4v-4q0 -6 -13 -13h-5v4zM-233 -73q12 27 18 27q0 -5 5 -5q-11 -31 -18 -31h-5v9zM-139 -367h5q8 0 8 8h-4q-9 -1 -9 -8zM22 -243h4q9 0 9 9h-4q-9 -1 -9 -9zM106 -144h5 q9 0 9 8v9q-7 0 -14 -17zM218 83h4q9 0 9 9h-4q-9 -1 -9 -9zM231 119h5q0 5 4 13h-9v-13zM236 150q4 -9 4 -13h9v4q-4 9 -4 13h-9v-4zM245 172q9 0 9 9v5h-9v-14zM254 204h9v13h-9v-13zM263 230h9q0 15 4 23q-4 7 -4 17h-5q0 -4 -4 -13l4 -22q-4 0 -4 -5zM276 645q9 0 9 9v5 q-9 -2 -9 -9v-5zM303 471q4 9 4 14h14v-27h-9q-9 0 -9 13zM423 899h5q49 52 49 63v4h-5q0 -6 -49 -67zM548 993l5 27h13v-14q0 -6 -13 -13h-5z" />
<glyph unicode="K" horiz-adv-x="531" d="M-32 431v20q17 47 55 318q35 160 47 198l3 5q-3 6 -3 9q31 155 44 160l-3 6l14 49q16 70 32 88l-3 11q0 9 21 53q0 14 11 14l-3 15v3h3l6 -3v3q-6 7 -6 12q19 61 29 61q5 14 18 29h6v-3q-9 -13 -9 -26q20 35 67 163q9 23 15 23h2v-3l-2 -6h8v-6h-11v-5q8 0 8 -9 q-23 -51 -35 -87v-27q-5 0 -5 -14h-3l-6 3l-3 -6v-3h9v-3q-12 0 -12 -14q3 -6 3 -9h3l32 84q6 3 9 3l-3 6v6h6v-6l-21 -61v-3q1 -6 6 -6h3q0 9 6 9l-3 6q7 14 11 14h3v-3l-5 -8l5 -9l6 3q6 -1 6 -6q-17 -12 -17 -35q-5 0 -12 -29l-6 -3q0 9 -6 9l-3 -6v-3h9v-3 q0 -13 -12 -29l-5 3q-6 -3 -9 -3q0 4 9 9l-3 14v3l6 9q0 6 -6 6l-6 -9l3 -6q-10 -3 -12 -12v-8q-20 -28 -20 -47q3 0 29 29l6 -3v6h6v-3l-15 -11q12 0 12 -6l-3 -6v-6h3q0 7 3 12l14 -3q6 0 6 9l14 -3q13 40 18 40v-5l-20 -76q-9 -2 -9 -23v-12q-10 0 -29 -82 q-10 -23 -24 -96q-14 -43 -17 -43l3 -15q-6 -30 -15 -43l3 -6l-6 -12h3q91 69 207 140q0 -3 3 -3l-3 -6l9 -12q-4 -3 -15 -26v-6l6 3q5 -3 12 -3q0 5 11 12q6 -1 6 -6q-9 -2 -29 -29q-6 0 -29 -23h3q5 3 9 3l2 -6l-23 -20h6l9 5h8l-61 -49h3q4 0 53 38h3v-6q-5 0 -56 -41h-3 v-3h15v-3q-73 -55 -137 -116l-3 -12v-3h3v6h6q0 -39 142 -311l6 -3q36 32 82 84q78 82 87 82h9v-3q-2 -29 -18 -29v-12h9q8 20 23 20q0 5 9 9h6v-9h-6l3 -5q-6 -12 -9 -12q6 -10 6 -18q0 -28 -55 -104v-3q3 0 20 14h3v-17q-19 -35 -70 -56q-18 -29 -72 -43h-21 q-91 0 -157 166q-59 128 -67 137q-18 -107 -44 -303q-9 -6 -17 -6l-3 6q-3 0 -9 -3q-36 3 -67 14l-6 -2q-24 0 -52 23zM163 1092q1 -6 6 -6h3q0 6 -6 6h-3zM163 1255q6 0 6 8v3h-3zM189 1057q6 0 9 20q-9 -3 -9 -17v-3zM189 1345h9v9h-3q-6 -1 -6 -6v-3zM192 961h3q6 3 9 3 v8h-3q0 -8 -9 -8v-3zM198 1092h3q4 0 9 8v3h-3q-4 0 -9 -8v-3zM198 1263h9v6h-9v-6zM198 1360h3l3 11q-6 0 -6 -9v-2zM210 1240l8 -6q12 47 18 47l6 -3v6l-9 11q4 0 9 9h-3q-13 -4 -21 -23v-6l3 -6q-11 -11 -11 -29zM210 1295l5 -2v8q-5 -1 -5 -6zM215 1048h3q7 0 15 38 l-6 3q-7 -30 -12 -38v-3zM218 1167q5 0 9 9h-3q-6 -1 -6 -6v-3zM224 1095l6 -3q6 0 9 26h-6v-6h-3l-6 3l3 -15zM224 1185h3q6 0 6 6v3h-3q-6 -1 -6 -6v-3zM224 1345l6 -3l6 9l-6 3zM227 1499v3q15 26 18 41q5 0 5 3v9h6v8l-6 9q12 12 15 29h3q6 0 9 -17l-6 3l-3 -6 q0 -3 3 -3q-9 -38 -15 -38q0 -3 3 -3q-2 -38 -32 -38zM233 1214h6v9h-6v-9zM233 1365h6l3 12v6h-3q0 -7 -6 -15v-3zM236 1243q3 -5 3 -12h3q0 16 17 30v2q-4 0 -12 6q0 -6 -11 -6l9 -11q0 -4 -9 -9zM239 1167l6 -3h8q0 11 15 41v18q0 6 -6 6h-3q0 -3 3 -3l-3 -18h-3 q-3 0 -3 3l-6 -3l-5 3l-3 -6v-6q11 0 11 -5q-3 -6 -3 -9q3 0 3 -3q-4 0 -11 -15zM242 1389l5 -3q6 0 6 6q-6 0 -6 8h-2zM245 1150q5 0 5 6v3q-5 -1 -5 -6v-3zM245 1295q4 0 8 12h-6zM247 1406q7 0 9 15q-6 0 -9 -15zM250 1275h6q0 13 9 23l6 -3h6q0 5 8 15l-8 6 q-6 -10 -6 -15h-6v6h-6q0 -7 -9 -32zM253 1237q5 0 9 15h-3q-6 -1 -6 -6v-9zM265 1237q3 0 9 -3q6 11 6 24h-3q-8 -6 -12 -6v-15zM265 1316h6q0 11 6 17h-6q-6 -1 -6 -5v-12zM271 1604l6 9v3h-6v3q0 5 14 8l6 -8q-9 -11 -9 -21h-5q-6 0 -6 6zM277 1266h3q5 0 5 6h-8v-6z M280 1435h5q9 23 9 32v3h-3q0 -9 -11 -17q2 -6 2 -9q-2 -6 -2 -9zM282 658l6 -3v3q-3 6 -3 9h-3v-9zM282 1298q3 -5 3 -11q8 0 18 35h-3q-7 -6 -12 -6v-3l3 -6q-4 0 -9 -9zM282 1328h3q0 11 9 11v3h-9q0 -3 -3 -9v-5zM297 1330q4 0 15 15l-6 3l-9 -12v-6zM303 1392l9 5h2v-5 q0 -6 -5 -6q-6 0 -6 6zM317 1581v3q1 6 6 6v-9h-6zM323 1590v8q9 26 15 26h3v-2q-13 -32 -18 -32zM326 1426v9h6v-3q0 -6 -6 -6zM332 1461l12 24h5v-3l-11 -18l3 -5l-6 -3zM332 1531v3q4 12 9 12h3v-6q-6 0 -6 -9h-6zM341 946h3q5 0 5 6h-3q-5 -1 -5 -6zM341 1630v12h8v-3 q0 -4 -8 -9zM344 1432v3q0 15 14 29h3q-6 -11 -12 -32h-5zM344 1499q0 6 5 6l3 -6q0 -6 -6 -6zM367 943q0 4 9 9h2q0 -4 -8 -9h-3zM556 672q0 5 9 9v-3q0 -6 -6 -6h-3z" />
<glyph unicode="L" horiz-adv-x="344" d="M-38 460q14 60 35 257q10 30 32 168q3 0 3 4q0 3 -3 3q5 35 14 43l-4 7l28 109l-3 7v7l10 17q-3 7 -3 11q25 49 35 112q18 49 21 81q-3 0 -3 4q7 1 24 66q-3 7 -3 11q7 3 10 3l-3 7v11q6 5 17 46h4l-4 7q9 17 18 17l-7 11q13 20 21 56l46 123q16 48 31 53v-11q0 -3 -3 -3 l3 -7q-19 -57 -28 -57q0 -3 4 -3l-4 -18v-10q-7 0 -14 -18v-17h7q43 154 74 154h3q0 -5 -10 -10l3 -7v-4l-3 -7h7v-7q-10 0 -18 -42h-3l3 -7q-19 -34 -24 -60q-7 -1 -7 -7v-3q7 0 7 -4q0 -3 -18 -25q1 -7 7 -7h4q0 5 14 29l-4 7q27 65 35 73l-3 7q24 60 28 60h3v-3 q-25 -59 -52 -151q-11 -36 -18 -36v-10q0 -4 4 -4q0 -10 -11 -10v-4h7v4l7 -4h4v4h-7v7q14 0 14 14q-7 0 -7 7l7 3q0 -5 10 -14l-3 -7q7 -1 7 -7l-11 -21v-3q1 -7 7 -7l7 3q7 -3 11 -3l7 10v11l-14 -11h-4v7q13 45 21 46h14q0 -2 -17 -18v-10l14 17q7 -1 7 -7 q-21 -52 -28 -59q3 -7 3 -14h-14q-10 0 -10 24h-4q-14 0 -21 -38l4 -8v-7l-11 -14q4 -6 4 -10q-7 -1 -7 -7q3 -7 3 -11q-6 -3 -14 -3l4 -7q-7 -1 -7 -7q1 -7 7 -7l-4 -7v-11q14 0 21 53h11v-7h3q0 4 4 10q-8 0 -14 14q8 18 17 18q-3 7 -3 11q3 6 3 10h4q3 0 3 -3l7 3 q7 0 7 -10l-3 -8q3 -6 3 -10q-11 0 -24 -74l-7 -10v-4q1 -7 7 -7l10 7l4 -7q-32 -10 -32 -49q-10 -21 -14 -21l4 -7q-9 -28 -14 -35l3 -7q-9 -43 -14 -43v-3l4 -7q-11 -20 -11 -28l7 -4h4l14 60h10q-3 -31 -10 -39q3 0 3 -3l-10 -7l7 -14q-15 -51 -21 -53q0 4 -4 4 q4 28 7 28l-3 7q3 6 3 14h-7q-7 -46 -18 -60l4 -7q-7 -1 -7 -7l3 -7q0 -8 -10 -42h3q-4 -18 -10 -18q3 -6 3 -14l7 4l-3 7q12 31 18 31h3q-25 -178 -39 -210l4 -8q-21 -135 -28 -161l3 -7l-7 -42q63 64 197 246q9 23 28 38l4 -7q-5 0 -25 -31q4 -7 4 -14q-11 -4 -11 -22 l4 -14q-9 -2 -18 -24v-4h3q2 14 11 14h4v-3q0 -4 -4 -4l4 -7v-3h-7l14 -25q-9 0 -18 -28l14 14h4v-14l-4 -7q7 -1 7 -7q-42 -67 -77 -105l3 -18l14 14h4v-3q-29 -42 -99 -113q4 -7 4 -10q-22 -21 -116 -32q-92 33 -98 42q0 14 -32 21q0 6 -7 14zM138 573h7v35h-4zM145 647 l7 -4v21h-4q0 -12 -3 -17zM148 675l7 -4q0 17 4 35q-5 0 -11 -17l4 -7zM155 713h7v7q0 7 -7 7v-14zM159 738l7 -4q0 39 28 141q-4 7 -4 10l7 4l-3 7v11l7 10v18h-7zM162 1191q7 0 7 7v4q-7 -1 -7 -7v-4zM169 1124h7v14h-7v-14zM176 1244h4v14h-4v-14zM180 1174q4 0 10 -4v4 q0 3 -3 3q0 11 10 11v14h-7q0 -10 -10 -28zM180 1265h3q5 0 14 25q0 7 -7 7q0 -16 -10 -29v-3zM197 1441h4q14 51 21 59v7l-18 -14l4 -7q0 -5 -11 -42v-3zM204 1346h4q7 0 7 7l-7 3h-4v-10zM208 1279h11l3 14q-9 -7 -14 -7v-7zM208 1367l7 -4q7 9 7 14q-3 7 -3 11l10 7l-3 7 q1 7 7 7l-4 7q7 11 18 42h3v18h-10q0 -9 -32 -109zM211 1297h4q9 7 14 7v7h-14zM215 1177q5 4 25 74l-7 3h-4zM219 1008l10 7v-28h-7q0 3 -3 21zM219 1518l7 -4l10 36v3h-3q0 -10 -14 -21q3 -7 3 -11q-3 0 -3 -3zM222 1321l7 4q0 -4 4 -4l3 32q-3 0 -3 3q5 0 10 11q0 7 -7 7 q-14 -26 -14 -32h4l-4 -7v-14zM233 1381q5 0 14 -7q10 56 24 56q-4 6 -7 35q-7 0 -10 -28q3 -6 3 -14q-14 -3 -14 -7q4 -7 4 -11h-4l4 -7v-3zM236 1209q4 0 18 35h-7q-11 -28 -11 -35zM240 1290l7 -4q2 18 17 18v3l-17 4q0 -13 -7 -21zM247 1486l7 -3l3 17v4h-7zM254 1518 q1 -7 7 -7l3 7h-10zM268 1314q7 0 7 7v4h-7v-11zM285 1258v3l4 18h7v-4l-4 -17h-7zM289 1514v4q1 7 7 7h3l4 -18h-7q0 7 -7 7zM299 1525v3q4 22 11 22h3v-4q0 -7 -7 -7l4 -7v-7h-11zM303 1437h7v11q-7 -1 -7 -7v-4zM313 1567v11h11v-4q0 -7 -7 -7h-4z" />
<glyph unicode="M" horiz-adv-x="836" d="M-72 405v7q0 4 4 4l-4 7q7 36 11 36q-7 11 -7 18q11 53 17 53q0 4 -3 4l28 132h8l-8 -47l11 7l-3 7l14 15v3h-7v4q0 3 10 11q0 3 -3 3q3 11 3 39h-3v7l14 43q13 0 39 97q51 88 136 192q0 6 11 18q-4 0 -4 4q7 3 11 3l-4 7v7l21 18q43 11 79 11q37 -12 82 -54 q0 -15 46 -32h4q37 40 107 40q110 -10 110 -29q129 -64 129 -153q3 0 3 -7l-14 -107q4 -7 4 -15q0 -7 -11 -7l4 -18q-7 0 -18 -21h-4q-7 0 -7 18h-3q0 -39 -22 -47h-3q0 11 -8 11q0 -7 -14 -75l71 89h8l-4 -7v-3h4q0 9 110 139h11q7 -1 7 -7l-14 -40l10 8l4 -8q-6 0 -25 -35 v-4h7q0 11 7 11h4l3 -14h-3l-7 3l-4 -7h7v-4q0 -7 -7 -7h-3v11h-8q-4 0 -17 -18v-3l7 3l7 -3q1 7 7 7v-4q-6 -14 -28 -43v-7l14 11h3v-7q-28 -36 -28 -43v-11q-6 0 -36 -42q-25 -37 -53 -72q-10 -2 -61 -75v-3l21 18v-8q-13 -14 -25 -46q4 -7 4 -11l-11 -7l4 -7v-3l-25 -8 q-4 0 -4 4q-29 -7 -64 -7q-68 0 -68 18q0 3 -3 10q78 360 78 446q7 0 7 79v7q-35 -37 -78 -179h-4v4l-7 -4l-25 11q-9 -1 -14 -18q0 -3 4 -3q-8 -27 -8 -50v-4h-7v4q4 44 4 46q-9 0 -32 -139q-6 -4 -25 -93q-9 0 -14 -28h-11v3l3 18q-13 -21 -32 -28l-10 7q0 -11 -8 -11 l-7 4q0 -15 -10 -15h-4q-7 0 -7 11h-18q-24 2 -50 32q75 275 75 378h4l-4 7v68h-7l-71 -85q-14 -28 -18 -33q3 -6 3 -10q-19 0 -42 -100q-6 -25 -15 -25l4 -18q0 -7 -11 -7v-11q-7 -25 -7 -28q4 -7 4 -11l-15 -14l4 -7v-4q-9 0 -22 -61q-13 -21 -17 -21q0 4 -4 4q7 11 7 21 v4q0 7 -7 7l-7 -18q4 -7 4 -11l-8 -3l4 -8v-3h-7q0 7 -4 7q-7 -4 -10 -4q0 4 -4 4q0 10 11 46h7l-4 -25q9 0 11 47v3h-4q0 -10 -7 -10v7q0 13 15 50l-8 3h-3l-4 -18v-14h-7v-18q-7 -57 -14 -57l3 -7q-8 -21 -14 -21q0 3 -3 3v-7h7v-3q0 -4 -4 -4q4 -7 4 -11l-4 -7q0 -3 4 -3 q-11 -49 -11 -61h-4l-7 4l-3 -8q14 -3 14 -21q-7 -15 -7 -21q3 -7 3 -15h-7l-3 18q7 15 7 25l-11 7q-2 -35 -11 -35v7q15 126 22 132q-4 6 -4 14h-3q-7 -25 -29 -189h-10v21q0 8 3 15q-3 6 -3 14q7 0 7 11l-4 7q7 22 7 28h-3q-9 0 -15 -35l4 -7v-4h-7v-4q1 -7 7 -7 q-3 -21 -7 -21q-7 3 -11 3q0 -7 -7 -7h-4v11q0 4 4 4l-4 7q0 3 4 3l-4 7v8l8 10l-4 7q4 7 4 15v3q-15 0 -15 7v11q1 7 7 7q0 -18 8 -18v11q-10 21 -15 21q-7 -34 -7 -39h-7zM-43 341h7l7 4q-6 14 -11 14zM-18 419l7 -3q3 21 7 21l-4 7v8q8 17 11 17q-4 7 -4 11q7 12 7 21 l-3 8q3 7 3 10h-7zM-1 548q1 -7 7 -7t11 10l-11 8zM10 562h11v7q-4 0 -11 4v-11zM17 608q6 0 14 33q-3 6 -3 10q7 12 7 18h-7q0 -13 -11 -61zM21 423l7 -4q4 32 11 40l-8 3q-10 -33 -10 -39zM21 509h7q36 184 36 196v3h-4zM31 673h4q7 28 7 35h-7q-4 -25 -4 -28v-7zM39 719 h7v14h-4zM49 394v4q8 0 15 4l3 -8l-7 -3q-7 3 -11 3zM49 427h4l7 -4q7 4 11 4v-8q0 -7 -7 -7zM78 780q7 0 18 42h-11q0 -8 -7 -17v-25zM81 437v4q4 7 4 11h4v-15h-8zM96 555q7 4 10 4v10l4 25l-7 4q0 -9 -7 -25l3 -7q-3 -7 -3 -11zM96 840l7 -3l3 14h-7q0 -4 -3 -11z M813 644h7q0 7 14 22v3q-13 -18 -21 -18v-7z" />
<glyph unicode="N" horiz-adv-x="669" d="M-49 339v19h8v-19h-8zM-41 416q9 62 19 62h4q-4 -11 -8 -11l4 -8q0 -4 -4 -4q4 -5 4 -19h-8l4 -28h-4zM-22 498v4q1 7 8 7v-11h-8zM-14 412v4q4 24 12 24q0 -4 3 -4l-3 -24h-12zM-14 521v16q15 44 15 50h8v-19q14 0 20 77q-11 0 -16 -38q-8 0 -8 -12q-7 0 -7 8v7 q0 24 31 113q0 35 11 35v4l-7 11q5 0 19 24l-4 8q0 7 12 7q0 8 -8 8q18 49 109 202q59 66 112 82q1 7 8 7h4q88 -10 124 -31q136 -98 136 -140v-3l-8 3q16 -67 24 -163q-8 -89 -8 -120q106 122 186 190v4h8v-4q0 -8 -8 -8l4 -7q0 -13 -19 -39v-4l11 8v-4l-19 -23q8 -2 8 -8 q-8 0 -24 -43l4 -8q0 -4 -31 -38v-4h4q0 15 23 19v-4l-101 -120v-4h4q20 15 24 15l4 -7q-81 -94 -86 -94v-7q6 0 82 85h4q-130 -169 -167 -171h-4q-15 12 -28 12q-12 -8 -23 -8q-64 31 -77 31q-6 0 -12 12v4l4 19q-8 0 -24 16q48 111 66 353q0 22 4 43q0 4 -4 4l4 19 q-11 68 -11 82q4 0 4 4h-4q-32 0 -113 -98q-24 -49 -31 -85l-8 -4l4 -8q-11 -36 -27 -58q4 -7 4 -15q-12 0 -12 -8l4 -20l-8 -3q0 3 -4 3q-93 -317 -93 -380v-4h-8v16h-3q0 -16 -8 -16h-8l4 19q-8 0 -8 8v4q0 4 4 4q-4 6 -4 23q-8 0 -8 -15h-7v4q0 28 11 50q-4 8 -4 12h4 l-4 7l8 12v4l-4 8q8 0 16 46h-4q-8 -4 -12 -4q27 29 27 47v4l-7 12q7 33 7 42h-7q-4 -31 -12 -31l-4 8v8l8 11q-4 8 -4 12q8 0 16 51h3q-3 6 -3 19h-4q0 -8 -16 -50q4 -8 4 -12q-8 -1 -8 -8q4 -7 4 -15q-9 0 -15 -39q-4 0 -4 -4v-20h-12l4 47q0 8 -8 8q-15 -23 -15 -43h-8z M-6 447v4q7 9 7 23h8l-4 -27h-11zM9 424l8 4v-12q-8 0 -8 8zM17 478l8 4h4v-4q-4 -7 -4 -11q4 0 4 -4l-8 -4zM36 529q4 7 4 15q8 -1 8 -7q0 -8 -8 -8h-4zM44 401q1 -8 8 -8h4v4q0 8 -8 8h-4v-4z" />
<glyph unicode="O" horiz-adv-x="756" d="M-7 642q0 7 4 55l-4 27l28 77q9 44 40 109l12 -9q23 25 23 36h-7l-8 -4l-4 9q53 99 91 99v-4q-16 -20 -16 -23v-4q5 0 64 68h4v4h-4q-12 0 -12 -13q-8 0 -8 9q7 0 36 45q28 14 56 41l23 4v-9q14 0 32 14h4q6 0 16 -18l-44 -46l32 23q0 -9 12 -9v-4q0 -14 -16 -14 q0 -9 12 -9v-5l-40 -41h4q45 41 64 41v-4q-6 -14 -56 -46v-4h4q7 4 16 4v-9l-8 -13v-5h8q44 18 48 18q0 9 32 28q10 -10 16 -10q2 0 16 5q63 -48 107 -68q80 -92 80 -218q-4 -8 -4 -18l4 -9l-4 -9q0 -5 4 -5l-4 -22v-14l63 73q4 0 4 -5q8 0 28 36l56 59q17 32 24 32l4 -9 v-14l-44 -77h4q5 0 32 28l4 -10l-12 -18h4l12 9q0 -4 4 -4q0 -20 -32 -41l4 -9v-5q-28 -31 -48 -77v-4h4q8 4 12 4v-4q-139 -181 -183 -191q-100 -68 -163 -68q-22 0 -76 5q-41 -14 -111 -14q-37 5 -155 82q-84 49 -84 149zM184 583q4 -36 12 -36h8q104 20 163 68 q100 112 100 222q0 93 -64 177h-4q-30 -21 -56 -50v-4l8 4h4v-4q-115 -128 -147 -250q-20 -67 -24 -127zM188 973l72 87q-15 -5 -68 -73h-4v-14zM232 1010h12v9h-4q-8 -2 -8 -9zM252 1159l8 5l4 -9v-5h-4q-8 0 -8 9zM284 1078q19 12 19 18h-7q-6 0 -12 -14v-4zM327 1091 q7 5 16 5l-4 9q-7 -5 -12 -5v-9zM367 973v9q7 0 20 14h4v-9q-7 0 -20 -14h-4zM717 619h4q24 20 24 28q-28 -16 -28 -23v-5z" />
<glyph unicode="P" horiz-adv-x="734" d="M-246 -154q34 78 49 93q-4 7 -4 15q8 1 34 56q-4 7 -4 11q6 0 18 49q68 148 161 453q60 189 60 411q4 0 4 11q-7 0 -19 34q4 0 4 4q-11 0 -11 7v4q0 5 11 11h19l18 -4q104 97 258 97h12q209 0 299 -314q7 -30 7 -37q-35 -70 -45 -71h-7v-8l4 -7l-8 -4q0 4 -4 4v-4l4 -7 q-21 0 -26 -34q-26 -16 -26 -26l-15 -15l4 -8q-77 -63 -90 -63v-4h7q144 75 202 135q62 59 105 93q2 0 15 4q0 -6 -8 -22l4 -8l-11 -19q4 -7 4 -11q-10 -1 -75 -86q-35 -26 -41 -26l3 -8q4 0 68 45h3v-11q-12 -34 -52 -56q-35 -24 -202 -116q-18 -26 -75 -52q0 -19 -33 -19 q-16 -22 -34 -22v3q-19 -15 -30 -15q-100 45 -116 71l-11 8q0 -6 -30 -23q-59 -193 -131 -359q-39 -113 -52 -115l4 -8q-11 -30 -27 -41h-3v4l18 37v23q-8 -2 -18 -34h-4v7h-4v-15q0 -18 -22 -37h-8q0 13 12 26l-4 8l-8 -4l-7 4q-4 0 -26 -19q-4 0 -4 4l-8 -4h-3q-8 0 -8 11 q4 15 15 15q-7 9 -7 23h-4q-26 -41 -41 -49h-4l-11 7l-8 -3h-11q0 -6 -11 -12h-4q-5 0 -11 12zM-209 -139v-4q8 0 8 7v4q-8 -1 -8 -7zM-190 -94l8 -4q11 18 11 30h-8q0 -15 -11 -26zM-186 -46v-7q11 0 11 -12q11 0 15 30q-11 -11 -26 -11zM-175 -23v-4h4q0 4 4 11v4h-4 q0 -4 -4 -11zM-145 -102h4q6 0 15 15h-4q0 3 15 34h-8q0 -9 -22 -49zM-134 -117v-7h8q0 9 7 18l-7 4q0 -6 -8 -15zM-123 -87v-7q8 3 12 3v8q-8 -4 -12 -4zM-119 -31v-4q4 -7 4 -11h4l3 15h-11zM-115 -80h7q0 6 15 30q0 8 -7 8q-15 -24 -15 -38zM-108 -16v-4h4q0 6 8 15h-8 q0 -4 -4 -11zM-93 14q6 0 12 11v4h-4q0 -8 -8 -8v-7zM-85 -94v-8h7q7 0 15 41q3 0 15 23v3h-4q-17 0 -33 -59zM-44 -5v-7h4q0 8 3 15h-3zM-40 100h3q7 0 15 37v4h-3q0 -12 -15 -34v-7zM1 107h4l3 8v4h-3q0 -4 -4 -12zM12 134q8 0 8 7v4h-8v-11zM20 152q7 0 7 12v3h-4zM23 74 q4 -7 4 -11h7q0 8 4 15v3h-4v-7h-3l-8 4v-4zM184 466q110 64 266 225q89 114 89 168v15q-12 67 -89 67q-151 0 -229 -82q8 -107 8 -157q0 -83 -45 -236zM292 437h12q0 7 11 7v4h-4q-12 -8 -19 -8v-3zM337 448q22 7 42 22q7 -1 7 -7q75 30 75 48q5 0 11 12v3q-29 -21 -45 -26 q-19 -21 -41 -30h-4q11 19 23 19v7h-4q-40 -34 -64 -41v-7zM536 582q11 3 15 15v4h-4q0 -7 -11 -7v-12zM584 646q12 11 19 11q0 8 -8 8h-3q0 -6 -8 -15v-4zM599 668h4q19 12 19 27q-6 0 -23 -23v-4z" />
<glyph unicode="Q" horiz-adv-x="771" d="M-15 589v56q0 9 4 16q0 4 -4 4q0 7 7 32l-3 8q62 200 107 228q71 103 201 144q30 8 100 20q66 0 85 -8q4 0 4 4q107 -17 107 -40q8 -1 8 -8v-8l-4 -8l8 -4h3q23 16 60 16q18 -5 18 -12q-7 -1 -7 -8v-4q18 0 30 -28v-12q18 -5 18 -12q-41 -26 -41 -56q-3 0 -3 -4h7 q7 4 11 4l4 -8q0 -8 -19 -8v-4h8q0 -21 -67 -108l-4 8q13 6 22 44q-17 -13 -48 -80v-4l19 12v-4l-34 -60l-7 4q-28 -26 -145 -328h-7v16h-8q0 -7 -14 -44h7l11 8h4v-4q-26 -15 -26 -20q-22 -45 -22 -64v-8q31 20 48 52v4q-11 0 -11 8q33 64 41 64q9 0 29 28l-4 20 q43 81 86 144q59 96 219 260q0 23 100 120h4l11 -8l7 4q7 -4 15 -4v-8q-14 -28 -19 -28l4 -20l-55 -68q0 -8 -45 -40q0 -6 -11 -20q0 -9 -41 -68l-48 -64q0 4 -4 4q-48 -71 -48 -84q-19 -11 -19 -40h-3l-8 4l-11 -20v-4h4v8h7v-4q-41 -29 -93 -144q-25 -48 -29 -48h-4v12h-7 q-37 -65 -37 -72h7q29 56 33 56h4v-8q-70 -111 -74 -156q-9 -8 -15 -8l4 -8q0 -11 -37 -68l-38 -80l4 -8v-4q-16 -14 -52 -128q-22 -52 -26 -52h-3q0 8 -4 8q-45 -16 -52 -16q-7 4 -11 4v-20q0 -8 -8 -8l-3 8v20h-4l-7 -4l3 -8q0 -6 -11 -12q-4 8 -4 12q-7 0 -7 -12h-4 q-11 0 -11 44q41 179 67 264l7 4l-3 8v16l89 288q115 338 248 564l8 12v8q-44 8 -56 8h-41v-4h45v-8h-8q-61 0 -70 -20v-4q7 4 37 8v-8q-66 -6 -182 -92q-103 -114 -126 -196q-3 0 -15 -32l4 -8q-11 -19 -11 -72v-24q0 -12 15 -12q62 0 137 36v-12q-22 -20 -37 -20v-4h7v-8 q0 -8 -7 -8q-4 0 -4 4q-16 -4 -22 -20l18 4h8v-4q-11 -15 -11 -20h-4l-8 4q0 -6 -14 -16l-19 4l-4 -8l8 -4h18v-8q-14 0 -37 -8h-15v-8h-11q-80 43 -133 116q-30 53 -30 72zM119 597h7q0 4 4 12h-11v-12zM174 -135v-4q9 0 11 20v8h-3q0 -15 -8 -24zM178 -79l7 -4v12 q-7 -1 -7 -8zM189 -63v-12h4q7 0 7 8v4h-11zM204 -19v-4q5 0 11 12h-4q-7 -1 -7 -8zM219 45h7q0 8 8 8v12h-4q0 -12 -11 -12v-8zM245 -23h7q0 12 8 12l-4 8v4q22 0 22 16h4v12l-8 -4h-7v8h-7l3 -8q0 -6 -11 -12l4 -8q-11 -18 -11 -28zM267 37h4q8 8 22 8q0 8 -11 8v4 q17 0 22 16v8l-11 -8l-7 4q5 28 18 52h-15zM267 465v8h11v-8h-11zM293 141l7 -4h4q0 16 8 16l-4 8l4 8h-4q-6 0 -15 -28zM293 525v8h4q7 -1 7 -8h-11zM304 113q20 19 26 56h7v-16q11 0 23 48h-8q0 -24 -18 -24q0 4 -4 4l-26 -64v-4zM304 181h4q5 0 11 12v8h-7q0 -10 -8 -20z M326 237q6 0 11 12h-3q-8 -1 -8 -8v-4zM334 261h7q0 12 8 12q-4 8 -4 12h-8zM349 249l14 16q0 -4 4 -4v8q-7 0 -7 8q-8 0 -11 -28zM349 297l7 -4q0 20 7 48h-7v-12q-7 -28 -7 -32zM360 213q3 -8 3 -12h4v12l-7 4v-4zM363 297q6 0 15 16l-7 4l-8 -12v-8zM363 353l8 -4v12 q-8 -1 -8 -8zM382 341h4l7 24q-8 0 -11 -20v-4zM382 405q8 0 11 20q-8 0 -11 -20zM393 105h4q7 0 7 8h-3q-8 -1 -8 -8zM401 313v8q1 8 7 8h4q-6 -16 -11 -16zM415 181h4q7 0 26 36v8h-7q0 -17 -23 -44zM419 397h11v8q-4 0 -11 4v-12zM427 417h11l-4 20q4 0 4 4h-8 q-3 -21 -3 -24zM453 369q7 0 7 8v4q-7 -1 -7 -8v-4zM490 497v4q4 20 11 20h3v-4q-7 -18 -14 -20zM490 569h7l4 20q-6 0 -11 -12v-8zM523 573v12q7 -1 7 -8v-4h-7zM597 461v4q4 8 4 12h7v-4q0 -6 -11 -12z" />
<glyph unicode="R" horiz-adv-x="364" d="M-28 572l4 10q0 5 -4 13q0 281 290 466q92 37 136 37q59 0 97 -18q1 9 8 9h4q6 0 12 -14q-4 0 -4 -5h4l24 5q1 -14 40 -37l4 -9q-4 0 -4 -5l-48 9l-8 -4q-8 4 -12 4l-4 -9l-20 5h-20l4 -9q0 -10 -32 -14v-9l8 4l4 -9q-20 -6 -20 -14l-9 5l-20 -19h-4v10q-21 0 -88 -47v-4 h8q1 9 8 9h8q-34 -46 -48 -46l4 -9l-44 -60h4l40 37h4v-10l-57 -69v-4l21 18h4v-5q-85 -104 -85 -253q0 -46 20 -138h-12l-8 4q0 -9 -8 -9q-4 9 -4 14q-6 0 -12 -14l-20 5h-4q-9 0 -16 -5q-28 5 -52 32q-9 -1 -9 -9q-64 0 -72 111h4q-11 19 -16 50zM233 789q7 0 17 19v4 q-7 0 -17 -18v-5zM274 798v5q0 6 24 28h4q0 -7 -28 -33zM302 909q8 0 8 9v5q-8 -2 -8 -9v-5z" />
<glyph unicode="S" horiz-adv-x="553" d="M-126 476q0 7 52 16q4 0 12 -4l8 4q8 -4 12 -4l8 4q4 0 4 -4q167 20 240 52q80 24 80 80q-33 16 -48 16v-8h-8l-12 8l-4 -8q10 0 20 -8h4v8l24 -20v-4q-109 20 -196 64q-36 37 -40 76q-7 0 -12 36q-32 32 -32 72l4 8l-4 8q20 76 32 76v-20q4 0 12 16q8 -4 12 -4v8h-8v4 q5 22 56 60q4 0 12 16v4h-4q-64 -52 -64 -68h-8v8q110 128 192 128h72q90 0 164 -84v-8h-4q-8 4 -12 4q12 -20 24 -20v-4l-8 -12l4 -8q-8 -1 -8 -8l8 -12q-6 0 -12 -12l8 -16l-12 -8q-36 16 -88 28h-4v-4q20 0 20 -16h8q31 0 36 -16v-4q-46 12 -64 12q-123 0 -212 -100 q240 -74 240 -160l8 -4q118 99 172 196q5 0 28 28q20 0 20 16h12l4 -16q-23 -88 -44 -88v-12h8q2 16 12 16l4 -8q-17 -28 -32 -40q10 -8 20 -8q-42 -41 -44 -56h4l8 4l4 -8q-32 -36 -36 -36l4 -8q-156 -164 -244 -164v-4l4 -8q-77 -32 -92 -32l-8 4q-8 -7 -72 -12q-4 0 -4 4 l-92 -16h-28q-10 -8 -16 -8q-44 14 -44 24zM602 792q6 16 12 16h4v-4q-6 -16 -12 -16q0 4 -4 4zM614 896q5 20 12 20v-4l-4 -20l8 4v-12h-4q-6 0 -12 12z" />
<glyph unicode="T" horiz-adv-x="254" d="M-62 1459v14q0 5 12 9q5 -3 8 -3l6 3q16 -9 50 -15l-15 12l-6 -3q-13 9 -26 9v3q1 6 6 6q11 -9 38 -12l6 3q0 -5 142 -15h9q7 0 12 -3l5 3q6 -3 12 -3q39 88 44 88q0 3 3 3h3v-6h3q0 4 8 14q1 11 12 18q6 -3 9 -3q0 4 11 12v-6q0 -14 -14 -35q0 -16 -24 -56h3 q0 -5 -14 -23v-6h3q6 0 11 3q5 -3 12 -3h3l12 12v-9h5q0 9 6 9v-12h61q118 0 292 9q3 0 8 3q3 0 3 -3l21 3h40l15 3v-3l12 6q2 0 2 -3q35 6 97 6h29l14 3v-3q220 17 393 35h18l9 5l14 -2q19 5 26 5h15q6 -1 6 -5q-3 0 -3 -3h3q14 0 14 11h9q28 6 151 21q6 -3 9 -3q1 6 6 6h3 l17 -3q12 6 32 6h3q0 -11 12 -18q-3 0 -3 -3q-15 9 -29 9h-3q-6 -1 -6 -6q10 0 15 -3l6 3q8 0 8 -12q6 0 35 6l6 -3q12 5 55 12q3 0 9 -3l38 6l6 -3l17 9l6 -9l-12 -12q-5 3 -8 3q0 -6 -6 -6q-3 0 -3 3q-25 -6 -29 -6v9h-9l3 -6v-3l-15 -2l-5 2q-10 -5 -15 -5q0 5 -6 5h-6 q0 -11 -17 -11q-3 0 -9 3q-5 -3 -9 -3q0 3 -2 3l-3 -6l-15 9q0 -2 -3 -12q-17 0 -55 -6v6h-6l-9 -6l-8 6q0 -9 -9 -9q-6 3 -9 3q0 -5 -41 -11l-20 2q0 -6 -61 -11v3q-15 -6 -47 -9q0 3 -3 3q0 -6 -6 -6h-26l-17 -3l-6 3q-34 -9 -76 -14l-6 2q-23 -5 -52 -8q-6 3 -9 3 q-5 -3 -8 -3l-6 3q-32 -6 -32 -12h3q24 0 46 6q3 0 3 -3q36 4 41 6l6 -3q20 3 26 6q6 -3 9 -3q1 6 5 6h32q0 -6 -20 -9l-6 3q-14 -6 -43 -9q-3 0 -3 3q-26 -3 -38 -9l-6 3l-6 -3l-14 3l-3 -6q3 0 3 -3q-8 -6 -29 -8q0 2 -3 2v-8q25 3 32 8h5q3 0 3 -2l6 2q3 0 3 -2 q31 5 61 5q0 -3 3 -3q0 7 41 9q5 -3 12 -3q0 6 8 6q52 0 61 9l15 -3q21 6 82 12l2 -6q-2 -3 -23 -3l6 -9l-6 -3q-3 9 -6 9q-9 0 -58 -6v3l-58 -12l3 -5l-6 -3h-9q0 5 -9 8l-5 -3h-6q-24 0 -105 -11v-3h9v-6h-3q-7 0 -12 3q-5 -3 -11 -3q0 6 -6 6h-6q-30 0 -41 -9 q-14 0 -14 6q-12 -3 -21 -9h-3l3 6l-61 -6l3 -6v-2h-18l-11 8l-18 -3l3 -5l6 2h6v-5q-7 0 -12 -3l-14 3l-6 -3l-23 6q-14 -6 -30 -6l-5 3l-15 -6q-6 3 -9 3q-5 -3 -8 -3v-3h11v-3l-3 -6l29 -3h3v-6l-26 -2q0 2 -3 2q0 -4 -43 -11q-57 3 -62 9l-5 -3h-9q0 -5 -29 -9q0 3 -3 3 q0 -6 -6 -6q-6 3 -9 3q0 -6 -6 -6q-7 6 -11 6l-6 -3q-3 0 -3 3l-20 -3h-29q-3 0 -24 -6h-84q-7 0 -12 3q-5 -3 -9 -3q0 6 -5 6h-9l-12 -9h-3l-11 9h-6l3 -6v-3q-13 0 -18 -3q-5 3 -8 3q-7 0 -12 -3l-20 3l-41 -3v3q-6 -3 -9 -3t-9 3l-14 -3q-5 3 -12 3q-10 -11 -20 -43 q-10 -3 -12 -3l-3 5q6 0 6 6l-3 6q10 6 15 6q0 4 -9 9q-6 -3 -9 -3v3l-6 -3h-3v14h-5l-6 -3q0 3 -3 3l-3 -6v-2l6 -9q-16 0 -21 -26h-2l-6 3q0 -6 -6 -6q-3 5 -3 8h-3l-3 -11q6 0 6 -9h6q0 12 6 12l8 -15v-3l-5 3q-5 0 -12 -14l3 -6q-15 -25 -15 -35v-6q1 -6 6 -6 q-3 -5 -3 -11q-3 0 -3 2q-12 0 -20 -40l-12 -15l6 -9q-3 0 -3 -3l-6 3h-6v-3h9v-8l-9 6h-2v-12h2l6 3l3 -6q0 -14 -23 -26l-3 6l3 5h-6q0 -10 -17 -17v-6h5v6q6 0 6 -12h3q2 15 9 15v-3l6 3h3v-15q0 -5 -6 -5l3 -6q0 -5 -9 -27q0 -2 3 -2q-6 -29 -6 -32v-3h3q0 5 12 14l-3 6 l20 15h3v-6h6v6h6l5 -3v14h-8v9l6 -3v6l-6 9q1 5 6 5q5 -9 5 -14l6 3h3q-17 -108 -23 -108q0 -3 3 -3q-29 -107 -50 -317q0 -3 3 -3l-3 -29v-64l-3 -6h6q55 80 108 145h9v-11q-9 0 -12 -15h3l41 56h3v-12h5l-11 -20v-3q3 0 14 14h3q6 -1 6 -6q-17 -19 -17 -35l-6 3l-3 -6 q3 -5 3 -11q1 0 17 17l6 -3q-6 -14 -9 -14l3 -6v-6l-9 -14v-9h-2l2 -6q0 -4 -17 -14l3 -6v-3h-3l-6 3q-116 -175 -163 -175h-6q-9 0 -52 26q-15 0 -26 3v-3q-24 10 -24 15v140l3 17l-3 6l3 6q-3 5 -3 8q6 0 6 6v15l-6 -3h-3v3q9 9 9 14l-3 6q3 5 3 12q-3 5 -3 9q8 0 9 11 l-6 44q6 3 9 3v6l-3 14q6 0 6 6l-6 9v3q6 0 6 17h-3v9h9v9l-3 14l9 6l-3 6q5 20 5 35q-5 0 -5 6l5 2q0 -2 3 -2q3 26 9 34h-3l-6 -2v2q1 6 6 6l-3 15q0 6 9 6v3l-6 8v12h6v-12h3q0 9 6 24l-3 5q9 17 9 30h-6v8h3l5 -3v24l-5 3q0 15 49 177h6l-3 -14v-3h6q0 13 14 35v5 l-17 -14h-3v6l18 26q-6 0 -6 6q3 3 14 26h9v6q-9 0 -9 6q8 17 12 17l-3 6q1 6 6 6h3v-6h6v6h-6q1 6 6 6q0 -6 5 -6q6 9 6 17q-192 24 -192 50q-16 25 -20 46q-9 0 -9 6l6 9q-4 0 -9 9zM-42 1502l6 3l3 -6l-6 -3zM-10 681v6h9v-6h-9zM57 1036q6 0 6 6v3q-6 -1 -6 -6v-3z M63 885h3v12h-3v-12zM69 1077h3q0 10 3 15h-6v-15zM84 710h2q0 2 3 18q-5 -1 -5 -6v-12zM84 739q0 -5 5 -5l3 5l-6 3h-2v-3zM89 1013h3q1 20 15 20l3 6h-3q-6 -3 -9 -3v3q2 15 9 15q-3 6 -3 9q6 9 6 14h-9q0 -11 -12 -58v-6zM89 1153h3l6 17l-6 3l-3 -17v-3zM92 777h3 q6 0 6 6v3h-3q-6 -1 -6 -6v-3zM98 1176h6v3q0 6 -6 6v-9zM104 1080h6q6 19 6 23h-6q0 -7 -6 -14v-9zM110 891l11 9q-2 5 -2 8h-3q-6 -1 -6 -6v-11zM113 1106q2 0 8 9q6 -3 9 -3v6h-6v9l15 14h3v-3q-6 -20 -6 -23v-6h6q0 7 11 41h-2q-6 -3 -9 -3q-6 3 -9 3q9 7 20 35h-8v12 q1 5 6 5v-5l-3 -6h8v3q-5 9 -5 17q1 18 8 18l3 -6l-9 -18h12v-6q4 1 18 35h-3l-12 -11l-3 6q9 14 9 23v6l-6 8v3q10 14 15 44q6 1 14 26h-6q-8 0 -26 -70q0 -2 -9 -8q3 -6 3 -9q-4 0 -11 -21q3 0 3 -2q-3 0 -9 -9q3 -6 3 -9q-24 -58 -32 -105zM116 798h8v3q-3 0 -8 2v-5z M116 1033h5q0 3 3 18h-8v-18zM121 958l6 -3q1 6 6 6l6 -3v14h-3q0 -5 -3 -5h-9q0 -4 -3 -9zM121 1054h9q6 0 6 6v3q-5 0 -12 5zM124 1252h6v9h-6v-9zM127 949q0 -4 9 -9h3v3q-4 0 -12 9v-3zM136 1068h6v12h-6v-12zM139 911h3q6 0 6 6q-3 0 -9 3v-9zM148 524q2 0 40 52v3 q-3 0 -40 -52v-3zM148 1336l5 3h3v-3q0 -6 -5 -6zM151 1153q5 0 5 6v8q-5 0 -5 -5v-9zM156 1001h3q6 0 6 6h-9v-6zM156 1243l12 9l3 -6l-12 -9zM174 1077v3h3q6 -1 6 -6v-3h-3q-6 0 -6 6zM177 1264q6 0 6 5v6q-6 -1 -6 -6v-5zM185 1095v3q1 5 6 5h3v-8h-9zM185 1290 q4 0 18 32v11q-3 0 -18 -35v-8zM188 1071q6 3 9 3l-6 9q9 0 9 9h6v-3q0 -6 -6 -6l3 -6v-6q0 -5 -6 -5h-3q-6 0 -6 5zM188 1170v3q8 0 21 21q17 3 17 8v3l-8 -6h-3v9q1 6 5 6l12 -9h3l-3 6v6h6v-9l6 3v-3q-8 -32 -12 -32l3 -6q-16 -43 -23 -43l3 -6l-3 -15q-21 3 -21 9v3h6 v-6q6 0 6 6v3l-12 9v5h15q0 6 17 21q-8 0 -8 9l-15 -3q0 7 -12 8zM191 1243q6 0 6 9v3h-3zM194 518q5 0 9 12v3h-3q0 -5 -6 -12v-3zM206 1234v9h6v-9h-6zM209 1467q8 0 17 21v3q-3 0 -8 3q-9 -24 -9 -27zM215 547h5v9q-5 -1 -5 -6v-3zM218 1182h5v9q-5 -1 -5 -6v-3zM223 553 h3l12 26h-6q0 -10 -9 -17h3l-3 -6v-3zM226 1508h3q0 3 3 9v6h-3q0 -7 -3 -12v-3zM229 1298v3q1 6 6 6h3l-3 -6v-5q6 0 9 23h6q4 0 11 -15q0 -4 -17 -11h-9q-6 0 -6 5zM232 1240q6 -3 9 -3q1 6 14 12q0 -3 3 -3l-11 -29q-15 0 -15 23zM235 1252v3q1 6 6 6h3q0 -5 -9 -9z M247 538q0 5 8 9v-3q0 -6 -5 -6h-3zM247 687l5 9q6 -3 9 -3v-3q0 -4 -9 -9q-5 0 -5 6zM247 1569v3q1 6 5 6h3v-9h-8zM250 1261v5l5 -2h3v2q-8 0 -8 21q6 0 11 3l3 -6q-6 -1 -6 -6v-3h6v-11q0 -5 -9 -9q-5 0 -5 6zM255 547v3q1 6 6 6v-3q0 -6 -6 -6zM255 655h6q6 3 9 3 q0 -3 3 -3l3 6h-6l-15 -3v-3zM258 1485v3q14 31 18 32h3v-9q-9 0 -9 -15h6q5 24 11 24q6 -3 9 -3v-6h-9v-6q9 0 9 -6q6 0 6 9h6v-3q0 -4 -12 -11q0 2 -3 2q-4 -11 -9 -11h-2v6l-9 -6h-3v9q-6 0 -6 -9h-6zM261 1328q6 0 6 8h3v-8q4 0 9 8v3h-3l-6 -3v6h-3q0 -6 -6 -6v-8z M261 1598v3q1 6 6 6h3v-9h-9zM273 1590v3q1 5 6 5l3 -5l-6 -3h-3zM276 1636v3h6v-9q-6 0 -6 6zM290 1552v3q1 6 6 6v-9h-6zM290 1604v3q11 26 15 26l6 12v3h-3q0 -12 -9 -12v9q0 4 9 9l6 -3l3 6v5h-6v6l6 9q0 6 -9 6v6h3l6 -3q15 26 32 26l2 -6q-18 -43 -26 -44v-14 q-17 -15 -17 -18q3 -5 3 -11q-10 0 -12 -12q-6 -3 -9 -3zM293 1479v12h6v-6q0 -6 -6 -6zM299 684v12h6q0 -7 3 -12h-9zM299 1677q1 6 6 6h3q0 -6 -6 -6h-3zM314 1528v3q10 27 14 27h3v-6q-11 -24 -14 -24h-3zM331 1636v6q8 18 12 18v-3l-6 -21h-6zM343 1590v3q4 11 8 11 q0 -3 3 -3q-4 -11 -8 -11h-3zM346 1668v3q1 6 5 6v-9h-5zM351 1677v6q1 6 6 6h3v-3q0 -4 -9 -9zM640 1365h3q5 0 5 6v3h-2q-6 -1 -6 -6v-3zM651 1371l21 -3q6 0 11 3q5 -3 12 -3h3v3l-15 3h-20q-3 0 -3 3q-6 -3 -9 -3v-3zM698 1380q1 -6 6 -6v3q0 6 -6 6v-3zM727 1371 q5 3 12 3v6h-3q-6 -3 -9 -3v-6zM750 1368h3q4 0 24 9v3l-12 3l-15 -12v-3zM820 1386q1 -6 6 -6h12q0 6 -6 6h-12zM861 1409q5 0 12 -6l3 6l-6 3h-9v-3zM902 1374q0 4 9 9q2 0 2 -3l6 3h3v-6zM913 1412q9 0 9 -3q5 3 18 3v3q-12 0 -24 3zM943 1374v12l5 -3q5 3 12 3v-3 q-3 -6 -3 -9h-14zM943 1412h20v3h-20v-3zM966 1383v6q6 0 11 -3q6 3 9 3v-3q0 -6 -6 -6zM969 1415h23q-12 10 -12 14h-5q0 -8 -6 -8v-6zM995 1421q1 -6 6 -6h11q0 9 3 9q-3 5 -3 8h-8q0 -8 -9 -8v-3zM1004 1438h3l14 3q0 -3 3 -3v6h-20v-6zM1018 1427q3 -6 3 -9h3l15 3v-3 q3 0 3 3l14 -3q40 6 44 6v11l-3 6q-5 -3 -18 -3v-3l3 -6l-8 -5h-3q-19 0 -38 8q-10 -5 -15 -5zM1036 1441h14v6q-5 -3 -14 -3v-3zM1056 1479q3 0 9 -3v6h-9v-3zM1100 1473h6q5 0 5 6h-11v-6zM1106 1435q11 0 11 -3q5 3 15 3v6h-3q-3 0 -23 -3v-3zM1161 1479h12v3h-12v-3z M1178 1482h3l27 3v3q-15 0 -15 6v2h-3q-4 0 -12 -14zM1205 1438v6h8v-6h-8zM1210 1485h6l18 3v-3q3 3 20 3v3q-6 0 -12 3l-5 -3l-15 3q0 -6 -12 -6v-3zM1269 1494h8q0 8 9 8v3h-9q-4 0 -8 -11zM1280 1462l6 2h15v-5q-13 0 -18 -3zM1301 1496h23q0 12 20 12v3h-3 q-18 0 -40 -9v-6zM1307 1464v3l14 -3q0 -5 -6 -5h-3q-5 0 -5 5zM1321 1464q1 6 6 6h9q3 0 3 -3q17 6 23 6v-6l-21 -3h-20zM1356 1511h6v-3l-3 -6h6q6 0 11 3q3 0 3 -3q11 3 27 3q0 6 -18 6v6h3l6 -3v6h-12l-6 -3l3 -6v-3q-22 6 -23 6h-3v-3zM1368 1467v6q12 0 23 6 q0 -6 9 -6q0 -6 -6 -6l-9 6q0 -6 -6 -6h-11zM1406 1473v6h11v-6h-11zM1406 1523h8v-6l-6 -9h41l9 6h12q2 0 2 -3q16 6 70 12v-3q11 5 29 8q6 -2 12 -2h3q6 5 23 5q0 6 -5 6h-9l-6 -3q0 6 -6 6l-9 -6h-3l3 6v3l-17 -3q-6 3 -9 3l-6 -9l3 -6l-6 -2q-2 5 -2 8h-6l-9 -6l-20 3 l3 -5v-3q-7 0 -12 3q-23 -9 -29 -9q-3 0 -3 3l-6 -3h-3v6q-6 0 -6 -9h-23q0 12 -15 12h-2v-3zM1446 1476v6h9v-6h-9zM1461 1523h9v5h-9v-5zM1464 1456v6h11v-6h-11zM1481 1482v6h15v-6h-15zM1484 1456v8h3q6 0 6 -5l-6 -3h-3zM1502 1459v3q0 5 8 5q6 -3 9 -3v-2zM1510 1540 l18 -3l3 6h-21v-3zM1528 1464v6h3q3 0 3 -3l5 3h3v-6h-14zM1595 1473v6h20v-6h-20zM1618 1561l6 2h9v-5h23l-3 5l6 3h3q0 -8 8 -8q21 4 21 11q11 -3 20 -3v-5h-20q0 -9 -6 -9q-6 3 -9 3q0 -6 -6 -6q-5 3 -8 3l-6 -3q-5 3 -12 3q0 -7 -11 -12h-3v6q8 0 8 6q-20 0 -20 9z M1732 1558l14 3v2h-14v6q2 0 17 3l3 -6q-4 -14 -9 -14h-6q-5 0 -5 6zM1772 1563h18q0 -5 -6 -5h-6q-6 0 -6 5zM1790 1563q1 6 6 6h3v-6h-9zM1842 1552v6h9v-6h-9z" />
<glyph unicode="U" horiz-adv-x="647" d="M-18 683v4q7 9 20 93l8 4l5 -8q-5 0 -5 -4q13 0 13 -44h4q0 7 12 24h8v-8h8v12q0 4 8 33v12q9 0 21 32l-4 8q12 21 12 29h8q0 -4 4 -12q0 -29 -12 -29q4 -16 4 -28q5 0 28 69l-4 20q6 6 25 61q5 0 16 33q6 8 12 8q0 7 -8 24q13 0 24 37l13 -8h4v8h-12q28 15 28 24 q0 11 41 45h4v-4l-8 -12v-4h8v-8h-16q0 -3 4 -25q-53 -108 -86 -268q8 -2 8 -8q-8 -17 -8 -25q8 -1 8 -8l-12 -16l4 -8q-6 0 -12 -13q8 -1 8 -8q-8 -15 -8 -32v-57q12 -15 12 -29v-4l-8 -12q10 0 20 -53h4q28 33 37 37q24 36 41 36h4q0 -4 4 -4q55 65 65 131q30 46 57 195 q8 0 16 73l16 41l17 36q-4 0 -4 4l8 4q0 -4 4 -4q0 13 8 13h4q16 -17 29 -17q7 4 16 4l16 -16v-36h8q0 20 29 20h4v-16q0 -10 4 -17q-4 -8 -4 -12q0 -8 4 -8l-4 -29v-24l4 -24q-25 -151 -49 -220q4 -7 4 -16l-8 -4l4 -8q-12 -27 -20 -86q36 56 101 199q20 25 37 33 q22 52 45 73q0 -4 4 -4q-8 -13 -8 -20l16 12l4 -8q0 -8 -8 -8l4 -8l-12 -17q4 0 12 -4q-8 -13 -8 -20h-8v12h-8l-5 -24q13 0 13 -8q-14 -13 -29 -53q8 -14 8 -25q-4 0 -4 -4h8q0 -29 -48 -134q-77 -125 -102 -138q-37 -17 -57 -17v4q-8 -4 -12 -4q-72 21 -86 21h-4 q-58 -41 -126 -41q-59 0 -130 49q-98 19 -98 97q0 6 -12 25q3 0 12 12q-8 16 -8 29h4q-8 16 -8 24l4 41q-8 0 -8 8zM19 687h4q8 0 8 8t-8 8q0 -9 -4 -16zM35 780v4q15 25 20 25v-8q0 -8 -8 -8l4 -9v-4h-16zM43 699h4l4 20q-8 -1 -8 -8v-12zM43 817v8h8v-16q-8 0 -8 8z M84 634q1 -8 8 -8v12h-8v-4zM88 748q4 -8 4 -12h4v16zM88 768l8 -4h4v12l4 21h-8q0 -13 -8 -29zM92 898v4q0 7 16 17h4l4 -29l-16 -12h-4z" />
<glyph unicode="V" horiz-adv-x="509" d="M-38 957h11l26 -22v-8h-11q1 -7 7 -7q7 3 11 3q1 -7 8 -7h3q0 12 4 19q-18 9 -18 14l3 8q-17 29 -22 29v19q1 7 8 7q-3 34 -23 85q3 22 11 22h8q82 -137 144 -280q4 0 7 -12l-7 -3h-4v11h-4v-4q43 -121 52 -173q-7 -2 -7 -8v-4h7q59 146 141 388q9 34 25 52q6 0 41 -11 q19 7 30 7q22 -23 22 -33h3l8 4q0 -4 15 -15l7 4h4q11 -10 44 -15q33 -159 44 -192h-7q0 11 -8 11q0 -12 -7 -19l37 -92q-4 -7 -4 -11l-18 4l4 -8v-3q0 -8 -8 -8h-7l-22 4q-23 -7 -34 -15q-47 46 -66 107h-11q-28 -43 -63 -122l4 -7v-7q0 -8 -8 -8l4 -18q0 -13 -52 -93 q0 -8 -3 -14l-8 3h-3q0 -4 -4 -11v-7h4v11h7v-7q-9 -23 -11 -23h-11v-7h-4l-7 4l-4 -8l4 -7q-6 -15 -11 -15l3 -7v-4q0 -8 -3 -15q3 -6 3 -14v-4q-12 -26 -18 -26h-19q0 -11 -7 -11q-89 11 -89 22v4l-18 -4q-11 0 -81 321l3 19q-5 0 -11 11q8 0 8 7l-41 119q7 0 7 7 q-18 42 -18 63zM-1 983q1 -8 7 -8v15h-7v-7zM17 890h4q7 0 7 8v7q-5 0 -11 -11v-4zM25 942q3 -7 3 -11h4q0 8 4 15h-11v-4zM28 927q2 -7 8 -7h4v7h-12zM265 517q1 -7 7 -7l4 7h-11z" />
<glyph unicode="W" horiz-adv-x="931" d="M-33 790q6 29 12 29h17l8 -4v4q-4 8 -4 12h8q0 -12 9 -12h12l-8 12q8 0 8 9v4h-8l-8 -4l-5 8l9 4q0 -4 4 -4q0 12 12 12v9l-8 -5q-8 0 -8 9q9 0 12 16h4q0 4 -4 33l8 17q17 0 17 -21l16 13l-4 8v8q21 0 21 25v8q-4 0 -4 4q21 3 21 25q-9 0 -9 -12h-8q3 62 12 62h9l-4 -21 v-8h4q12 58 29 58l4 -8q0 -5 -4 -13q4 -22 4 -25q-10 -74 -13 -74l5 -8l-9 -17l4 -8l-4 -8q0 -5 4 -5l-4 -29v-37q0 -9 -4 -16l8 -21l-4 -8l4 -9l-8 -16h8l-4 -21q10 0 25 -37q-16 -4 -16 -25q8 -14 8 -25l-4 -20q9 0 12 -25q-4 -8 -4 -17q1 -8 8 -8l8 4l5 -8q-10 0 -13 -21 l8 4h9q8 -1 8 -8l-8 -4q0 4 -4 4v-4l33 -62h4q88 78 132 298q38 197 38 219q0 4 -5 4q0 46 29 46q0 -5 5 -5q0 6 12 13h12q17 -17 42 -21q0 -7 33 -25q0 -13 25 -16l8 -13v-20q21 0 21 -21q0 -22 -9 -199l4 -58l-4 -8q4 -7 9 -49h-5q13 -82 42 -108l8 -4q95 166 178 443 q9 45 25 45v4q-12 0 -12 9q13 11 28 53q-4 0 -4 4l9 5q0 -6 12 -13q0 14 12 37q17 -6 17 -12q0 -8 -8 -29q0 -12 16 -12v-9h-4l-8 4l-8 -12h12q-8 -70 -12 -70l4 -9q0 -13 -21 -41q4 -8 4 -12q-7 0 -25 -79q-5 0 -33 -87h9q13 50 24 50l4 -8l-4 -9q9 -1 9 -8v-4h-5l-8 4 l-8 -21q4 -5 4 -25q-8 0 -12 -29q8 -1 8 -8l-8 -4q0 4 -4 4l-5 -8v-8l9 4q0 -4 4 -4q-28 -79 -58 -125l4 -8l-17 -29l9 -4q57 42 178 190q34 34 49 34l-4 8q17 15 17 21h8v-13q0 -8 -17 -8l9 -13q-4 -15 -17 -24q4 -8 4 -13q-34 -31 -58 -99q-2 0 -16 -21h4l17 13l4 -9 q-50 -70 -67 -87q9 -1 9 -8v-12q0 -6 -25 -25l4 -8q-36 -27 -50 -46h-111l-195 66q0 5 -37 29q-73 -120 -120 -128q-11 8 -99 21q-7 9 -83 25q-89 57 -145 177l-12 25v9l8 12l-8 12l4 9h-4q0 -9 -9 -9l-4 9v4l13 25q-17 93 -17 99zM-12 794h12v17q-8 -4 -12 -4v-13zM-8 769 h8v13q-8 -2 -8 -9v-4zM0 881l8 4l9 -12h-9q-8 0 -8 8zM4 782q9 -10 9 -17l20 8q-4 8 -4 13l4 21h-16v-9l4 -8q-10 -8 -17 -8zM13 757q8 -14 8 -21h12v4q-8 11 -8 21h-12v-4zM29 703h4q8 0 8 8h-12v-8zM37 823h13q0 12 12 12v9q0 8 -8 8zM46 807q1 -9 8 -9v4q0 9 -8 9v-4z M50 893q4 -6 4 -24h4v41h-4q0 -9 -4 -17zM54 773q8 0 8 9l-8 4v-13zM58 811h17q0 8 -9 8h-8v-8zM66 964v8h9l4 -17h-4q-9 0 -9 9zM145 678v4h4q8 -1 8 -8v-4h-4q-8 0 -8 8zM753 687q6 5 21 37l-8 4zM770 666q1 -8 8 -8l4 24q-6 0 -12 -12v-4zM778 612q0 7 17 46h8l-17 -46 h-8zM778 707h8v13h-8v-13zM811 823l37 99q3 38 13 38h12v-13q0 -8 -12 -8v-4l4 -8l-8 -5l4 -8v-8q-15 0 -21 -21q8 -1 8 -8q0 -8 -12 -8v-9h21v-8q-14 0 -29 -21l8 -4l12 8l5 -8q-7 0 -25 -16h-4q-6 0 -13 12zM861 976l8 4l-4 9q1 8 8 8q9 -1 9 -8q-11 -21 -17 -21z" />
<glyph unicode="X" horiz-adv-x="582" d="M-24 935q8 0 24 33h17q16 -9 16 -20h8l-16 28v4h4q6 0 12 -12l8 4q16 -8 16 -20h5l20 24l24 -33h4v9q0 11 -8 24l8 4q0 -4 29 -28l-4 -9q22 -32 32 -32q0 -4 -4 -4q37 -54 37 -61q-4 -8 -4 -12l12 -8h4q65 109 146 215q19 0 29 37q13 0 36 36l-4 8l8 4q0 -4 5 -4 q24 36 32 37h4v-12q-8 0 -24 -33h4q17 12 36 29l4 -8q-5 -1 -16 -21v-4l21 21h4v-5l-21 -32q8 -1 8 -8q-4 0 -32 -37l8 -4l53 65q0 -4 4 -4l-37 -53q8 -1 8 -8v-4q-29 -34 -48 -69h4q33 33 57 73h8v-4l-8 -12v-4l8 4l4 -8q-25 -12 -33 -25l4 -8v-4h-4l-8 4v-4q4 -7 4 -16 q-17 -25 -36 -25l8 -12q-25 -32 -25 -36v-8h13q12 19 12 28q8 0 24 24h4v-8h8v8h-8q9 25 17 25v-4q-5 -8 -5 -12h9q0 12 8 12v-8q-3 -11 -41 -45q0 4 -4 4l-4 -8l8 -12q-13 -2 -32 -57q-6 0 -13 -13v-4h4l17 13q0 -4 4 -4l-73 -114q-27 -53 -41 -53q4 -8 4 -12q-4 -8 -4 -13 q64 -77 73 -81q8 4 12 4l4 -8q-4 -8 -4 -12q4 0 4 -4q7 4 17 4v4l-25 32v5h8q0 -11 21 -29h4q10 29 20 29l-4 8q24 27 24 40q19 0 94 106l16 8q0 -4 4 -4q0 6 21 20l4 -8q-13 -27 -25 -40q8 -2 8 -8q-38 -62 -48 -74v-12h4l28 29q8 -2 8 -9q-36 -37 -110 -178 q-44 -56 -89 -70q-7 -4 -16 -4h-4q-55 54 -114 143h-8q-60 -121 -102 -163q-11 11 -81 45q0 17 -45 28q0 4 -37 37v16q57 66 131 203q-87 90 -151 212q-4 22 -4 32zM322 655h8l16 36h-4zM366 728h4q5 0 29 37v4q-6 0 -33 -37v-4zM387 594h4q9 0 12 -21q-8 2 -16 21zM391 830 h8q0 4 4 12v4h-4q0 -6 -8 -16zM407 785q6 0 20 24h-4q-5 0 -16 -20v-4zM415 870h4q8 0 8 8v4q-5 0 -12 -12zM427 939h8l5 17q-7 0 -13 -17zM444 1094h4q0 8 8 8v8q-6 0 -12 -12v-4zM513 984l8 4l4 -8v-8q-6 0 -12 12z" />
<glyph unicode="Y" horiz-adv-x="756" d="M-24 723h4l-4 8v17q8 10 8 25h5l21 -29h4q-4 37 -9 46l9 4l8 -12v-30h9q0 4 8 34v63q13 14 13 21h8v-17h4q0 11 9 21l-4 30h-5q-8 -2 -8 -9q4 -8 4 -12l-8 -5l-4 9q0 4 4 4l-4 8v9l29 21h-4q-8 -4 -17 -4l-4 8q4 0 4 4q-4 0 -4 5l8 4q1 -9 9 -9q15 51 25 51q12 0 12 8 q-9 0 -16 4q16 28 16 42h5v-8h8l-4 21q15 0 21 34q6 0 29 25q9 0 9 -13l-38 -176q8 -14 8 -21q-8 0 -12 -55q4 -8 4 -13l-4 -16l4 -30q-4 -8 -4 -13q8 -21 8 -29q-8 -1 -8 -8q6 0 16 -42q5 0 13 -17q-3 -17 -8 -17q5 -43 12 -51q0 -4 -4 -4l55 -84h12q92 49 106 101 q21 56 42 151q0 48 -26 106l17 21l-8 21l4 8q-4 8 -4 13l4 8l-38 72q4 0 4 4l9 -4h4l-4 21l12 8h5q15 -13 37 -21q9 4 13 4q0 -5 21 -21q0 13 8 13q66 -78 101 -185q10 0 68 -135h8q64 117 202 286l4 -8v-4l-12 -17l8 -13v-4q0 -14 -13 -29v-9l26 21l4 -8v-4 q-32 -33 -46 -76q-37 -27 -89 -189q-8 0 -46 -68q13 -29 17 -59h-13v-8q13 0 13 -9v-8h-4l-9 4q0 -7 -8 -21q7 0 21 -109h12q0 -9 -12 -9q7 -63 21 -63l8 5q0 -14 5 -21l-5 -9l5 -8l-9 -26q4 -8 4 -12q-8 0 -8 -17q-6 0 -13 13q4 8 4 12v4h-4q-5 -37 -25 -63q-8 -33 -8 -50 l4 -42h-9l5 -9v-4q-17 0 -17 -38h12v-8q0 -8 -8 -8h-4l-9 4v-4q2 -9 9 -9q-19 -70 -30 -84q5 -8 5 -13q-5 0 -38 -63h-5l5 -8q-6 0 -84 -97h12v-4l-17 -21q5 0 5 -4l8 4h4q-18 -27 -88 -55q-4 0 -4 4l-93 -8l-8 4q-5 0 -5 -4q-117 18 -117 55q-11 0 -21 50v42q0 84 67 236 l38 46l4 -8q-17 -26 -17 -38h9q31 60 80 181q31 38 63 101q32 33 63 113h-4q-38 -23 -118 -46h-21q-46 0 -198 55q-46 14 -93 71q0 6 -29 67l4 9q-12 45 -25 122zM10 807v4q1 9 8 9h4v-5q0 -8 -8 -8h-4zM52 958l8 5l4 -9l-8 -4zM300 -173v-42q1 -30 8 -30q8 5 13 5v33h8v-21 h5q61 48 113 160q72 158 72 395v17q0 47 -13 47q-36 -25 -46 -51v-8h17q0 -22 -72 -152q-34 -70 -59 -143q1 -8 9 -8q-34 -50 -34 -68h8q-12 -59 -21 -79l5 -9q-5 -8 -5 -13l5 -21q-7 0 -13 -12zM321 -194q0 20 21 109h8l-16 -76v-25q0 -8 -9 -8h-4zM447 -224v-4q7 0 17 17 h-4q-6 0 -13 -13zM456 315q8 0 8 8l-8 4v-12zM506 -249l8 4h5v-4q0 -8 -9 -8zM578 -161l4 21h8l-4 -21h-8zM603 -106q8 25 17 25h4q-13 -19 -13 -25h-8zM666 462v21h8v-29q-8 0 -8 8zM678 378v13h9v-13h-9zM775 921h9q0 8 16 29v4q-5 0 -25 -29v-4z" />
<glyph unicode="Z" horiz-adv-x="706" d="M-31 648q21 44 112 104q3 0 122 82q0 6 13 13q7 -4 17 -4q12 34 43 34q19 22 30 22q-14 10 -112 52q-88 51 -91 91v17l26 39h4q31 -13 44 -52q26 0 26 -17h25v4q-20 0 -30 22q-21 0 -21 8v5h4l52 -13v13q-4 0 -35 4v13l22 4l108 -21q17 22 17 26q199 -41 199 -82 q-4 -9 -4 -13q10 0 13 -35l-9 -4l13 -22l-13 -17l17 -57l-4 -8q9 -14 9 -22q-35 0 -69 -39q12 0 21 -43h5q17 29 121 147q0 9 82 74q0 5 30 26h9q13 -5 13 -26q-9 -2 -9 -9v-17q13 0 13 -9q-26 -15 -26 -39v-9l9 -13h-5q-8 5 -13 5q-51 -49 -51 -65v-4l13 8l4 -17 q-26 -6 -26 -13h9v-9h-26q0 -10 -96 -129v-5h18q8 39 21 39q5 -13 5 -26q-5 -21 -18 -21l5 -9q-19 -26 -22 -26q35 -139 35 -238q0 -229 -69 -493q-37 -96 -48 -104q0 -16 -39 -52q-8 5 -17 5v-5l4 -8l-9 -5h-4v9h-9q0 -17 -8 -17q-8 4 -18 4l-4 -9q13 0 13 -8l-26 -26l-4 8 q4 0 4 5l-8 4q0 -13 -9 -13h-22q0 -4 -4 -13q4 0 4 -4q-21 -3 -21 -13h8v-4q-75 -39 -125 -48q-4 8 -4 13h-9l4 -9v-4h-8q-31 10 -31 22h-34q-98 22 -117 52q-22 27 -30 95l4 8q0 5 -4 5q16 210 134 436q27 44 34 44h5v-5q-19 -23 -39 -73v-4h8q5 21 212 333v4h-4 q-222 -35 -277 -48q-36 27 -60 113l4 21q-19 0 -26 65zM125 -208q0 -38 8 -100h9q71 0 173 191q52 115 82 277q17 89 17 160l-8 13l8 12v9h-8v9l13 17q-5 8 -5 13h-4q0 -16 -39 -60h-8l56 86q-5 8 -5 13h-4q0 -24 -47 -74l4 -8l-9 -13l5 -9q-15 0 -52 -60q4 0 4 -5l9 5 q8 -2 8 -9v-9l-30 -47h-9v26h5l8 -5q0 21 9 31q0 6 -17 17l-5 -9h9l-4 -21h-5l-13 8l-4 -8q0 -9 13 -9v-4q-27 -62 -56 -104q0 -5 -5 -13l-8 4h-4v-8h8v-9q-43 -80 -78 -238q-3 0 -17 -34l4 -9v-13zM159 112h9q0 5 4 13l-8 4q0 -9 -5 -17zM177 155q4 -8 4 -13h9v18h-5z M207 129h9v18q-9 -2 -9 -9v-9zM216 211q25 0 25 -8v-5q0 -8 -13 -8q2 -9 9 -9q9 0 9 9l8 -5h5q-9 35 -43 35v-9zM220 151q7 0 17 17v4h-17v-21zM224 -398v-5h13v9q-8 -4 -13 -4zM263 233h4q0 5 5 13v4h-5q0 -4 -4 -13v-4zM289 -364v-8q8 4 13 4v4h-13zM306 294q2 -9 9 -9 l4 9h-13zM319 -342v-4h5q0 6 13 17q-18 -7 -18 -13zM332 324h9l4 17h-8zM341 752h13q0 13 22 13v4h-13q-15 -13 -22 -13v-4zM345 298v4q0 6 13 13h5q-5 -26 -13 -26zM397 795h4q9 5 13 5v8q-17 -6 -17 -13zM453 -256v-4q2 -9 9 -9v13h-9zM458 -217q13 0 26 -17v17q0 9 -9 9 h-9q-8 -1 -8 -9zM471 -182q0 -6 13 -13v4q0 9 -9 9h-4zM709 821v5q6 17 13 17h8q0 -9 9 -9q0 -6 -13 -13h-17zM730 886q2 -9 9 -9l4 9v9q-8 -5 -13 -5v-4zM734 856h13v-13q0 -9 -8 -9zM739 921q6 0 13 13v4q-9 -4 -13 -4v-13zM743 955h13v9h-4q-9 -1 -9 -9zM752 973 q4 0 4 -5q8 5 13 5v8h-9q-8 -1 -8 -8z" />
<glyph unicode="[" horiz-adv-x="758" />
<glyph unicode="\" horiz-adv-x="569" />
<glyph unicode="]" horiz-adv-x="758" />
<glyph unicode="^" />
<glyph unicode="_" horiz-adv-x="1024" d="M0 -100h1024v-60h-1024v60z" />
<glyph unicode="`" horiz-adv-x="1024" d="M212 1363q0 31 20.5 51t53.5 20q20 0 40.5 -12t55.5 -47l291 -296h-69l-330 202q-31 20 -46.5 40t-15.5 42z" />
<glyph unicode="a" horiz-adv-x="807" d="M-14 601v21q3 25 12 25l-4 8q32 87 54 87h4v4l-4 20q11 17 21 17q14 93 94 185l21 21h4l8 -4q0 15 25 33v-4l-12 -29h4q8 4 12 4q2 -8 9 -8q33 25 33 41h4q8 0 8 -12h4q40 14 62 41q7 0 21 12h4v-8q-62 -57 -79 -82h4q21 20 71 37v8h-13v-8q-8 0 -8 8q20 18 45 21l9 -4h4 v4h-8v16h20q15 17 37 17l-8 12h4l13 -8q0 5 20 16l13 -8h4v8h8q6 0 12 -12q21 12 29 12v-8q-5 0 -29 -12v-9h4q33 21 54 21v-8q-57 -11 -227 -174q-164 -208 -194 -350h8q139 44 149 70q21 0 103 78q70 60 107 169q0 5 17 13l8 -4l8 12q29 0 29 -21l9 5h4v-9l-4 -8q4 0 4 -4 l8 4q24 -22 50 -70q20 0 20 -37l-4 -8q4 -8 4 -17q-20 -92 -20 -111q5 1 107 156h8v-4q-4 -8 -4 -12q5 1 78 103h13l-4 8v4q32 53 41 54h4v-12h4q0 4 4 12h-8v12q0 7 16 17l17 -12q-54 -108 -111 -198l-13 -9q4 -8 4 -12h4q34 66 58 66l-4 8v4q0 4 21 21v-8l-4 -9q8 -1 8 -8 q-25 -15 -25 -20l8 -13h-12v8h-4v-4q4 -8 4 -12l-8 -4l-9 4q-8 -54 -12 -54q-8 0 -8 -4q4 -8 4 -12l-17 -9l5 -8v-4l-13 8q-6 -26 -37 -74q-15 -45 -29 -54l4 -8v-4l-8 4q-19 -9 -41 -58h4l21 17v-4q0 -3 -46 -54h4q14 8 21 8l4 -8q-14 -12 -21 -12v-4h9v-9h-17 q-32 27 -107 62q-21 26 -50 70q-106 -86 -256 -127q-88 -17 -94 -17q-75 0 -108 70q-12 3 -33 54q-41 32 -41 78zM64 684h5q0 10 28 70q32 52 38 74h-9q0 -6 -24 -45q-38 -77 -38 -91v-8zM64 754h9l4 16h-8zM85 791q6 0 17 17v8h-5q-8 -4 -12 -4v-21zM155 787h17v8h-17v-8z M159 911h4l5 16q-9 0 -9 -12v-4zM168 531h33v4q0 6 -13 13h-20v-17zM176 940h4q25 25 25 37q-5 0 -29 -33v-4zM201 935h4q29 21 29 25h-5l-8 -4q0 4 -4 4zM205 548l16 -9l54 29q37 17 45 17v8h-8q-58 -29 -66 -29l-8 4q-33 -11 -33 -20zM217 968q4 0 4 -4q7 4 17 4q0 9 -9 9 h-4q-8 -2 -8 -9zM225 989v4q0 6 25 21v-4q0 -6 -21 -21h-4zM234 907h8q8 28 25 28v9h-9q0 -7 -24 -33v-4zM279 1039q0 5 21 20h4v-4q0 -6 -17 -16h-8zM312 1068v8q10 0 37 20h4v-8q-8 0 -29 -25q-8 5 -12 5zM374 622h4q8 0 8 8h-4q-8 -1 -8 -8zM374 1063v5q1 8 8 8l4 -8 l-8 -5h-4zM473 1063l8 -4h4v4q0 9 -8 9zM489 1068h5q13 8 20 8v4h-12q0 -8 -13 -8v-4zM518 1092v9h17q0 -9 -8 -9h-9zM547 1105v12q16 0 25 8h4v-4q0 -5 -25 -16h-4zM675 614h4q17 27 17 33q-7 0 -21 -29v-4zM725 692q6 0 24 33h-4q-20 -18 -20 -33zM749 729q9 0 9 8v5 q-9 -2 -9 -9v-4zM774 787l46 58l4 -9q-3 0 -46 -57zM865 865q8 0 8 9v4q-8 -2 -8 -9v-4z" />
<glyph unicode="b" horiz-adv-x="738" d="M-63 459q86 339 112 409q-4 8 -4 13q18 93 60 206q0 5 -4 5q51 187 99 314q-5 8 -5 13l52 116q6 22 13 22q0 -5 4 -5v5l-4 25q3 0 22 22l-5 9v4q0 6 30 52q-4 8 -4 13q8 4 17 4v4q0 9 -8 9q5 21 13 21l12 -17v-21h13q-8 -15 -8 -26l8 -5q18 26 18 39h8l5 -17q-9 -1 -9 -9 q4 -8 4 -13q-17 -4 -17 -21q4 0 4 -4h-8v8h-5v-13q0 -7 18 -17v-4h13v8l21 -4l-9 -13q9 -1 9 -9q-10 0 -21 -12q0 9 -22 12q-34 -18 -39 -30h9v9l13 -9h4q0 26 13 26l39 -34q28 86 51 112h5v-5q-16 -27 -26 -69q-26 -56 -30 -56q0 9 -9 9h-4q0 -13 -9 -13h-4v17h-4 q0 -12 -22 -56q0 -13 -21 -13v-8l8 4h4l-4 -43h4q22 11 22 17h-9v9q20 0 26 47q5 0 5 5v4h-9v4q10 0 21 13l9 -13q-13 -15 -34 -77q-22 -12 -22 -17q9 -2 9 -9h-5l5 -9q-10 -26 -13 -26q-9 5 -13 5q0 -5 -4 -5v5q17 15 17 34q-9 0 -9 9q-6 -4 -26 -4v-5l9 -13v-4l-9 4h-4v-8 h-4q-9 0 -9 8v5h13v4q-5 0 -13 4q-8 -4 -13 -4v-4l5 -9q-13 -4 -13 -9q4 -8 4 -13h9v9h4q8 0 8 -13q-8 -14 -8 -21l8 4v-4l-4 -9q9 -1 9 -9l-17 -38v-5h4q10 1 21 43h5v-21h4q0 10 13 52h4q9 -2 9 -9q-13 -14 -13 -22q4 -8 4 -13q-6 0 -39 -103h-4l4 -8l-8 -13l4 -9 q-17 -42 -17 -73q6 0 13 -13l-9 -4h-4v12q-13 -4 -13 -25h4l13 8l9 -4l-4 -9q4 -7 4 -17h4v22q9 0 26 86h4l9 -5q-9 -19 -30 -112h4q95 35 185 35q96 0 142 -91q15 -6 30 -94q7 0 13 -48q-10 -94 -25 -94l4 -9q-32 -85 -104 -164h9q0 7 121 99q0 11 82 78h12v-4 q-25 -26 -25 -48l34 35l4 -9l-60 -73v-4l13 8h4v-4q0 -5 -73 -69v-4l17 8v-4q-44 -52 -60 -52v-4l4 -9l-17 -13h-4v9h-5q0 -26 -47 -43q-136 -73 -224 -73q-7 4 -21 4q-17 -13 -112 -30q-35 4 -48 17h-13v-8l5 -9h-5q-4 0 -4 4l-9 -4h-25q-5 0 -5 4l-8 -4h-9q-8 10 -69 26 l-8 -4h-5q-7 7 -47 21q0 16 -13 35zM182 540q201 71 319 250q56 117 56 147q4 0 4 4q-4 0 -4 4q-83 -8 -108 -8q0 8 61 17v4l-82 -13l-4 9l-9 -5h-4l-9 5q0 -5 -4 -5v9h-5q-8 -1 -8 -9v-4l8 4h5q0 -8 4 -8q8 4 13 4v-8l-30 -9q-9 0 -9 9v12h-4v9l30 9q8 -5 13 -5q0 7 -13 13 q-27 -8 -34 -8q-14 8 -26 8q-16 -21 -52 -21q0 4 -4 4q-13 -12 -30 -65l4 -8l-4 -9l4 -8q-21 -32 -30 -99q-4 0 -4 -5q8 -1 8 -8q-8 -13 -17 -52q4 -8 4 -13q-6 0 -13 -17l5 -9q-18 -80 -31 -95v-30zM213 911h4q8 4 13 4v26h4q9 0 9 -13h8l-4 9v17h9v13l-9 -5q-6 0 -13 13v5 h9v8h-9q-7 -47 -21 -77zM213 1281h8v13h-8v-13zM217 1298q7 0 17 30l-8 5l-9 -30v-5zM226 1216h4l4 18q-8 0 -8 -13v-5zM230 1337q8 0 8 9v4h-8v-13zM238 1079q9 0 9 8v5h-9v-13zM238 1363l18 17q-5 8 -5 13q-13 -4 -13 -26v-4zM243 1018h8q1 22 9 22q-4 8 -4 13 q-9 0 -13 -35zM243 1113q4 0 13 -4v13h-13v-9zM247 1160q8 5 13 5v8h-4q-9 -1 -9 -8v-5zM251 1057q8 0 22 -13h9v9q-1 6 -22 17h-4q0 -5 -5 -13zM251 1126q9 0 9 9v4q-9 -1 -9 -9v-4zM251 1315q18 9 26 9v22h-4q-13 -22 -22 -22v-9zM251 1410h9v13q-9 -1 -9 -8v-5zM260 1148 q9 0 9 8v4q-9 -1 -9 -8v-4zM260 1440h4q18 27 18 39q-8 0 -22 -34v-5zM264 1169q6 0 13 13h-4q-9 -1 -9 -9v-4zM273 1251h4q9 0 9 8l-9 5q0 -5 -4 -13zM277 1268q9 0 9 9v4q-9 -1 -9 -9v-4zM282 967h4q10 8 17 8v5h-9q-8 -5 -12 -5v-8zM282 1229h8q9 33 9 35q-9 0 -17 -35z M282 1509q4 -8 4 -13h4q3 22 13 22l-4 8v5q16 16 43 103q8 0 8 9v4l-8 -4l-9 4q0 -9 -47 -138h-4zM290 1634l4 -8q8 4 22 4v8h-4zM299 1272q8 0 13 26h-9q-4 -22 -4 -26zM303 1470h4q9 5 13 5q0 8 -8 8q-9 -1 -9 -8v-5zM303 1608q4 -8 4 -13h5v13h-9zM307 1225q9 0 9 13h9 q0 -5 4 -13l-17 -9zM307 1501q2 -9 9 -9q0 5 4 13h-13v-4zM312 949q30 9 30 22h4q9 -1 9 -9q0 -7 -39 -21zM312 1333v17h8v-9q0 -8 -8 -8zM325 1518h12q0 8 -8 8h-4v-8zM329 1195q4 56 21 56q0 -4 5 -4q-18 -45 -18 -52h-8zM333 1733v4l17 26q9 -4 13 -4q13 11 13 17h5l8 -4 q0 -6 -17 -30q4 0 4 -5l-8 -4q0 9 -9 9q0 -9 -9 -9h-17zM346 1509h4l5 17v13h-5l-4 -25v-5zM346 1703q6 22 13 22l9 -13q0 -7 -18 -18zM350 1483v5h5q8 -2 8 -9v-4h-4q-9 0 -9 8zM355 1768v4q1 9 8 9v-5q0 -8 -8 -8zM355 1798l8 4l5 -9v-12h-5q0 6 -8 17zM359 1548q9 0 9 9 v4q-9 -1 -9 -9v-4zM368 1798v13h8v-13h-8zM376 1354q2 9 9 9q2 -17 13 -17v-9h-5q-6 0 -17 17zM385 1716v13q14 8 26 8q-6 -21 -13 -21h-5v9h-4v-9h-4zM393 1798v8q2 9 9 9h4v-4q0 -6 -13 -13zM398 1759l8 4q7 0 13 -13l-8 -4q-6 0 -13 13zM402 1587v13h9v-5q0 -8 -9 -8z M419 967h18v8h-9q-9 -1 -9 -8zM445 971h17q0 9 -8 9q-9 -2 -9 -9zM467 975h34l-4 9q-17 -4 -30 -4v-5zM505 980q2 -9 9 -9h39v4l-22 5h-26zM518 596l9 -13q13 3 17 18q-4 7 -4 17q-6 0 -13 -13h9v-9h-9l-9 5v-5zM574 695q8 2 22 39q-22 -18 -22 -39zM600 721h9q0 3 8 26 q-17 -9 -17 -26zM609 704h4q6 0 13 13l-9 4h-4zM609 760l4 -9q8 5 13 5v4q-10 0 -17 4v-4zM622 726h8v12q-8 -1 -8 -8v-4z" />
<glyph unicode="c" horiz-adv-x="705" d="M-21 667q0 4 36 91l-4 9q7 23 22 23l-4 9v4q13 23 27 23v5l-9 13l9 5l9 -5q12 39 82 109q0 16 32 41q5 20 104 82l46 36q7 0 18 9h9q-7 -14 -50 -36q-3 -17 -36 -32q0 -12 -28 -32q-13 -21 -13 -32q-25 0 -77 -77v-4q128 134 159 150h4l-4 -23l13 9h5v-9q11 9 18 9l-9 14 h4q8 -5 18 -5v-9q-9 0 -27 -18q-9 0 -9 9q-26 -14 -45 -14v-9q13 0 13 -4l23 13h9l14 -9q44 50 68 50q-134 -120 -155 -145v-9q8 0 19 18l9 -5h4q11 9 18 9v5h-9q0 -9 -9 -9h-9q61 65 118 104h5v-4q0 -3 -27 -27l54 36h5v-5l-114 -100v-4h5q14 9 22 9l-9 -14h5q10 2 22 41 q3 0 19 5l-5 -9h5l18 13q0 -4 4 -4q-6 -20 -31 -27q-9 4 -14 4q9 -11 9 -18q56 45 68 50h14q0 13 9 13h4v-9l14 9l5 -9q-104 -79 -178 -159q-110 -119 -145 -218h5q156 0 395 209q65 77 72 78h5q20 -19 23 -19q8 5 18 5q0 -22 36 -41l-4 -18l27 -64v-9q-11 -24 -82 -95h9 l77 82h5q-50 -76 -77 -87v-9h9q4 0 54 55h5v-5q-51 -58 -55 -86q-128 -128 -240 -173q-87 -22 -105 -31l-22 4l-23 -4q-9 4 -14 4l-4 -9q-58 9 -68 9q-9 -4 -14 -4l-64 36q-140 157 -140 200v4q0 5 4 5q-9 18 -9 27zM224 890l9 -5q0 14 14 14v9h-9q0 -7 -14 -18zM233 844h5 q9 0 9 9h-5q-9 -1 -9 -9zM247 858h9v13q-9 -1 -9 -9v-4zM261 871h13q0 8 14 23v5h-5q-16 -9 -22 -28zM274 962q9 0 9 9v5q-9 -2 -9 -9v-5zM288 903h4q19 7 19 14h-10q-6 0 -13 -14zM288 976q3 0 41 32v4h-5q-15 -4 -36 -27v-9zM315 949q9 0 9 9v4q-9 -1 -9 -9v-4z" />
<glyph unicode="d" horiz-adv-x="686" d="M-20 744v16q0 4 4 4q-4 7 -4 12q10 105 24 105q-4 8 -4 12q18 79 86 141q79 65 157 83v-8q0 -6 -36 -20v-8h12q9 8 67 16h4l-4 -20q8 -1 8 -7q0 -7 -24 -28h12q8 8 27 8q0 -12 -19 -12l7 -27q-7 -1 -7 -8v-4h7l28 16v-4q-4 -11 -59 -59q-3 -13 -51 -82q-35 -73 -35 -177 v-27q6 -102 47 -165q22 -23 31 -23v27q12 75 24 75q0 4 -4 4q4 79 31 188l39 90q4 0 4 4q-8 0 -8 12l12 23q-4 7 -4 16q7 0 20 62q16 0 35 75q21 8 35 63q28 15 28 19v8h-4q-15 -12 -24 -12l-3 8q11 71 35 71q0 4 4 4l4 -8v-8h-8q1 -8 8 -8q0 8 23 12v-4l-8 -12h8v-8 q-19 -21 -19 -35l15 -12h4v12h4l8 -4v8q0 8 -12 8v8q0 7 12 7v8q0 47 31 47v16l-8 -4h-4v4q0 7 8 23l-4 8l8 20q-4 8 -4 12q8 0 20 23q15 3 31 20h4v-4l-8 -12v-4h4l20 16q-4 7 -4 12q32 36 35 78q19 14 24 47h4l-4 8q11 10 35 51l-8 12h4l8 -4q0 21 27 70q0 8 28 43v8h8v-8 h7q8 0 12 24q-4 0 -4 4l43 35h12q8 -1 8 -8q-54 -100 -165 -392q-110 -273 -207 -748h4l117 157q15 8 106 141h4l8 -4q21 35 31 39h4q6 0 12 -12l-36 -74l8 4q8 -4 12 -4v-8q-12 0 -12 -8q4 -8 4 -12q-6 0 -15 -15v-4l7 4q0 -4 4 -4q-7 -24 -27 -43l4 -8l-43 -59v-4h8 q0 9 27 35q0 -4 4 -4q-60 -83 -212 -258h8l16 8l4 -8q-20 -12 -32 -12l-4 8l-15 -8l4 -8v-8q-64 -21 -75 -35h-8q-56 11 -86 27q-4 0 -12 -3q-111 16 -188 62q-94 67 -94 126q-14 0 -31 121v24l4 7q-8 0 -8 8zM192 1073h11q0 8 -7 8h-4v-8zM254 976h4q6 0 12 11h-12 q0 -4 -4 -11zM435 1042q7 0 7 8v4h-7v-12zM439 991q3 -7 3 -15q8 0 24 47l-4 7l20 36v4h-8v7q15 0 15 55h-7q-24 -95 -36 -121q4 -7 4 -16q-7 -4 -11 -4zM442 1073q8 0 8 8v4h-8v-12zM446 1101q2 -8 8 -8v12h-8v-4zM482 1242v4q1 8 7 8h4v-12h-11zM489 1215v7h4l8 -4 q8 10 8 16h8q0 -27 -24 -27zM497 1254v8h12v3q-12 16 -12 24q10 8 16 8l8 -4h4v4h-8v8q19 0 35 58h4v-3q-4 -32 -35 -118h-12q0 12 -12 12zM548 458v8l32 31h4v-4q0 -5 -36 -35zM552 1199q19 35 28 35q-8 10 -8 20h-4q0 -7 -12 -20q4 -7 4 -12q-8 -12 -8 -23zM568 1395v12 q1 7 8 7h4v-4q-8 -9 -8 -15h-4zM576 1434l11 8v-8q0 -8 -7 -8zM587 1309h4q8 0 8 7v4h-8q0 -4 -4 -11zM595 1465v8q1 8 8 8v-8q0 -8 -8 -8zM615 1516v8q1 8 8 8h4q-6 -16 -12 -16zM638 1465v4q2 8 8 8v-12h-8zM654 595v4q1 8 8 8v-4q0 -8 -8 -8zM670 619v4q1 8 8 8v-12h-8z M697 772h4q8 0 8 11v4h-4q0 -6 -8 -15zM701 846q8 0 8 8l-8 4v-12zM709 674v4q1 8 8 8v-4q0 -8 -8 -8zM709 799q4 -7 4 -12q13 12 19 12v4q0 8 -7 8q0 -6 -16 -12zM768 1677v4q4 7 4 12h4q7 -2 7 -8q0 -8 -7 -8h-8z" />
<glyph unicode="e" horiz-adv-x="618" d="M-6 720v8q0 97 78 245q99 128 186 128h4q134 0 233 -167q39 -36 39 -90q0 -51 -43 -85h-4v4q15 20 19 35h-4q-4 -1 -81 -82q-48 -35 -62 -35l-16 4q-6 -4 -15 -4q-3 15 -51 28q-42 22 -42 50q-4 0 -4 4v4q122 94 132 159h-4q-51 0 -140 -136q-27 -56 -46 -171q3 -6 3 -15 q0 -4 -3 -4l15 -78h8q58 0 213 140l152 136q14 0 31 23q10 0 39 27h7q8 -1 8 -7q-8 -2 -8 -8v-8q12 0 12 -8v-4q-27 -31 -39 -31v-7l8 3l4 -7v-4l-175 -167q-5 0 -11 -12h3q64 58 74 58v-3l-109 -105h4q16 6 16 11l8 -3h4q7 0 7 7v4l-7 -4v4q0 6 11 12h4v-8q49 37 144 124 q10 16 27 16l-8 -12q4 -7 4 -15l-16 -12l-3 8q7 0 7 8h-4q-6 0 -15 -16q4 0 4 -4q-17 -1 -55 -43q-14 0 -77 -69l4 -8q-6 0 -16 -16v-4h4l8 4v-7q-4 0 -12 -4l-8 4q-18 -12 -23 -12l8 -12q-29 -23 -74 -85h12l8 4l3 -8q-27 -19 -38 -19v-4q11 0 11 -8v-4h-31q-65 27 -81 27 q0 -4 -4 -4q-229 141 -229 272q-7 0 -8 58zM405 495q2 -8 8 -8h4v8h-12zM413 507q16 6 16 11v4q-13 -4 -16 -15zM514 646q16 25 51 51h3v-4l-46 -47h-8zM576 705q0 5 20 15h4q0 -6 -16 -15h-8zM615 806h4q15 5 15 11v4h-3q-16 -6 -16 -11v-4z" />
<glyph unicode="f" horiz-adv-x="261" d="M-86 381q0 4 4 4l-4 7v7l8 10h-8q38 166 134 425q23 88 169 492q-121 45 -197 136q10 12 12 32q-4 6 -4 18q7 0 12 17q-4 7 -4 11l8 3l-4 18v14q10 17 16 17q118 -101 216 -126h4v4q-20 0 -23 10h3q26 -7 36 -7q131 239 283 239h4q104 0 221 -116q12 -49 12 -60 q-22 -38 -28 -38h-4q-5 0 -39 66q-45 35 -122 35q0 -14 -28 -24q0 -9 -55 -32q-69 -51 -75 -77q-3 0 -23 -28q0 -8 70 -18q96 -28 252 -45q4 0 4 3l20 -3q13 0 20 3q19 -3 122 -10q4 0 4 3l39 -3h20q41 0 126 -4v-3l-4 -7h4q15 17 220 17q4 0 12 -3l8 3l39 -3q63 7 177 10 l8 -3q17 7 63 7h47q9 0 16 -4q28 7 67 7v-7q0 -3 -16 -14q-43 -2 -43 -7q0 -3 -4 -3l-20 3q0 -7 -7 -7l-12 7h-16v-7h-39v7h-4l-51 -10v10q-25 -2 -40 -14l-16 11h-4l-23 -11q-7 4 -16 4l-8 -4l-4 7q-12 -3 -12 -7l-19 4h-12v7h-4v-7q4 0 4 -4q-35 0 -47 -3v3q-3 -3 -36 -3 v-4q17 0 32 -3q26 3 51 3q4 0 4 -3q20 7 31 7q21 -4 24 -4q35 2 35 7l8 -3h36v-7h-4q-35 0 -59 -7l-8 3l-67 -7q-7 4 -20 4h-8l-11 -7h-4v7h-8v-7l-8 3h-4v-3l28 -11v7l19 -3h63q9 0 16 3l8 -3q27 3 43 3h20l8 -3l4 7l8 -4h27l24 4q4 0 4 -4l39 4h47q9 0 16 3l8 -3l20 3 l3 -7l-19 -10l-4 7l-28 -4l-23 4q-8 -4 -12 -4l-24 4q0 -7 -43 -11q0 -7 -24 -7v4l4 7h-4q-9 -11 -47 -15q0 6 -16 15h-8l4 -7v-4h-19l-40 -4q0 4 -4 4q0 -4 -4 -4q-3 7 -3 11h-8q0 -14 -44 -14q-4 0 -11 3q-54 -4 -63 -7q-8 4 -12 4q-8 -4 -12 -4q0 4 -4 4l-4 -7l8 -4 q7 4 16 4v-4q0 -7 -8 -7q-4 0 -4 4q-6 -4 -24 -4v-7h12q8 0 8 7l8 -3q7 3 16 3q1 -7 7 -7h4v7h-11v4q1 7 7 7h44q9 0 16 3q11 0 11 -17l20 3v-3l-8 -11h24l15 11q0 -8 8 -14l28 14q16 0 16 -14h4q7 0 7 7q-3 0 -3 3l7 4h4l12 -7q8 3 12 3v-3q7 3 16 3v7l-36 11 q-15 -2 -15 -11h-16v7q6 0 35 11l8 -4l8 4q21 -3 28 -18l7 4q12 0 12 -11h20q17 -10 27 -10q8 14 24 14q1 -7 8 -7q8 3 12 3q1 -7 8 -7l8 4q7 -4 11 -4l8 4l8 -4l39 4q8 -4 12 -4l-4 7l8 4q16 -7 16 -11q18 7 35 7v-3l8 3l20 -3q4 10 24 10v-7h-8v-3h4l27 3q8 -3 12 -3 q1 7 8 7l12 -7q0 5 11 10h4q8 -14 8 -17h20v3q-16 0 -16 7v4h4q4 0 4 -4l8 4h16q9 0 15 -4q7 4 16 4h4v-7h-20v-4h32v-7h-20q-9 0 -16 -3q-6 3 -15 3l-16 -3v-4h59l24 4q4 0 4 -4q2 0 15 4q100 3 146 3v-7h-4q-181 -3 -181 -10q-4 0 -4 3q-321 -17 -449 -17l-35 -4l-8 4 q-7 -4 -16 -4h-8q-4 0 -4 4q-19 -7 -70 -7h-52l-23 -4q-4 0 -4 4q-53 -4 -79 -4h-83q-16 0 -43 -3l-8 3q-97 -4 -102 -7l-24 4q-379 0 -582 56q-32 10 -75 10q-41 -80 -106 -284q-3 0 -12 -17q4 -7 4 -11h-8v11h-4q0 -4 -4 -11q8 -1 8 -7v-7q-16 0 -16 -21h4v-11 q0 -26 -12 -28q0 7 -8 7v-14h8l-4 -7l-8 4h-4q0 -11 -7 -11l4 -7v-7h-12v11h-4q0 -14 -12 -14l4 -7v-4q-8 0 -8 -3q4 -7 4 -11l8 4h4l-4 -35h12v-8q-11 -28 -16 -28l4 -7v-7h-4l-8 4v-4l4 -17q-4 -25 -12 -25l-8 4v-14l8 3v-10h-4l-8 3l-4 -14l8 4l4 -7v-7h-8v7h-4 q0 -14 -11 -14l-4 7l8 10v14l-8 -3l4 -7q-24 -24 -40 -71h-8v7h-8q0 -7 -3 -14h7v-7l-7 4q-12 -39 -20 -39q-4 0 -4 -3q4 -7 4 -11l-24 -31h4l8 3v-14q0 -5 -12 -10q0 -4 4 -4q-4 -24 -12 -24q0 7 -8 7h-3v-4l3 -7q-3 0 -3 -3l-8 3h-8v-3l12 -15v-10h-8v10h-8q0 -6 -12 -38 q4 -7 4 -11q-8 -1 -8 -7q1 -7 8 -7q0 4 4 4l4 -7v-14h-8q0 10 -4 10q-13 -7 -24 -7q12 13 12 25h-8l-15 -11q-7 4 -16 4q0 -4 -4 -4zM-82 357v3q1 7 8 7q8 -1 8 -7l8 4q7 -1 7 -7v-4l-19 4h-12zM-66 413q8 0 8 7v3h-8v-10zM-51 392l8 -4l4 7v11q-6 0 -12 -14zM-27 452 q1 -7 8 -7v10h-8v-3zM16 532h12l4 25h-16q0 -8 4 -14q-4 -7 -4 -11zM36 599q1 -7 8 -7v3q0 7 -8 7v-3zM103 627v11h8v-11h-8zM131 711h11q-4 7 -4 11q-7 -1 -7 -7v-4zM178 827v11h8v-4q0 -7 -8 -7zM225 922v14h8v-7q0 -7 -8 -7zM812 1315q0 -7 11 -7h4v4zM827 1259 q2 -7 8 -7h8q0 7 -8 7h-8zM867 1308h4q7 0 7 7h-11v-7zM882 1266q21 -4 24 -4q0 7 -8 7h-16v-3zM890 1315q0 -5 12 -10h12q0 7 -24 10zM910 1262h8q7 4 12 4v3h-12q-8 -1 -8 -7zM934 1248h15v4h-15v-4zM993 1280l4 -7q6 3 19 3v4h-23zM1001 1305h15v7l12 -7l12 7q1 -7 8 -7 q3 0 31 7q1 -7 8 -7h39v7l8 -4h4l12 7h8l12 -7h16q0 4 -16 14l-8 -3q-4 0 -4 3l-20 -3h-8q-8 0 -15 3l-44 -7q-4 0 -4 4l-19 -4l-28 4q-6 -4 -19 -4v-10zM1008 1248h12q0 7 -8 7zM1008 1266q2 -7 8 -7h4q8 0 8 7h-20zM1016 1329h16l-4 7q-8 -3 -12 -3v-4zM1020 1276h12v7h-4 q-8 -1 -8 -7zM1032 1255q1 -7 8 -7h4q0 7 -8 7h-4zM1040 1276q8 0 8 -3q5 3 27 3v4q-15 0 -15 7q-20 -5 -20 -11zM1040 1329h8l19 4v3h-19q-8 -1 -8 -7zM1079 1340q1 -7 8 -7h4v10h-12v-3zM1087 1259q6 0 12 10h-4q-8 -1 -8 -7v-3zM1115 1276h4q7 4 11 4q2 -7 8 -7v7l-19 3 h-4v-7zM1142 1276q22 4 36 4v3h-32zM1150 1333h16v3l-16 4v-7zM1166 1269l4 -7q6 4 19 4v3h-23zM1174 1252q12 0 12 -7q6 3 15 3q0 7 -8 7h-19v-3zM1186 1333h15v7h-15v-7zM1193 1315l4 -7q8 4 12 4l20 -4q4 0 12 4l19 -4q48 4 71 4q8 -4 12 -4v4q0 5 -12 10l-8 -3 q-7 3 -15 3l-8 -3q-7 3 -16 3h-8q-8 -1 -8 -7l-19 4q-10 0 -32 -4l-24 4v-4zM1205 1245q1 -7 8 -7l4 7h-12zM1237 1238h12v3q-5 0 -12 4v-7zM1237 1333q4 0 12 -4l3 7l-15 4v-7zM1249 1252q13 0 19 -4q22 4 44 4q0 7 -12 7q-4 0 -32 -4l-8 4q-7 -4 -11 -4v-3zM1256 1336 q5 0 12 -3l20 3l24 -3l3 7h-3q-4 0 -4 -4l-28 4h-24v-4zM1323 1259q6 0 16 -7q8 0 8 7l-8 3h-16v-3zM1347 1273q8 -16 16 -18h15l4 18h-35zM1402 1276v4h8v-11q-8 0 -8 7zM1437 1276l8 4h12l-4 -7q8 -1 8 -7v-4h-4q-19 10 -20 14zM1552 1333v7h8l23 -4q24 7 24 11l19 -4h4 q23 0 28 4q21 -4 35 -4h28v-7h-32q-8 0 -15 4q-48 -4 -79 -11q-27 4 -43 4zM1567 1276v7h12v-7h-12zM1630 1238h24v3h-24v-3zM1670 1241h16v4h-16v-4zM1745 1248q7 -8 7 -14h8q0 11 12 11v3h-27zM1788 1315q1 7 8 7h12q7 -1 7 -7q0 -7 -7 -7h-12q-8 0 -8 7zM1851 1234h16v4 h-16v-4zM1855 1245h12v7q-8 -4 -12 -4v-3zM1871 1234h15q8 0 8 7l16 -3h8v3h-16v7h12v4h-28l4 -7l-8 -4l-8 4l-3 -7v-4zM1922 1248h12v7q-8 -3 -12 -3v-4zM2044 1248v7h15v-7h-15zM2185 1378v7h20v-7h-20zM2237 1396v7h11v-7h-11zM2252 1248v7h24v-7h-24z" />
<glyph unicode="g" horiz-adv-x="837" d="M26 744v30q0 4 4 4l-4 9q11 214 181 280q76 34 103 34v-4q9 4 13 4q83 0 185 -60q2 -12 121 -112q0 -10 22 -39v-13l-9 -13q21 -32 34 -81q-13 -5 -13 -9q35 -74 35 -90h4q6 0 78 107l51 73q0 12 18 18q12 15 34 56h17q-4 8 -4 13q34 25 39 25q7 0 17 -17 q-20 -24 -43 -26v-17h4q0 -23 -17 -30l4 -9q-7 -21 -21 -21q4 -8 4 -13q-38 -72 -95 -159q-32 -66 -56 -99v-18h5l21 26q0 -4 4 -4l-21 -35v-13q21 -161 21 -241q0 -10 -12 -34q4 0 4 -4l-9 -5q0 5 -4 13q-8 -4 -13 -4v-9q22 0 22 -8v-31q0 -6 -13 -12q-5 8 -5 12 q-51 -62 -64 -86q4 0 4 -4q-13 0 -26 -69l17 13l5 -9q-5 -8 -5 -13l9 5q0 -5 4 -5q-7 -43 -17 -43q0 9 -8 9q0 -13 -9 -13h-4v9l4 8l-9 5q-9 -36 -38 -69l4 -9l-52 -103q9 -2 9 -9l-17 -30v-13l21 13l4 -9l-21 -17q0 9 -9 9q-16 -26 -21 -26h-5v13q-18 -24 -38 -30 q0 -6 -26 -13l-39 -52l-9 -4l-4 8v5l9 13v4l-52 -47l4 -9q-13 -16 -43 -30q0 4 -4 4q0 -9 -9 -9h-38q0 -21 -39 -21q-9 -7 -60 -13q-125 24 -125 78l-5 8q0 8 9 26q0 4 -4 4q0 108 185 379q101 149 159 224q4 0 30 30q9 -1 9 -8v-5l-13 -17v-4h9q0 12 64 90v-8l-13 -22h5 q17 18 47 35q9 14 9 26v43l8 13l-4 30q0 5 4 43q-30 174 -95 284q0 22 -68 43l-9 13q17 24 17 30q-14 9 -21 9q-83 -33 -112 -61h8q49 34 91 39v-4q-5 -12 -52 -30q0 -7 -65 -52l-51 -86q-17 -63 -17 -73v-5q0 -9 4 -17q-4 -7 -4 -17q0 -43 86 -43q98 21 185 56q24 4 34 4 q2 -13 22 -30q-12 0 -26 -34h-9v-9h9v-9h-9l-8 5l-5 -9v-4h18v-9q-43 -17 -52 -17v-4h13q21 13 30 13v-5q0 -11 -52 -26v-4h22v-9q-12 0 -60 -17q0 -8 25 -8v-9q-32 -22 -64 -22q-8 5 -13 5q-4 -13 -26 -13q-7 0 -34 8v-4q0 -13 60 -26h30v-8q-23 -5 -26 -5q-70 11 -103 39 q-122 120 -164 246q-17 46 -17 73zM134 -247h8q0 36 22 52l-4 9q4 8 4 12q-19 0 -30 -73zM142 -320q9 -18 9 -26h4q161 0 353 474l48 189q0 5 -5 5l9 56h-4q-24 -30 -48 -30q-8 4 -13 4q-7 -17 -17 -17v-9q23 -9 26 -9v-8h-4l-26 13q-8 0 -22 -26h-4l4 -9v-8q-13 0 -13 -9 v-4q13 0 13 -4q0 -13 -13 -13l9 -13q-32 -43 -34 -43l-5 8q5 0 5 5q-9 0 -9 12q-9 -1 -9 -8l9 -13v-22q-261 -350 -263 -495zM168 -143v-5h9q6 0 13 13l-9 5q-6 0 -13 -13zM233 -36h4q8 5 17 5l-4 8l13 17v9h-9q-21 -30 -21 -39zM250 7h13q8 0 8 9q-8 0 -8 17 q-13 -4 -13 -26zM267 38q9 -14 9 -22q6 0 13 13l-5 9q16 0 22 21q9 0 9 17l-9 5l-22 -18l5 -8l-9 -5q0 5 -4 5q0 -10 -9 -17zM310 89l17 -4v9q-4 0 -12 4zM319 -363v-4h4q0 8 9 8v9h-9q0 -5 -4 -13zM371 485h8q9 0 9 9h-9q-8 -1 -8 -9zM379 175q4 0 4 -4q9 4 13 4v18h-8 q0 -7 -9 -18zM405 -285h13q0 7 13 21h-4q-6 0 -22 -21zM414 236q0 -7 13 -13h4v17h-17v-4zM414 533h4q9 0 9 8h-5q-8 -1 -8 -8zM431 494v9l21 4v-9zM448 244l22 39h8v-4q-4 -14 -26 -35h-4zM478 287v5q2 8 9 8h4v-4q0 -9 -8 -9h-5zM508 361h18q8 0 8 8v4q-7 0 -17 9h-4l4 -9 q-9 -1 -9 -8v-4zM638 33h8v13q-8 -1 -8 -8v-5zM913 925v8h13v-8h-13z" />
<glyph unicode="h" horiz-adv-x="691" d="M-13 417v29l4 22l-4 7q23 272 65 458q4 0 4 4l-4 7q12 52 18 54l-4 26q16 16 26 79q3 0 7 11q-4 6 -4 14q7 0 7 11l-3 22q8 42 32 65h-3l-7 -4v7q7 0 7 11l7 -3l4 7l-4 7q18 29 50 126q12 9 47 116q9 0 44 90l7 4q6 -4 14 -4q15 46 47 69q7 16 15 18l3 -8 q-54 -116 -72 -180q17 28 83 170q7 0 11 25h7v-4l-79 -177l7 -3q7 29 14 29q8 -1 8 -8l-4 -18h7q17 47 26 47h3v-3q-18 -45 -18 -47l7 -4q3 18 11 18h4q-18 -58 -29 -65h-4v4q0 4 15 40h-8q-43 -98 -61 -159q5 0 47 108h4q7 -1 7 -7q-7 0 -22 -54h7v11h11v-8h4l14 15h4 l4 -22h-8l4 -14q-69 -168 -98 -293q4 0 4 -3q102 47 155 47q90 -23 90 -47q94 -93 94 -148h-3l-18 29h-4v-4q0 -18 -7 -43l7 -4q-22 -127 -22 -133h11q25 90 25 93v11h8v-7l-33 -155h-7l4 36v4h-8v-8q0 -22 -29 -72v-3h4l47 50q0 6 162 206h4v-7q-22 -27 -32 -55v-3h14v-4 q-12 -37 -65 -104v-4q14 0 51 43h3q-6 -32 -65 -104v-4l7 -11q-4 -28 -57 -97q0 -15 -29 -51q-1 -5 -36 -54l3 -7q-4 0 -36 -36v-4h4q12 7 21 7h8v-3q0 -4 -26 -18h-7q-8 0 -14 3q-12 -7 -22 -7q-23 11 -58 15q-4 12 -54 32q-29 21 -29 25v11q40 183 109 455v22 q-33 -6 -62 -33h-10q0 -5 -15 -11q0 4 -4 4l8 14h-4l-25 -21h-4q-3 0 -3 3q-12 -7 -22 -7q-4 7 -4 11q-7 -4 -10 -4l-8 4l-7 -4l-14 7q-28 0 -36 -111q-40 -227 -40 -300l-15 -36q4 -7 4 -11q-11 0 -18 -47q-37 -25 -58 -25q-3 0 -29 7q-8 0 -14 -3q-29 0 -54 21 q-11 0 -11 7zM157 1262h3q9 0 33 83h-4q-20 -33 -32 -83zM182 1201q8 0 14 32q-8 0 -14 -32zM189 1348q7 0 7 8v3q-7 -1 -7 -7v-4zM193 1237q9 0 54 130q14 35 14 43h-3q-7 -5 -65 -173zM207 1392h7q11 30 11 32h-7q-11 -24 -11 -32zM222 1265q7 0 7 8v3q-7 -1 -7 -7v-4z M225 1450l7 -4l8 14v4h-4q0 -5 -11 -14zM240 1320h7v10h21v11h-21q0 -9 -7 -18v-3zM240 1471h7q0 12 3 18l-7 4q-3 -19 -3 -22zM250 1352l11 -7h11v7q-4 0 -11 4l4 7v4h-7q0 -6 -8 -15zM254 1237q7 0 7 10v4h-3zM261 1413q10 3 29 58h-7zM265 1385h7v10h-4q0 -3 -3 -10z M265 1525h7q0 13 18 44v3h-3q-10 0 -22 -47zM276 1291q4 0 14 21v11q-5 0 -14 -21v-11zM279 1410h4l4 18q-8 -1 -8 -7v-11zM297 1406l8 -3l3 7v7h-7q0 -4 -4 -11zM301 1468q8 0 11 18h-7zM308 1320q7 0 7 7v3h-7v-10zM312 1341h3q8 0 8 7l7 -3h7v7q-7 0 -7 11h-11zM326 1475 h7l4 14h-4q-7 -1 -7 -7v-7zM370 1403v10h7v-3q0 -7 -7 -7zM370 1558q13 25 18 25q0 -4 3 -4q-6 -20 -18 -28zM388 1594v3q0 6 10 11l4 -7l-11 -7h-3zM391 1453v15h7v-8q0 -7 -7 -7zM398 1471v11h8v-4q0 -7 -8 -7zM431 1547v4q1 7 7 7h4q-4 -7 -4 -11h-7zM701 814q6 0 11 15 v3h-3q0 -5 -8 -14v-4z" />
<glyph unicode="i" horiz-adv-x="276" d="M3 415l3 13q0 143 17 262q0 3 -3 3q16 162 33 245l6 4l-3 6l7 10l-4 17q5 4 20 56q11 2 23 50h14q0 -3 -7 -33l33 59l14 -6l-7 -50h10q9 50 16 50v-4q-11 -63 -16 -63l3 -6v-3h-6v-7h9v-3l-3 -7l-6 3q-7 -1 -7 -6q1 -7 7 -7v10q6 -1 6 -7q-10 -22 -10 -26h10q5 26 23 26 v-3l-3 -13q3 -7 3 -10q-6 -1 -6 -7q16 0 16 -16l7 3l3 -7v-3q-2 -10 -30 -10q4 6 4 10q-7 -3 -10 -3v-4q1 -6 6 -6q0 -4 -3 -4l3 -16l-3 -7q3 -6 3 -13l-13 10q0 -10 -6 -23q6 -1 6 -7q-5 -4 -16 -40q-4 0 -4 -3h10v-7h-6v-3q0 -4 29 -27q0 -56 -6 -56l3 -7v-6q0 -3 -3 -3 q0 -4 3 -4l-3 -16v-17q6 0 6 7v26h4l6 -3l-3 -17v-13q7 -8 7 -13q0 -19 -7 -37q3 -6 3 -10q-6 0 -13 -39h-3l-7 3q-3 -36 -6 -43l6 -3q24 42 129 182h7q8 0 10 -17q-5 0 -10 -13l3 -7q-29 -42 -29 -56q3 -6 3 -10q-20 -23 -33 -79q-4 0 -20 -30v-4h6q0 16 24 34v-7 q-52 -85 -103 -136l-13 3q-48 -13 -50 -13q-10 3 -10 7q-27 -7 -43 -7q-21 14 -30 27zM66 965q7 0 7 6l-7 4v-10zM146 942q6 3 10 3v3q0 7 -7 7zM162 607q7 0 7 6l-7 4v-10zM165 567v13q7 -1 7 -6v-7h-7zM165 637h4v13h-4v-13zM169 1008q11 23 16 23l4 -6q0 -18 -10 -20h-4z M172 948q7 0 7 10v4h-4zM285 640v3q1 7 6 7v-3q0 -7 -6 -7z" />
<glyph unicode="j" horiz-adv-x="430" d="M-411 -318q0 140 254 522q90 125 107 138q30 19 152 169q8 0 22 36v76h-9v-58h-4q-13 0 -45 343q-8 0 -18 112q17 4 23 31l-5 27v9h5l13 -9q0 18 27 18l9 -5q9 27 18 27l4 -9q-4 -9 -4 -13q4 0 4 -5l9 5q37 -40 67 -40q1 8 9 8q1 -8 9 -8q8 4 18 4q0 -7 18 -18 q0 -4 -5 -4q9 -125 27 -250q-9 0 -9 -13h-5q0 13 -8 13v-31h4l116 151q29 0 107 107l4 -9v-4l-22 -31v-5q5 0 14 -4q16 44 44 44v-17q9 0 9 -5q-34 -61 -129 -169h4q45 42 45 53h13v-9q6 0 58 81h5q9 -2 9 -9v-5q-88 -119 -246 -294q0 -10 5 -18q-5 -38 -5 -58q9 -24 9 -27 h-4q9 -18 9 -31l-9 -5h-9l-5 18l5 9q-5 8 -5 18v5q0 4 5 4q-5 7 -5 27h-9q0 -9 -4 -9l4 -22v-36q0 -9 -13 -9v-5q13 0 13 -8q0 -9 -13 -9v-9q13 0 13 -9v-23h-4l-18 18l5 9q-5 9 -5 14q9 0 9 9l-9 4h-9v-4q-4 -40 -4 -50q3 0 26 -26l-4 -23l18 -31q-5 -8 -5 -18l-13 9v-9h9 q0 -2 -13 -49v-13h4q13 37 13 40h9v-4q-11 -81 -31 -125l5 -9v-5l-67 -200l-41 -76q-30 -45 -80 -72h5l9 5l4 -9q-34 -59 -62 -80h-9v9l-14 -9h-4v9q-70 -62 -134 -103q4 -9 4 -13q-14 -9 -26 -9q0 4 -5 4q0 -9 -9 -9l-9 5q0 -31 -169 -45q-72 26 -72 80q0 15 -4 23z M-317 -256v-4h9v13q-9 -1 -9 -9zM-313 -229v-9h5q6 0 22 53h9l-18 -84v-40q0 -5 -4 -5q15 -36 22 -36h13q147 31 295 255q86 153 133 383l5 32v62h-9v-5l-4 -53h-9v58q0 4 4 4l-4 9v45q0 6 -14 13q-4 0 -76 -84q-28 -49 -44 -49q-9 0 -63 -81q-30 -11 -147 -192q5 -8 5 -13 q-35 -75 -85 -156q0 -11 -31 -76zM-277 -167q7 18 13 18v-13q0 -9 -9 -9h-4v4zM-264 -140q0 6 14 13h4v-4q0 -6 -13 -13h-5v4zM-233 -73q12 27 18 27q0 -5 5 -5q-11 -31 -18 -31h-5v9zM-139 -367h5q8 0 8 8h-4q-9 -1 -9 -8zM22 -243h4q9 0 9 9h-4q-9 -1 -9 -9zM106 -144h5 q9 0 9 8v9q-7 0 -14 -17zM218 83h4q9 0 9 9h-4q-9 -1 -9 -9zM231 119h5q0 5 4 13h-9v-13zM236 150q4 -9 4 -13h9v4q-4 9 -4 13h-9v-4zM245 172q9 0 9 9v5h-9v-14zM254 204h9v13h-9v-13zM263 230h9q0 15 4 23q-4 7 -4 17h-5q0 -4 -4 -13l4 -22q-4 0 -4 -5zM276 645q9 0 9 9v5 q-9 -2 -9 -9v-5zM303 471q4 9 4 14h14v-27h-9q-9 0 -9 13zM423 899h5q49 52 49 63v4h-5q0 -6 -49 -67zM548 993l5 27h13v-14q0 -6 -13 -13h-5z" />
<glyph unicode="k" horiz-adv-x="531" d="M-32 431v20q17 47 55 318q35 160 47 198l3 5q-3 6 -3 9q31 155 44 160l-3 6l14 49q16 70 32 88l-3 11q0 9 21 53q0 14 11 14l-3 15v3h3l6 -3v3q-6 7 -6 12q19 61 29 61q5 14 18 29h6v-3q-9 -13 -9 -26q20 35 67 163q9 23 15 23h2v-3l-2 -6h8v-6h-11v-5q8 0 8 -9 q-23 -51 -35 -87v-27q-5 0 -5 -14h-3l-6 3l-3 -6v-3h9v-3q-12 0 -12 -14q3 -6 3 -9h3l32 84q6 3 9 3l-3 6v6h6v-6l-21 -61v-3q1 -6 6 -6h3q0 9 6 9l-3 6q7 14 11 14h3v-3l-5 -8l5 -9l6 3q6 -1 6 -6q-17 -12 -17 -35q-5 0 -12 -29l-6 -3q0 9 -6 9l-3 -6v-3h9v-3 q0 -13 -12 -29l-5 3q-6 -3 -9 -3q0 4 9 9l-3 14v3l6 9q0 6 -6 6l-6 -9l3 -6q-10 -3 -12 -12v-8q-20 -28 -20 -47q3 0 29 29l6 -3v6h6v-3l-15 -11q12 0 12 -6l-3 -6v-6h3q0 7 3 12l14 -3q6 0 6 9l14 -3q13 40 18 40v-5l-20 -76q-9 -2 -9 -23v-12q-10 0 -29 -82 q-10 -23 -24 -96q-14 -43 -17 -43l3 -15q-6 -30 -15 -43l3 -6l-6 -12h3q91 69 207 140q0 -3 3 -3l-3 -6l9 -12q-4 -3 -15 -26v-6l6 3q5 -3 12 -3q0 5 11 12q6 -1 6 -6q-9 -2 -29 -29q-6 0 -29 -23h3q5 3 9 3l2 -6l-23 -20h6l9 5h8l-61 -49h3q4 0 53 38h3v-6q-5 0 -56 -41h-3 v-3h15v-3q-73 -55 -137 -116l-3 -12v-3h3v6h6q0 -39 142 -311l6 -3q36 32 82 84q78 82 87 82h9v-3q-2 -29 -18 -29v-12h9q8 20 23 20q0 5 9 9h6v-9h-6l3 -5q-6 -12 -9 -12q6 -10 6 -18q0 -28 -55 -104v-3q3 0 20 14h3v-17q-19 -35 -70 -56q-18 -29 -72 -43h-21 q-91 0 -157 166q-59 128 -67 137q-18 -107 -44 -303q-9 -6 -17 -6l-3 6q-3 0 -9 -3q-36 3 -67 14l-6 -2q-24 0 -52 23zM163 1092q1 -6 6 -6h3q0 6 -6 6h-3zM163 1255q6 0 6 8v3h-3zM189 1057q6 0 9 20q-9 -3 -9 -17v-3zM189 1345h9v9h-3q-6 -1 -6 -6v-3zM192 961h3q6 3 9 3 v8h-3q0 -8 -9 -8v-3zM198 1092h3q4 0 9 8v3h-3q-4 0 -9 -8v-3zM198 1263h9v6h-9v-6zM198 1360h3l3 11q-6 0 -6 -9v-2zM210 1240l8 -6q12 47 18 47l6 -3v6l-9 11q4 0 9 9h-3q-13 -4 -21 -23v-6l3 -6q-11 -11 -11 -29zM210 1295l5 -2v8q-5 -1 -5 -6zM215 1048h3q7 0 15 38 l-6 3q-7 -30 -12 -38v-3zM218 1167q5 0 9 9h-3q-6 -1 -6 -6v-3zM224 1095l6 -3q6 0 9 26h-6v-6h-3l-6 3l3 -15zM224 1185h3q6 0 6 6v3h-3q-6 -1 -6 -6v-3zM224 1345l6 -3l6 9l-6 3zM227 1499v3q15 26 18 41q5 0 5 3v9h6v8l-6 9q12 12 15 29h3q6 0 9 -17l-6 3l-3 -6 q0 -3 3 -3q-9 -38 -15 -38q0 -3 3 -3q-2 -38 -32 -38zM233 1214h6v9h-6v-9zM233 1365h6l3 12v6h-3q0 -7 -6 -15v-3zM236 1243q3 -5 3 -12h3q0 16 17 30v2q-4 0 -12 6q0 -6 -11 -6l9 -11q0 -4 -9 -9zM239 1167l6 -3h8q0 11 15 41v18q0 6 -6 6h-3q0 -3 3 -3l-3 -18h-3 q-3 0 -3 3l-6 -3l-5 3l-3 -6v-6q11 0 11 -5q-3 -6 -3 -9q3 0 3 -3q-4 0 -11 -15zM242 1389l5 -3q6 0 6 6q-6 0 -6 8h-2zM245 1150q5 0 5 6v3q-5 -1 -5 -6v-3zM245 1295q4 0 8 12h-6zM247 1406q7 0 9 15q-6 0 -9 -15zM250 1275h6q0 13 9 23l6 -3h6q0 5 8 15l-8 6 q-6 -10 -6 -15h-6v6h-6q0 -7 -9 -32zM253 1237q5 0 9 15h-3q-6 -1 -6 -6v-9zM265 1237q3 0 9 -3q6 11 6 24h-3q-8 -6 -12 -6v-15zM265 1316h6q0 11 6 17h-6q-6 -1 -6 -5v-12zM271 1604l6 9v3h-6v3q0 5 14 8l6 -8q-9 -11 -9 -21h-5q-6 0 -6 6zM277 1266h3q5 0 5 6h-8v-6z M280 1435h5q9 23 9 32v3h-3q0 -9 -11 -17q2 -6 2 -9q-2 -6 -2 -9zM282 658l6 -3v3q-3 6 -3 9h-3v-9zM282 1298q3 -5 3 -11q8 0 18 35h-3q-7 -6 -12 -6v-3l3 -6q-4 0 -9 -9zM282 1328h3q0 11 9 11v3h-9q0 -3 -3 -9v-5zM297 1330q4 0 15 15l-6 3l-9 -12v-6zM303 1392l9 5h2v-5 q0 -6 -5 -6q-6 0 -6 6zM317 1581v3q1 6 6 6v-9h-6zM323 1590v8q9 26 15 26h3v-2q-13 -32 -18 -32zM326 1426v9h6v-3q0 -6 -6 -6zM332 1461l12 24h5v-3l-11 -18l3 -5l-6 -3zM332 1531v3q4 12 9 12h3v-6q-6 0 -6 -9h-6zM341 946h3q5 0 5 6h-3q-5 -1 -5 -6zM341 1630v12h8v-3 q0 -4 -8 -9zM344 1432v3q0 15 14 29h3q-6 -11 -12 -32h-5zM344 1499q0 6 5 6l3 -6q0 -6 -6 -6zM367 943q0 4 9 9h2q0 -4 -8 -9h-3zM556 672q0 5 9 9v-3q0 -6 -6 -6h-3z" />
<glyph unicode="l" horiz-adv-x="344" d="M-38 460q14 60 35 257q10 30 32 168q3 0 3 4q0 3 -3 3q5 35 14 43l-4 7l28 109l-3 7v7l10 17q-3 7 -3 11q25 49 35 112q18 49 21 81q-3 0 -3 4q7 1 24 66q-3 7 -3 11q7 3 10 3l-3 7v11q6 5 17 46h4l-4 7q9 17 18 17l-7 11q13 20 21 56l46 123q16 48 31 53v-11q0 -3 -3 -3 l3 -7q-19 -57 -28 -57q0 -3 4 -3l-4 -18v-10q-7 0 -14 -18v-17h7q43 154 74 154h3q0 -5 -10 -10l3 -7v-4l-3 -7h7v-7q-10 0 -18 -42h-3l3 -7q-19 -34 -24 -60q-7 -1 -7 -7v-3q7 0 7 -4q0 -3 -18 -25q1 -7 7 -7h4q0 5 14 29l-4 7q27 65 35 73l-3 7q24 60 28 60h3v-3 q-25 -59 -52 -151q-11 -36 -18 -36v-10q0 -4 4 -4q0 -10 -11 -10v-4h7v4l7 -4h4v4h-7v7q14 0 14 14q-7 0 -7 7l7 3q0 -5 10 -14l-3 -7q7 -1 7 -7l-11 -21v-3q1 -7 7 -7l7 3q7 -3 11 -3l7 10v11l-14 -11h-4v7q13 45 21 46h14q0 -2 -17 -18v-10l14 17q7 -1 7 -7 q-21 -52 -28 -59q3 -7 3 -14h-14q-10 0 -10 24h-4q-14 0 -21 -38l4 -8v-7l-11 -14q4 -6 4 -10q-7 -1 -7 -7q3 -7 3 -11q-6 -3 -14 -3l4 -7q-7 -1 -7 -7q1 -7 7 -7l-4 -7v-11q14 0 21 53h11v-7h3q0 4 4 10q-8 0 -14 14q8 18 17 18q-3 7 -3 11q3 6 3 10h4q3 0 3 -3l7 3 q7 0 7 -10l-3 -8q3 -6 3 -10q-11 0 -24 -74l-7 -10v-4q1 -7 7 -7l10 7l4 -7q-32 -10 -32 -49q-10 -21 -14 -21l4 -7q-9 -28 -14 -35l3 -7q-9 -43 -14 -43v-3l4 -7q-11 -20 -11 -28l7 -4h4l14 60h10q-3 -31 -10 -39q3 0 3 -3l-10 -7l7 -14q-15 -51 -21 -53q0 4 -4 4 q4 28 7 28l-3 7q3 6 3 14h-7q-7 -46 -18 -60l4 -7q-7 -1 -7 -7l3 -7q0 -8 -10 -42h3q-4 -18 -10 -18q3 -6 3 -14l7 4l-3 7q12 31 18 31h3q-25 -178 -39 -210l4 -8q-21 -135 -28 -161l3 -7l-7 -42q63 64 197 246q9 23 28 38l4 -7q-5 0 -25 -31q4 -7 4 -14q-11 -4 -11 -22 l4 -14q-9 -2 -18 -24v-4h3q2 14 11 14h4v-3q0 -4 -4 -4l4 -7v-3h-7l14 -25q-9 0 -18 -28l14 14h4v-14l-4 -7q7 -1 7 -7q-42 -67 -77 -105l3 -18l14 14h4v-3q-29 -42 -99 -113q4 -7 4 -10q-22 -21 -116 -32q-92 33 -98 42q0 14 -32 21q0 6 -7 14zM138 573h7v35h-4zM145 647 l7 -4v21h-4q0 -12 -3 -17zM148 675l7 -4q0 17 4 35q-5 0 -11 -17l4 -7zM155 713h7v7q0 7 -7 7v-14zM159 738l7 -4q0 39 28 141q-4 7 -4 10l7 4l-3 7v11l7 10v18h-7zM162 1191q7 0 7 7v4q-7 -1 -7 -7v-4zM169 1124h7v14h-7v-14zM176 1244h4v14h-4v-14zM180 1174q4 0 10 -4v4 q0 3 -3 3q0 11 10 11v14h-7q0 -10 -10 -28zM180 1265h3q5 0 14 25q0 7 -7 7q0 -16 -10 -29v-3zM197 1441h4q14 51 21 59v7l-18 -14l4 -7q0 -5 -11 -42v-3zM204 1346h4q7 0 7 7l-7 3h-4v-10zM208 1279h11l3 14q-9 -7 -14 -7v-7zM208 1367l7 -4q7 9 7 14q-3 7 -3 11l10 7l-3 7 q1 7 7 7l-4 7q7 11 18 42h3v18h-10q0 -9 -32 -109zM211 1297h4q9 7 14 7v7h-14zM215 1177q5 4 25 74l-7 3h-4zM219 1008l10 7v-28h-7q0 3 -3 21zM219 1518l7 -4l10 36v3h-3q0 -10 -14 -21q3 -7 3 -11q-3 0 -3 -3zM222 1321l7 4q0 -4 4 -4l3 32q-3 0 -3 3q5 0 10 11q0 7 -7 7 q-14 -26 -14 -32h4l-4 -7v-14zM233 1381q5 0 14 -7q10 56 24 56q-4 6 -7 35q-7 0 -10 -28q3 -6 3 -14q-14 -3 -14 -7q4 -7 4 -11h-4l4 -7v-3zM236 1209q4 0 18 35h-7q-11 -28 -11 -35zM240 1290l7 -4q2 18 17 18v3l-17 4q0 -13 -7 -21zM247 1486l7 -3l3 17v4h-7zM254 1518 q1 -7 7 -7l3 7h-10zM268 1314q7 0 7 7v4h-7v-11zM285 1258v3l4 18h7v-4l-4 -17h-7zM289 1514v4q1 7 7 7h3l4 -18h-7q0 7 -7 7zM299 1525v3q4 22 11 22h3v-4q0 -7 -7 -7l4 -7v-7h-11zM303 1437h7v11q-7 -1 -7 -7v-4zM313 1567v11h11v-4q0 -7 -7 -7h-4z" />
<glyph unicode="m" horiz-adv-x="836" d="M-72 405v7q0 4 4 4l-4 7q7 36 11 36q-7 11 -7 18q11 53 17 53q0 4 -3 4l28 132h8l-8 -47l11 7l-3 7l14 15v3h-7v4q0 3 10 11q0 3 -3 3q3 11 3 39h-3v7l14 43q13 0 39 97q51 88 136 192q0 6 11 18q-4 0 -4 4q7 3 11 3l-4 7v7l21 18q43 11 79 11q37 -12 82 -54 q0 -15 46 -32h4q37 40 107 40q110 -10 110 -29q129 -64 129 -153q3 0 3 -7l-14 -107q4 -7 4 -15q0 -7 -11 -7l4 -18q-7 0 -18 -21h-4q-7 0 -7 18h-3q0 -39 -22 -47h-3q0 11 -8 11q0 -7 -14 -75l71 89h8l-4 -7v-3h4q0 9 110 139h11q7 -1 7 -7l-14 -40l10 8l4 -8q-6 0 -25 -35 v-4h7q0 11 7 11h4l3 -14h-3l-7 3l-4 -7h7v-4q0 -7 -7 -7h-3v11h-8q-4 0 -17 -18v-3l7 3l7 -3q1 7 7 7v-4q-6 -14 -28 -43v-7l14 11h3v-7q-28 -36 -28 -43v-11q-6 0 -36 -42q-25 -37 -53 -72q-10 -2 -61 -75v-3l21 18v-8q-13 -14 -25 -46q4 -7 4 -11l-11 -7l4 -7v-3l-25 -8 q-4 0 -4 4q-29 -7 -64 -7q-68 0 -68 18q0 3 -3 10q78 360 78 446q7 0 7 79v7q-35 -37 -78 -179h-4v4l-7 -4l-25 11q-9 -1 -14 -18q0 -3 4 -3q-8 -27 -8 -50v-4h-7v4q4 44 4 46q-9 0 -32 -139q-6 -4 -25 -93q-9 0 -14 -28h-11v3l3 18q-13 -21 -32 -28l-10 7q0 -11 -8 -11 l-7 4q0 -15 -10 -15h-4q-7 0 -7 11h-18q-24 2 -50 32q75 275 75 378h4l-4 7v68h-7l-71 -85q-14 -28 -18 -33q3 -6 3 -10q-19 0 -42 -100q-6 -25 -15 -25l4 -18q0 -7 -11 -7v-11q-7 -25 -7 -28q4 -7 4 -11l-15 -14l4 -7v-4q-9 0 -22 -61q-13 -21 -17 -21q0 4 -4 4q7 11 7 21 v4q0 7 -7 7l-7 -18q4 -7 4 -11l-8 -3l4 -8v-3h-7q0 7 -4 7q-7 -4 -10 -4q0 4 -4 4q0 10 11 46h7l-4 -25q9 0 11 47v3h-4q0 -10 -7 -10v7q0 13 15 50l-8 3h-3l-4 -18v-14h-7v-18q-7 -57 -14 -57l3 -7q-8 -21 -14 -21q0 3 -3 3v-7h7v-3q0 -4 -4 -4q4 -7 4 -11l-4 -7q0 -3 4 -3 q-11 -49 -11 -61h-4l-7 4l-3 -8q14 -3 14 -21q-7 -15 -7 -21q3 -7 3 -15h-7l-3 18q7 15 7 25l-11 7q-2 -35 -11 -35v7q15 126 22 132q-4 6 -4 14h-3q-7 -25 -29 -189h-10v21q0 8 3 15q-3 6 -3 14q7 0 7 11l-4 7q7 22 7 28h-3q-9 0 -15 -35l4 -7v-4h-7v-4q1 -7 7 -7 q-3 -21 -7 -21q-7 3 -11 3q0 -7 -7 -7h-4v11q0 4 4 4l-4 7q0 3 4 3l-4 7v8l8 10l-4 7q4 7 4 15v3q-15 0 -15 7v11q1 7 7 7q0 -18 8 -18v11q-10 21 -15 21q-7 -34 -7 -39h-7zM-43 341h7l7 4q-6 14 -11 14zM-18 419l7 -3q3 21 7 21l-4 7v8q8 17 11 17q-4 7 -4 11q7 12 7 21 l-3 8q3 7 3 10h-7zM-1 548q1 -7 7 -7t11 10l-11 8zM10 562h11v7q-4 0 -11 4v-11zM17 608q6 0 14 33q-3 6 -3 10q7 12 7 18h-7q0 -13 -11 -61zM21 423l7 -4q4 32 11 40l-8 3q-10 -33 -10 -39zM21 509h7q36 184 36 196v3h-4zM31 673h4q7 28 7 35h-7q-4 -25 -4 -28v-7zM39 719 h7v14h-4zM49 394v4q8 0 15 4l3 -8l-7 -3q-7 3 -11 3zM49 427h4l7 -4q7 4 11 4v-8q0 -7 -7 -7zM78 780q7 0 18 42h-11q0 -8 -7 -17v-25zM81 437v4q4 7 4 11h4v-15h-8zM96 555q7 4 10 4v10l4 25l-7 4q0 -9 -7 -25l3 -7q-3 -7 -3 -11zM96 840l7 -3l3 14h-7q0 -4 -3 -11z M813 644h7q0 7 14 22v3q-13 -18 -21 -18v-7z" />
<glyph unicode="n" horiz-adv-x="669" d="M-49 339v19h8v-19h-8zM-41 416q9 62 19 62h4q-4 -11 -8 -11l4 -8q0 -4 -4 -4q4 -5 4 -19h-8l4 -28h-4zM-22 498v4q1 7 8 7v-11h-8zM-14 412v4q4 24 12 24q0 -4 3 -4l-3 -24h-12zM-14 521v16q15 44 15 50h8v-19q14 0 20 77q-11 0 -16 -38q-8 0 -8 -12q-7 0 -7 8v7 q0 24 31 113q0 35 11 35v4l-7 11q5 0 19 24l-4 8q0 7 12 7q0 8 -8 8q18 49 109 202q59 66 112 82q1 7 8 7h4q88 -10 124 -31q136 -98 136 -140v-3l-8 3q16 -67 24 -163q-8 -89 -8 -120q106 122 186 190v4h8v-4q0 -8 -8 -8l4 -7q0 -13 -19 -39v-4l11 8v-4l-19 -23q8 -2 8 -8 q-8 0 -24 -43l4 -8q0 -4 -31 -38v-4h4q0 15 23 19v-4l-101 -120v-4h4q20 15 24 15l4 -7q-81 -94 -86 -94v-7q6 0 82 85h4q-130 -169 -167 -171h-4q-15 12 -28 12q-12 -8 -23 -8q-64 31 -77 31q-6 0 -12 12v4l4 19q-8 0 -24 16q48 111 66 353q0 22 4 43q0 4 -4 4l4 19 q-11 68 -11 82q4 0 4 4h-4q-32 0 -113 -98q-24 -49 -31 -85l-8 -4l4 -8q-11 -36 -27 -58q4 -7 4 -15q-12 0 -12 -8l4 -20l-8 -3q0 3 -4 3q-93 -317 -93 -380v-4h-8v16h-3q0 -16 -8 -16h-8l4 19q-8 0 -8 8v4q0 4 4 4q-4 6 -4 23q-8 0 -8 -15h-7v4q0 28 11 50q-4 8 -4 12h4 l-4 7l8 12v4l-4 8q8 0 16 46h-4q-8 -4 -12 -4q27 29 27 47v4l-7 12q7 33 7 42h-7q-4 -31 -12 -31l-4 8v8l8 11q-4 8 -4 12q8 0 16 51h3q-3 6 -3 19h-4q0 -8 -16 -50q4 -8 4 -12q-8 -1 -8 -8q4 -7 4 -15q-9 0 -15 -39q-4 0 -4 -4v-20h-12l4 47q0 8 -8 8q-15 -23 -15 -43h-8z M-6 447v4q7 9 7 23h8l-4 -27h-11zM9 424l8 4v-12q-8 0 -8 8zM17 478l8 4h4v-4q-4 -7 -4 -11q4 0 4 -4l-8 -4zM36 529q4 7 4 15q8 -1 8 -7q0 -8 -8 -8h-4zM44 401q1 -8 8 -8h4v4q0 8 -8 8h-4v-4z" />
<glyph unicode="o" horiz-adv-x="756" d="M-7 642q0 7 4 55l-4 27l28 77q9 44 40 109l12 -9q23 25 23 36h-7l-8 -4l-4 9q53 99 91 99v-4q-16 -20 -16 -23v-4q5 0 64 68h4v4h-4q-12 0 -12 -13q-8 0 -8 9q7 0 36 45q28 14 56 41l23 4v-9q14 0 32 14h4q6 0 16 -18l-44 -46l32 23q0 -9 12 -9v-4q0 -14 -16 -14 q0 -9 12 -9v-5l-40 -41h4q45 41 64 41v-4q-6 -14 -56 -46v-4h4q7 4 16 4v-9l-8 -13v-5h8q44 18 48 18q0 9 32 28q10 -10 16 -10q2 0 16 5q63 -48 107 -68q80 -92 80 -218q-4 -8 -4 -18l4 -9l-4 -9q0 -5 4 -5l-4 -22v-14l63 73q4 0 4 -5q8 0 28 36l56 59q17 32 24 32l4 -9 v-14l-44 -77h4q5 0 32 28l4 -10l-12 -18h4l12 9q0 -4 4 -4q0 -20 -32 -41l4 -9v-5q-28 -31 -48 -77v-4h4q8 4 12 4v-4q-139 -181 -183 -191q-100 -68 -163 -68q-22 0 -76 5q-41 -14 -111 -14q-37 5 -155 82q-84 49 -84 149zM184 583q4 -36 12 -36h8q104 20 163 68 q100 112 100 222q0 93 -64 177h-4q-30 -21 -56 -50v-4l8 4h4v-4q-115 -128 -147 -250q-20 -67 -24 -127zM188 973l72 87q-15 -5 -68 -73h-4v-14zM232 1010h12v9h-4q-8 -2 -8 -9zM252 1159l8 5l4 -9v-5h-4q-8 0 -8 9zM284 1078q19 12 19 18h-7q-6 0 -12 -14v-4zM327 1091 q7 5 16 5l-4 9q-7 -5 -12 -5v-9zM367 973v9q7 0 20 14h4v-9q-7 0 -20 -14h-4zM717 619h4q24 20 24 28q-28 -16 -28 -23v-5z" />
<glyph unicode="p" horiz-adv-x="734" d="M-246 -154q34 78 49 93q-4 7 -4 15q8 1 34 56q-4 7 -4 11q6 0 18 49q68 148 161 453q60 189 60 411q4 0 4 11q-7 0 -19 34q4 0 4 4q-11 0 -11 7v4q0 5 11 11h19l18 -4q104 97 258 97h12q209 0 299 -314q7 -30 7 -37q-35 -70 -45 -71h-7v-8l4 -7l-8 -4q0 4 -4 4v-4l4 -7 q-21 0 -26 -34q-26 -16 -26 -26l-15 -15l4 -8q-77 -63 -90 -63v-4h7q144 75 202 135q62 59 105 93q2 0 15 4q0 -6 -8 -22l4 -8l-11 -19q4 -7 4 -11q-10 -1 -75 -86q-35 -26 -41 -26l3 -8q4 0 68 45h3v-11q-12 -34 -52 -56q-35 -24 -202 -116q-18 -26 -75 -52q0 -19 -33 -19 q-16 -22 -34 -22v3q-19 -15 -30 -15q-100 45 -116 71l-11 8q0 -6 -30 -23q-59 -193 -131 -359q-39 -113 -52 -115l4 -8q-11 -30 -27 -41h-3v4l18 37v23q-8 -2 -18 -34h-4v7h-4v-15q0 -18 -22 -37h-8q0 13 12 26l-4 8l-8 -4l-7 4q-4 0 -26 -19q-4 0 -4 4l-8 -4h-3q-8 0 -8 11 q4 15 15 15q-7 9 -7 23h-4q-26 -41 -41 -49h-4l-11 7l-8 -3h-11q0 -6 -11 -12h-4q-5 0 -11 12zM-209 -139v-4q8 0 8 7v4q-8 -1 -8 -7zM-190 -94l8 -4q11 18 11 30h-8q0 -15 -11 -26zM-186 -46v-7q11 0 11 -12q11 0 15 30q-11 -11 -26 -11zM-175 -23v-4h4q0 4 4 11v4h-4 q0 -4 -4 -11zM-145 -102h4q6 0 15 15h-4q0 3 15 34h-8q0 -9 -22 -49zM-134 -117v-7h8q0 9 7 18l-7 4q0 -6 -8 -15zM-123 -87v-7q8 3 12 3v8q-8 -4 -12 -4zM-119 -31v-4q4 -7 4 -11h4l3 15h-11zM-115 -80h7q0 6 15 30q0 8 -7 8q-15 -24 -15 -38zM-108 -16v-4h4q0 6 8 15h-8 q0 -4 -4 -11zM-93 14q6 0 12 11v4h-4q0 -8 -8 -8v-7zM-85 -94v-8h7q7 0 15 41q3 0 15 23v3h-4q-17 0 -33 -59zM-44 -5v-7h4q0 8 3 15h-3zM-40 100h3q7 0 15 37v4h-3q0 -12 -15 -34v-7zM1 107h4l3 8v4h-3q0 -4 -4 -12zM12 134q8 0 8 7v4h-8v-11zM20 152q7 0 7 12v3h-4zM23 74 q4 -7 4 -11h7q0 8 4 15v3h-4v-7h-3l-8 4v-4zM184 466q110 64 266 225q89 114 89 168v15q-12 67 -89 67q-151 0 -229 -82q8 -107 8 -157q0 -83 -45 -236zM292 437h12q0 7 11 7v4h-4q-12 -8 -19 -8v-3zM337 448q22 7 42 22q7 -1 7 -7q75 30 75 48q5 0 11 12v3q-29 -21 -45 -26 q-19 -21 -41 -30h-4q11 19 23 19v7h-4q-40 -34 -64 -41v-7zM536 582q11 3 15 15v4h-4q0 -7 -11 -7v-12zM584 646q12 11 19 11q0 8 -8 8h-3q0 -6 -8 -15v-4zM599 668h4q19 12 19 27q-6 0 -23 -23v-4z" />
<glyph unicode="q" horiz-adv-x="771" d="M-15 589v56q0 9 4 16q0 4 -4 4q0 7 7 32l-3 8q62 200 107 228q71 103 201 144q30 8 100 20q66 0 85 -8q4 0 4 4q107 -17 107 -40q8 -1 8 -8v-8l-4 -8l8 -4h3q23 16 60 16q18 -5 18 -12q-7 -1 -7 -8v-4q18 0 30 -28v-12q18 -5 18 -12q-41 -26 -41 -56q-3 0 -3 -4h7 q7 4 11 4l4 -8q0 -8 -19 -8v-4h8q0 -21 -67 -108l-4 8q13 6 22 44q-17 -13 -48 -80v-4l19 12v-4l-34 -60l-7 4q-28 -26 -145 -328h-7v16h-8q0 -7 -14 -44h7l11 8h4v-4q-26 -15 -26 -20q-22 -45 -22 -64v-8q31 20 48 52v4q-11 0 -11 8q33 64 41 64q9 0 29 28l-4 20 q43 81 86 144q59 96 219 260q0 23 100 120h4l11 -8l7 4q7 -4 15 -4v-8q-14 -28 -19 -28l4 -20l-55 -68q0 -8 -45 -40q0 -6 -11 -20q0 -9 -41 -68l-48 -64q0 4 -4 4q-48 -71 -48 -84q-19 -11 -19 -40h-3l-8 4l-11 -20v-4h4v8h7v-4q-41 -29 -93 -144q-25 -48 -29 -48h-4v12h-7 q-37 -65 -37 -72h7q29 56 33 56h4v-8q-70 -111 -74 -156q-9 -8 -15 -8l4 -8q0 -11 -37 -68l-38 -80l4 -8v-4q-16 -14 -52 -128q-22 -52 -26 -52h-3q0 8 -4 8q-45 -16 -52 -16q-7 4 -11 4v-20q0 -8 -8 -8l-3 8v20h-4l-7 -4l3 -8q0 -6 -11 -12q-4 8 -4 12q-7 0 -7 -12h-4 q-11 0 -11 44q41 179 67 264l7 4l-3 8v16l89 288q115 338 248 564l8 12v8q-44 8 -56 8h-41v-4h45v-8h-8q-61 0 -70 -20v-4q7 4 37 8v-8q-66 -6 -182 -92q-103 -114 -126 -196q-3 0 -15 -32l4 -8q-11 -19 -11 -72v-24q0 -12 15 -12q62 0 137 36v-12q-22 -20 -37 -20v-4h7v-8 q0 -8 -7 -8q-4 0 -4 4q-16 -4 -22 -20l18 4h8v-4q-11 -15 -11 -20h-4l-8 4q0 -6 -14 -16l-19 4l-4 -8l8 -4h18v-8q-14 0 -37 -8h-15v-8h-11q-80 43 -133 116q-30 53 -30 72zM119 597h7q0 4 4 12h-11v-12zM174 -135v-4q9 0 11 20v8h-3q0 -15 -8 -24zM178 -79l7 -4v12 q-7 -1 -7 -8zM189 -63v-12h4q7 0 7 8v4h-11zM204 -19v-4q5 0 11 12h-4q-7 -1 -7 -8zM219 45h7q0 8 8 8v12h-4q0 -12 -11 -12v-8zM245 -23h7q0 12 8 12l-4 8v4q22 0 22 16h4v12l-8 -4h-7v8h-7l3 -8q0 -6 -11 -12l4 -8q-11 -18 -11 -28zM267 37h4q8 8 22 8q0 8 -11 8v4 q17 0 22 16v8l-11 -8l-7 4q5 28 18 52h-15zM267 465v8h11v-8h-11zM293 141l7 -4h4q0 16 8 16l-4 8l4 8h-4q-6 0 -15 -28zM293 525v8h4q7 -1 7 -8h-11zM304 113q20 19 26 56h7v-16q11 0 23 48h-8q0 -24 -18 -24q0 4 -4 4l-26 -64v-4zM304 181h4q5 0 11 12v8h-7q0 -10 -8 -20z M326 237q6 0 11 12h-3q-8 -1 -8 -8v-4zM334 261h7q0 12 8 12q-4 8 -4 12h-8zM349 249l14 16q0 -4 4 -4v8q-7 0 -7 8q-8 0 -11 -28zM349 297l7 -4q0 20 7 48h-7v-12q-7 -28 -7 -32zM360 213q3 -8 3 -12h4v12l-7 4v-4zM363 297q6 0 15 16l-7 4l-8 -12v-8zM363 353l8 -4v12 q-8 -1 -8 -8zM382 341h4l7 24q-8 0 -11 -20v-4zM382 405q8 0 11 20q-8 0 -11 -20zM393 105h4q7 0 7 8h-3q-8 -1 -8 -8zM401 313v8q1 8 7 8h4q-6 -16 -11 -16zM415 181h4q7 0 26 36v8h-7q0 -17 -23 -44zM419 397h11v8q-4 0 -11 4v-12zM427 417h11l-4 20q4 0 4 4h-8 q-3 -21 -3 -24zM453 369q7 0 7 8v4q-7 -1 -7 -8v-4zM490 497v4q4 20 11 20h3v-4q-7 -18 -14 -20zM490 569h7l4 20q-6 0 -11 -12v-8zM523 573v12q7 -1 7 -8v-4h-7zM597 461v4q4 8 4 12h7v-4q0 -6 -11 -12z" />
<glyph unicode="r" horiz-adv-x="364" d="M-28 572l4 10q0 5 -4 13q0 281 290 466q92 37 136 37q59 0 97 -18q1 9 8 9h4q6 0 12 -14q-4 0 -4 -5h4l24 5q1 -14 40 -37l4 -9q-4 0 -4 -5l-48 9l-8 -4q-8 4 -12 4l-4 -9l-20 5h-20l4 -9q0 -10 -32 -14v-9l8 4l4 -9q-20 -6 -20 -14l-9 5l-20 -19h-4v10q-21 0 -88 -47v-4 h8q1 9 8 9h8q-34 -46 -48 -46l4 -9l-44 -60h4l40 37h4v-10l-57 -69v-4l21 18h4v-5q-85 -104 -85 -253q0 -46 20 -138h-12l-8 4q0 -9 -8 -9q-4 9 -4 14q-6 0 -12 -14l-20 5h-4q-9 0 -16 -5q-28 5 -52 32q-9 -1 -9 -9q-64 0 -72 111h4q-11 19 -16 50zM233 789q7 0 17 19v4 q-7 0 -17 -18v-5zM274 798v5q0 6 24 28h4q0 -7 -28 -33zM302 909q8 0 8 9v5q-8 -2 -8 -9v-5z" />
<glyph unicode="s" horiz-adv-x="553" d="M-126 476q0 7 52 16q4 0 12 -4l8 4q8 -4 12 -4l8 4q4 0 4 -4q167 20 240 52q80 24 80 80q-33 16 -48 16v-8h-8l-12 8l-4 -8q10 0 20 -8h4v8l24 -20v-4q-109 20 -196 64q-36 37 -40 76q-7 0 -12 36q-32 32 -32 72l4 8l-4 8q20 76 32 76v-20q4 0 12 16q8 -4 12 -4v8h-8v4 q5 22 56 60q4 0 12 16v4h-4q-64 -52 -64 -68h-8v8q110 128 192 128h72q90 0 164 -84v-8h-4q-8 4 -12 4q12 -20 24 -20v-4l-8 -12l4 -8q-8 -1 -8 -8l8 -12q-6 0 -12 -12l8 -16l-12 -8q-36 16 -88 28h-4v-4q20 0 20 -16h8q31 0 36 -16v-4q-46 12 -64 12q-123 0 -212 -100 q240 -74 240 -160l8 -4q118 99 172 196q5 0 28 28q20 0 20 16h12l4 -16q-23 -88 -44 -88v-12h8q2 16 12 16l4 -8q-17 -28 -32 -40q10 -8 20 -8q-42 -41 -44 -56h4l8 4l4 -8q-32 -36 -36 -36l4 -8q-156 -164 -244 -164v-4l4 -8q-77 -32 -92 -32l-8 4q-8 -7 -72 -12q-4 0 -4 4 l-92 -16h-28q-10 -8 -16 -8q-44 14 -44 24zM602 792q6 16 12 16h4v-4q-6 -16 -12 -16q0 4 -4 4zM614 896q5 20 12 20v-4l-4 -20l8 4v-12h-4q-6 0 -12 12z" />
<glyph unicode="t" horiz-adv-x="254" d="M-62 1459v14q0 5 12 9q5 -3 8 -3l6 3q16 -9 50 -15l-15 12l-6 -3q-13 9 -26 9v3q1 6 6 6q11 -9 38 -12l6 3q0 -5 142 -15h9q7 0 12 -3l5 3q6 -3 12 -3q39 88 44 88q0 3 3 3h3v-6h3q0 4 8 14q1 11 12 18q6 -3 9 -3q0 4 11 12v-6q0 -14 -14 -35q0 -16 -24 -56h3 q0 -5 -14 -23v-6h3q6 0 11 3q5 -3 12 -3h3l12 12v-9h5q0 9 6 9v-12h61q118 0 292 9q3 0 8 3q3 0 3 -3l21 3h40l15 3v-3l12 6q2 0 2 -3q35 6 97 6h29l14 3v-3q220 17 393 35h18l9 5l14 -2q19 5 26 5h15q6 -1 6 -5q-3 0 -3 -3h3q14 0 14 11h9q28 6 151 21q6 -3 9 -3q1 6 6 6h3 l17 -3q12 6 32 6h3q0 -11 12 -18q-3 0 -3 -3q-15 9 -29 9h-3q-6 -1 -6 -6q10 0 15 -3l6 3q8 0 8 -12q6 0 35 6l6 -3q12 5 55 12q3 0 9 -3l38 6l6 -3l17 9l6 -9l-12 -12q-5 3 -8 3q0 -6 -6 -6q-3 0 -3 3q-25 -6 -29 -6v9h-9l3 -6v-3l-15 -2l-5 2q-10 -5 -15 -5q0 5 -6 5h-6 q0 -11 -17 -11q-3 0 -9 3q-5 -3 -9 -3q0 3 -2 3l-3 -6l-15 9q0 -2 -3 -12q-17 0 -55 -6v6h-6l-9 -6l-8 6q0 -9 -9 -9q-6 3 -9 3q0 -5 -41 -11l-20 2q0 -6 -61 -11v3q-15 -6 -47 -9q0 3 -3 3q0 -6 -6 -6h-26l-17 -3l-6 3q-34 -9 -76 -14l-6 2q-23 -5 -52 -8q-6 3 -9 3 q-5 -3 -8 -3l-6 3q-32 -6 -32 -12h3q24 0 46 6q3 0 3 -3q36 4 41 6l6 -3q20 3 26 6q6 -3 9 -3q1 6 5 6h32q0 -6 -20 -9l-6 3q-14 -6 -43 -9q-3 0 -3 3q-26 -3 -38 -9l-6 3l-6 -3l-14 3l-3 -6q3 0 3 -3q-8 -6 -29 -8q0 2 -3 2v-8q25 3 32 8h5q3 0 3 -2l6 2q3 0 3 -2 q31 5 61 5q0 -3 3 -3q0 7 41 9q5 -3 12 -3q0 6 8 6q52 0 61 9l15 -3q21 6 82 12l2 -6q-2 -3 -23 -3l6 -9l-6 -3q-3 9 -6 9q-9 0 -58 -6v3l-58 -12l3 -5l-6 -3h-9q0 5 -9 8l-5 -3h-6q-24 0 -105 -11v-3h9v-6h-3q-7 0 -12 3q-5 -3 -11 -3q0 6 -6 6h-6q-30 0 -41 -9 q-14 0 -14 6q-12 -3 -21 -9h-3l3 6l-61 -6l3 -6v-2h-18l-11 8l-18 -3l3 -5l6 2h6v-5q-7 0 -12 -3l-14 3l-6 -3l-23 6q-14 -6 -30 -6l-5 3l-15 -6q-6 3 -9 3q-5 -3 -8 -3v-3h11v-3l-3 -6l29 -3h3v-6l-26 -2q0 2 -3 2q0 -4 -43 -11q-57 3 -62 9l-5 -3h-9q0 -5 -29 -9q0 3 -3 3 q0 -6 -6 -6q-6 3 -9 3q0 -6 -6 -6q-7 6 -11 6l-6 -3q-3 0 -3 3l-20 -3h-29q-3 0 -24 -6h-84q-7 0 -12 3q-5 -3 -9 -3q0 6 -5 6h-9l-12 -9h-3l-11 9h-6l3 -6v-3q-13 0 -18 -3q-5 3 -8 3q-7 0 -12 -3l-20 3l-41 -3v3q-6 -3 -9 -3t-9 3l-14 -3q-5 3 -12 3q-10 -11 -20 -43 q-10 -3 -12 -3l-3 5q6 0 6 6l-3 6q10 6 15 6q0 4 -9 9q-6 -3 -9 -3v3l-6 -3h-3v14h-5l-6 -3q0 3 -3 3l-3 -6v-2l6 -9q-16 0 -21 -26h-2l-6 3q0 -6 -6 -6q-3 5 -3 8h-3l-3 -11q6 0 6 -9h6q0 12 6 12l8 -15v-3l-5 3q-5 0 -12 -14l3 -6q-15 -25 -15 -35v-6q1 -6 6 -6 q-3 -5 -3 -11q-3 0 -3 2q-12 0 -20 -40l-12 -15l6 -9q-3 0 -3 -3l-6 3h-6v-3h9v-8l-9 6h-2v-12h2l6 3l3 -6q0 -14 -23 -26l-3 6l3 5h-6q0 -10 -17 -17v-6h5v6q6 0 6 -12h3q2 15 9 15v-3l6 3h3v-15q0 -5 -6 -5l3 -6q0 -5 -9 -27q0 -2 3 -2q-6 -29 -6 -32v-3h3q0 5 12 14l-3 6 l20 15h3v-6h6v6h6l5 -3v14h-8v9l6 -3v6l-6 9q1 5 6 5q5 -9 5 -14l6 3h3q-17 -108 -23 -108q0 -3 3 -3q-29 -107 -50 -317q0 -3 3 -3l-3 -29v-64l-3 -6h6q55 80 108 145h9v-11q-9 0 -12 -15h3l41 56h3v-12h5l-11 -20v-3q3 0 14 14h3q6 -1 6 -6q-17 -19 -17 -35l-6 3l-3 -6 q3 -5 3 -11q1 0 17 17l6 -3q-6 -14 -9 -14l3 -6v-6l-9 -14v-9h-2l2 -6q0 -4 -17 -14l3 -6v-3h-3l-6 3q-116 -175 -163 -175h-6q-9 0 -52 26q-15 0 -26 3v-3q-24 10 -24 15v140l3 17l-3 6l3 6q-3 5 -3 8q6 0 6 6v15l-6 -3h-3v3q9 9 9 14l-3 6q3 5 3 12q-3 5 -3 9q8 0 9 11 l-6 44q6 3 9 3v6l-3 14q6 0 6 6l-6 9v3q6 0 6 17h-3v9h9v9l-3 14l9 6l-3 6q5 20 5 35q-5 0 -5 6l5 2q0 -2 3 -2q3 26 9 34h-3l-6 -2v2q1 6 6 6l-3 15q0 6 9 6v3l-6 8v12h6v-12h3q0 9 6 24l-3 5q9 17 9 30h-6v8h3l5 -3v24l-5 3q0 15 49 177h6l-3 -14v-3h6q0 13 14 35v5 l-17 -14h-3v6l18 26q-6 0 -6 6q3 3 14 26h9v6q-9 0 -9 6q8 17 12 17l-3 6q1 6 6 6h3v-6h6v6h-6q1 6 6 6q0 -6 5 -6q6 9 6 17q-192 24 -192 50q-16 25 -20 46q-9 0 -9 6l6 9q-4 0 -9 9zM-42 1502l6 3l3 -6l-6 -3zM-10 681v6h9v-6h-9zM57 1036q6 0 6 6v3q-6 -1 -6 -6v-3z M63 885h3v12h-3v-12zM69 1077h3q0 10 3 15h-6v-15zM84 710h2q0 2 3 18q-5 -1 -5 -6v-12zM84 739q0 -5 5 -5l3 5l-6 3h-2v-3zM89 1013h3q1 20 15 20l3 6h-3q-6 -3 -9 -3v3q2 15 9 15q-3 6 -3 9q6 9 6 14h-9q0 -11 -12 -58v-6zM89 1153h3l6 17l-6 3l-3 -17v-3zM92 777h3 q6 0 6 6v3h-3q-6 -1 -6 -6v-3zM98 1176h6v3q0 6 -6 6v-9zM104 1080h6q6 19 6 23h-6q0 -7 -6 -14v-9zM110 891l11 9q-2 5 -2 8h-3q-6 -1 -6 -6v-11zM113 1106q2 0 8 9q6 -3 9 -3v6h-6v9l15 14h3v-3q-6 -20 -6 -23v-6h6q0 7 11 41h-2q-6 -3 -9 -3q-6 3 -9 3q9 7 20 35h-8v12 q1 5 6 5v-5l-3 -6h8v3q-5 9 -5 17q1 18 8 18l3 -6l-9 -18h12v-6q4 1 18 35h-3l-12 -11l-3 6q9 14 9 23v6l-6 8v3q10 14 15 44q6 1 14 26h-6q-8 0 -26 -70q0 -2 -9 -8q3 -6 3 -9q-4 0 -11 -21q3 0 3 -2q-3 0 -9 -9q3 -6 3 -9q-24 -58 -32 -105zM116 798h8v3q-3 0 -8 2v-5z M116 1033h5q0 3 3 18h-8v-18zM121 958l6 -3q1 6 6 6l6 -3v14h-3q0 -5 -3 -5h-9q0 -4 -3 -9zM121 1054h9q6 0 6 6v3q-5 0 -12 5zM124 1252h6v9h-6v-9zM127 949q0 -4 9 -9h3v3q-4 0 -12 9v-3zM136 1068h6v12h-6v-12zM139 911h3q6 0 6 6q-3 0 -9 3v-9zM148 524q2 0 40 52v3 q-3 0 -40 -52v-3zM148 1336l5 3h3v-3q0 -6 -5 -6zM151 1153q5 0 5 6v8q-5 0 -5 -5v-9zM156 1001h3q6 0 6 6h-9v-6zM156 1243l12 9l3 -6l-12 -9zM174 1077v3h3q6 -1 6 -6v-3h-3q-6 0 -6 6zM177 1264q6 0 6 5v6q-6 -1 -6 -6v-5zM185 1095v3q1 5 6 5h3v-8h-9zM185 1290 q4 0 18 32v11q-3 0 -18 -35v-8zM188 1071q6 3 9 3l-6 9q9 0 9 9h6v-3q0 -6 -6 -6l3 -6v-6q0 -5 -6 -5h-3q-6 0 -6 5zM188 1170v3q8 0 21 21q17 3 17 8v3l-8 -6h-3v9q1 6 5 6l12 -9h3l-3 6v6h6v-9l6 3v-3q-8 -32 -12 -32l3 -6q-16 -43 -23 -43l3 -6l-3 -15q-21 3 -21 9v3h6 v-6q6 0 6 6v3l-12 9v5h15q0 6 17 21q-8 0 -8 9l-15 -3q0 7 -12 8zM191 1243q6 0 6 9v3h-3zM194 518q5 0 9 12v3h-3q0 -5 -6 -12v-3zM206 1234v9h6v-9h-6zM209 1467q8 0 17 21v3q-3 0 -8 3q-9 -24 -9 -27zM215 547h5v9q-5 -1 -5 -6v-3zM218 1182h5v9q-5 -1 -5 -6v-3zM223 553 h3l12 26h-6q0 -10 -9 -17h3l-3 -6v-3zM226 1508h3q0 3 3 9v6h-3q0 -7 -3 -12v-3zM229 1298v3q1 6 6 6h3l-3 -6v-5q6 0 9 23h6q4 0 11 -15q0 -4 -17 -11h-9q-6 0 -6 5zM232 1240q6 -3 9 -3q1 6 14 12q0 -3 3 -3l-11 -29q-15 0 -15 23zM235 1252v3q1 6 6 6h3q0 -5 -9 -9z M247 538q0 5 8 9v-3q0 -6 -5 -6h-3zM247 687l5 9q6 -3 9 -3v-3q0 -4 -9 -9q-5 0 -5 6zM247 1569v3q1 6 5 6h3v-9h-8zM250 1261v5l5 -2h3v2q-8 0 -8 21q6 0 11 3l3 -6q-6 -1 -6 -6v-3h6v-11q0 -5 -9 -9q-5 0 -5 6zM255 547v3q1 6 6 6v-3q0 -6 -6 -6zM255 655h6q6 3 9 3 q0 -3 3 -3l3 6h-6l-15 -3v-3zM258 1485v3q14 31 18 32h3v-9q-9 0 -9 -15h6q5 24 11 24q6 -3 9 -3v-6h-9v-6q9 0 9 -6q6 0 6 9h6v-3q0 -4 -12 -11q0 2 -3 2q-4 -11 -9 -11h-2v6l-9 -6h-3v9q-6 0 -6 -9h-6zM261 1328q6 0 6 8h3v-8q4 0 9 8v3h-3l-6 -3v6h-3q0 -6 -6 -6v-8z M261 1598v3q1 6 6 6h3v-9h-9zM273 1590v3q1 5 6 5l3 -5l-6 -3h-3zM276 1636v3h6v-9q-6 0 -6 6zM290 1552v3q1 6 6 6v-9h-6zM290 1604v3q11 26 15 26l6 12v3h-3q0 -12 -9 -12v9q0 4 9 9l6 -3l3 6v5h-6v6l6 9q0 6 -9 6v6h3l6 -3q15 26 32 26l2 -6q-18 -43 -26 -44v-14 q-17 -15 -17 -18q3 -5 3 -11q-10 0 -12 -12q-6 -3 -9 -3zM293 1479v12h6v-6q0 -6 -6 -6zM299 684v12h6q0 -7 3 -12h-9zM299 1677q1 6 6 6h3q0 -6 -6 -6h-3zM314 1528v3q10 27 14 27h3v-6q-11 -24 -14 -24h-3zM331 1636v6q8 18 12 18v-3l-6 -21h-6zM343 1590v3q4 11 8 11 q0 -3 3 -3q-4 -11 -8 -11h-3zM346 1668v3q1 6 5 6v-9h-5zM351 1677v6q1 6 6 6h3v-3q0 -4 -9 -9zM640 1365h3q5 0 5 6v3h-2q-6 -1 -6 -6v-3zM651 1371l21 -3q6 0 11 3q5 -3 12 -3h3v3l-15 3h-20q-3 0 -3 3q-6 -3 -9 -3v-3zM698 1380q1 -6 6 -6v3q0 6 -6 6v-3zM727 1371 q5 3 12 3v6h-3q-6 -3 -9 -3v-6zM750 1368h3q4 0 24 9v3l-12 3l-15 -12v-3zM820 1386q1 -6 6 -6h12q0 6 -6 6h-12zM861 1409q5 0 12 -6l3 6l-6 3h-9v-3zM902 1374q0 4 9 9q2 0 2 -3l6 3h3v-6zM913 1412q9 0 9 -3q5 3 18 3v3q-12 0 -24 3zM943 1374v12l5 -3q5 3 12 3v-3 q-3 -6 -3 -9h-14zM943 1412h20v3h-20v-3zM966 1383v6q6 0 11 -3q6 3 9 3v-3q0 -6 -6 -6zM969 1415h23q-12 10 -12 14h-5q0 -8 -6 -8v-6zM995 1421q1 -6 6 -6h11q0 9 3 9q-3 5 -3 8h-8q0 -8 -9 -8v-3zM1004 1438h3l14 3q0 -3 3 -3v6h-20v-6zM1018 1427q3 -6 3 -9h3l15 3v-3 q3 0 3 3l14 -3q40 6 44 6v11l-3 6q-5 -3 -18 -3v-3l3 -6l-8 -5h-3q-19 0 -38 8q-10 -5 -15 -5zM1036 1441h14v6q-5 -3 -14 -3v-3zM1056 1479q3 0 9 -3v6h-9v-3zM1100 1473h6q5 0 5 6h-11v-6zM1106 1435q11 0 11 -3q5 3 15 3v6h-3q-3 0 -23 -3v-3zM1161 1479h12v3h-12v-3z M1178 1482h3l27 3v3q-15 0 -15 6v2h-3q-4 0 -12 -14zM1205 1438v6h8v-6h-8zM1210 1485h6l18 3v-3q3 3 20 3v3q-6 0 -12 3l-5 -3l-15 3q0 -6 -12 -6v-3zM1269 1494h8q0 8 9 8v3h-9q-4 0 -8 -11zM1280 1462l6 2h15v-5q-13 0 -18 -3zM1301 1496h23q0 12 20 12v3h-3 q-18 0 -40 -9v-6zM1307 1464v3l14 -3q0 -5 -6 -5h-3q-5 0 -5 5zM1321 1464q1 6 6 6h9q3 0 3 -3q17 6 23 6v-6l-21 -3h-20zM1356 1511h6v-3l-3 -6h6q6 0 11 3q3 0 3 -3q11 3 27 3q0 6 -18 6v6h3l6 -3v6h-12l-6 -3l3 -6v-3q-22 6 -23 6h-3v-3zM1368 1467v6q12 0 23 6 q0 -6 9 -6q0 -6 -6 -6l-9 6q0 -6 -6 -6h-11zM1406 1473v6h11v-6h-11zM1406 1523h8v-6l-6 -9h41l9 6h12q2 0 2 -3q16 6 70 12v-3q11 5 29 8q6 -2 12 -2h3q6 5 23 5q0 6 -5 6h-9l-6 -3q0 6 -6 6l-9 -6h-3l3 6v3l-17 -3q-6 3 -9 3l-6 -9l3 -6l-6 -2q-2 5 -2 8h-6l-9 -6l-20 3 l3 -5v-3q-7 0 -12 3q-23 -9 -29 -9q-3 0 -3 3l-6 -3h-3v6q-6 0 -6 -9h-23q0 12 -15 12h-2v-3zM1446 1476v6h9v-6h-9zM1461 1523h9v5h-9v-5zM1464 1456v6h11v-6h-11zM1481 1482v6h15v-6h-15zM1484 1456v8h3q6 0 6 -5l-6 -3h-3zM1502 1459v3q0 5 8 5q6 -3 9 -3v-2zM1510 1540 l18 -3l3 6h-21v-3zM1528 1464v6h3q3 0 3 -3l5 3h3v-6h-14zM1595 1473v6h20v-6h-20zM1618 1561l6 2h9v-5h23l-3 5l6 3h3q0 -8 8 -8q21 4 21 11q11 -3 20 -3v-5h-20q0 -9 -6 -9q-6 3 -9 3q0 -6 -6 -6q-5 3 -8 3l-6 -3q-5 3 -12 3q0 -7 -11 -12h-3v6q8 0 8 6q-20 0 -20 9z M1732 1558l14 3v2h-14v6q2 0 17 3l3 -6q-4 -14 -9 -14h-6q-5 0 -5 6zM1772 1563h18q0 -5 -6 -5h-6q-6 0 -6 5zM1790 1563q1 6 6 6h3v-6h-9zM1842 1552v6h9v-6h-9z" />
<glyph unicode="u" horiz-adv-x="647" d="M-18 683v4q7 9 20 93l8 4l5 -8q-5 0 -5 -4q13 0 13 -44h4q0 7 12 24h8v-8h8v12q0 4 8 33v12q9 0 21 32l-4 8q12 21 12 29h8q0 -4 4 -12q0 -29 -12 -29q4 -16 4 -28q5 0 28 69l-4 20q6 6 25 61q5 0 16 33q6 8 12 8q0 7 -8 24q13 0 24 37l13 -8h4v8h-12q28 15 28 24 q0 11 41 45h4v-4l-8 -12v-4h8v-8h-16q0 -3 4 -25q-53 -108 -86 -268q8 -2 8 -8q-8 -17 -8 -25q8 -1 8 -8l-12 -16l4 -8q-6 0 -12 -13q8 -1 8 -8q-8 -15 -8 -32v-57q12 -15 12 -29v-4l-8 -12q10 0 20 -53h4q28 33 37 37q24 36 41 36h4q0 -4 4 -4q55 65 65 131q30 46 57 195 q8 0 16 73l16 41l17 36q-4 0 -4 4l8 4q0 -4 4 -4q0 13 8 13h4q16 -17 29 -17q7 4 16 4l16 -16v-36h8q0 20 29 20h4v-16q0 -10 4 -17q-4 -8 -4 -12q0 -8 4 -8l-4 -29v-24l4 -24q-25 -151 -49 -220q4 -7 4 -16l-8 -4l4 -8q-12 -27 -20 -86q36 56 101 199q20 25 37 33 q22 52 45 73q0 -4 4 -4q-8 -13 -8 -20l16 12l4 -8q0 -8 -8 -8l4 -8l-12 -17q4 0 12 -4q-8 -13 -8 -20h-8v12h-8l-5 -24q13 0 13 -8q-14 -13 -29 -53q8 -14 8 -25q-4 0 -4 -4h8q0 -29 -48 -134q-77 -125 -102 -138q-37 -17 -57 -17v4q-8 -4 -12 -4q-72 21 -86 21h-4 q-58 -41 -126 -41q-59 0 -130 49q-98 19 -98 97q0 6 -12 25q3 0 12 12q-8 16 -8 29h4q-8 16 -8 24l4 41q-8 0 -8 8zM19 687h4q8 0 8 8t-8 8q0 -9 -4 -16zM35 780v4q15 25 20 25v-8q0 -8 -8 -8l4 -9v-4h-16zM43 699h4l4 20q-8 -1 -8 -8v-12zM43 817v8h8v-16q-8 0 -8 8z M84 634q1 -8 8 -8v12h-8v-4zM88 748q4 -8 4 -12h4v16zM88 768l8 -4h4v12l4 21h-8q0 -13 -8 -29zM92 898v4q0 7 16 17h4l4 -29l-16 -12h-4z" />
<glyph unicode="v" horiz-adv-x="509" d="M-38 957h11l26 -22v-8h-11q1 -7 7 -7q7 3 11 3q1 -7 8 -7h3q0 12 4 19q-18 9 -18 14l3 8q-17 29 -22 29v19q1 7 8 7q-3 34 -23 85q3 22 11 22h8q82 -137 144 -280q4 0 7 -12l-7 -3h-4v11h-4v-4q43 -121 52 -173q-7 -2 -7 -8v-4h7q59 146 141 388q9 34 25 52q6 0 41 -11 q19 7 30 7q22 -23 22 -33h3l8 4q0 -4 15 -15l7 4h4q11 -10 44 -15q33 -159 44 -192h-7q0 11 -8 11q0 -12 -7 -19l37 -92q-4 -7 -4 -11l-18 4l4 -8v-3q0 -8 -8 -8h-7l-22 4q-23 -7 -34 -15q-47 46 -66 107h-11q-28 -43 -63 -122l4 -7v-7q0 -8 -8 -8l4 -18q0 -13 -52 -93 q0 -8 -3 -14l-8 3h-3q0 -4 -4 -11v-7h4v11h7v-7q-9 -23 -11 -23h-11v-7h-4l-7 4l-4 -8l4 -7q-6 -15 -11 -15l3 -7v-4q0 -8 -3 -15q3 -6 3 -14v-4q-12 -26 -18 -26h-19q0 -11 -7 -11q-89 11 -89 22v4l-18 -4q-11 0 -81 321l3 19q-5 0 -11 11q8 0 8 7l-41 119q7 0 7 7 q-18 42 -18 63zM-1 983q1 -8 7 -8v15h-7v-7zM17 890h4q7 0 7 8v7q-5 0 -11 -11v-4zM25 942q3 -7 3 -11h4q0 8 4 15h-11v-4zM28 927q2 -7 8 -7h4v7h-12zM265 517q1 -7 7 -7l4 7h-11z" />
<glyph unicode="w" horiz-adv-x="931" d="M-33 790q6 29 12 29h17l8 -4v4q-4 8 -4 12h8q0 -12 9 -12h12l-8 12q8 0 8 9v4h-8l-8 -4l-5 8l9 4q0 -4 4 -4q0 12 12 12v9l-8 -5q-8 0 -8 9q9 0 12 16h4q0 4 -4 33l8 17q17 0 17 -21l16 13l-4 8v8q21 0 21 25v8q-4 0 -4 4q21 3 21 25q-9 0 -9 -12h-8q3 62 12 62h9l-4 -21 v-8h4q12 58 29 58l4 -8q0 -5 -4 -13q4 -22 4 -25q-10 -74 -13 -74l5 -8l-9 -17l4 -8l-4 -8q0 -5 4 -5l-4 -29v-37q0 -9 -4 -16l8 -21l-4 -8l4 -9l-8 -16h8l-4 -21q10 0 25 -37q-16 -4 -16 -25q8 -14 8 -25l-4 -20q9 0 12 -25q-4 -8 -4 -17q1 -8 8 -8l8 4l5 -8q-10 0 -13 -21 l8 4h9q8 -1 8 -8l-8 -4q0 4 -4 4v-4l33 -62h4q88 78 132 298q38 197 38 219q0 4 -5 4q0 46 29 46q0 -5 5 -5q0 6 12 13h12q17 -17 42 -21q0 -7 33 -25q0 -13 25 -16l8 -13v-20q21 0 21 -21q0 -22 -9 -199l4 -58l-4 -8q4 -7 9 -49h-5q13 -82 42 -108l8 -4q95 166 178 443 q9 45 25 45v4q-12 0 -12 9q13 11 28 53q-4 0 -4 4l9 5q0 -6 12 -13q0 14 12 37q17 -6 17 -12q0 -8 -8 -29q0 -12 16 -12v-9h-4l-8 4l-8 -12h12q-8 -70 -12 -70l4 -9q0 -13 -21 -41q4 -8 4 -12q-7 0 -25 -79q-5 0 -33 -87h9q13 50 24 50l4 -8l-4 -9q9 -1 9 -8v-4h-5l-8 4 l-8 -21q4 -5 4 -25q-8 0 -12 -29q8 -1 8 -8l-8 -4q0 4 -4 4l-5 -8v-8l9 4q0 -4 4 -4q-28 -79 -58 -125l4 -8l-17 -29l9 -4q57 42 178 190q34 34 49 34l-4 8q17 15 17 21h8v-13q0 -8 -17 -8l9 -13q-4 -15 -17 -24q4 -8 4 -13q-34 -31 -58 -99q-2 0 -16 -21h4l17 13l4 -9 q-50 -70 -67 -87q9 -1 9 -8v-12q0 -6 -25 -25l4 -8q-36 -27 -50 -46h-111l-195 66q0 5 -37 29q-73 -120 -120 -128q-11 8 -99 21q-7 9 -83 25q-89 57 -145 177l-12 25v9l8 12l-8 12l4 9h-4q0 -9 -9 -9l-4 9v4l13 25q-17 93 -17 99zM-12 794h12v17q-8 -4 -12 -4v-13zM-8 769 h8v13q-8 -2 -8 -9v-4zM0 881l8 4l9 -12h-9q-8 0 -8 8zM4 782q9 -10 9 -17l20 8q-4 8 -4 13l4 21h-16v-9l4 -8q-10 -8 -17 -8zM13 757q8 -14 8 -21h12v4q-8 11 -8 21h-12v-4zM29 703h4q8 0 8 8h-12v-8zM37 823h13q0 12 12 12v9q0 8 -8 8zM46 807q1 -9 8 -9v4q0 9 -8 9v-4z M50 893q4 -6 4 -24h4v41h-4q0 -9 -4 -17zM54 773q8 0 8 9l-8 4v-13zM58 811h17q0 8 -9 8h-8v-8zM66 964v8h9l4 -17h-4q-9 0 -9 9zM145 678v4h4q8 -1 8 -8v-4h-4q-8 0 -8 8zM753 687q6 5 21 37l-8 4zM770 666q1 -8 8 -8l4 24q-6 0 -12 -12v-4zM778 612q0 7 17 46h8l-17 -46 h-8zM778 707h8v13h-8v-13zM811 823l37 99q3 38 13 38h12v-13q0 -8 -12 -8v-4l4 -8l-8 -5l4 -8v-8q-15 0 -21 -21q8 -1 8 -8q0 -8 -12 -8v-9h21v-8q-14 0 -29 -21l8 -4l12 8l5 -8q-7 0 -25 -16h-4q-6 0 -13 12zM861 976l8 4l-4 9q1 8 8 8q9 -1 9 -8q-11 -21 -17 -21z" />
<glyph unicode="x" horiz-adv-x="582" d="M-24 935q8 0 24 33h17q16 -9 16 -20h8l-16 28v4h4q6 0 12 -12l8 4q16 -8 16 -20h5l20 24l24 -33h4v9q0 11 -8 24l8 4q0 -4 29 -28l-4 -9q22 -32 32 -32q0 -4 -4 -4q37 -54 37 -61q-4 -8 -4 -12l12 -8h4q65 109 146 215q19 0 29 37q13 0 36 36l-4 8l8 4q0 -4 5 -4 q24 36 32 37h4v-12q-8 0 -24 -33h4q17 12 36 29l4 -8q-5 -1 -16 -21v-4l21 21h4v-5l-21 -32q8 -1 8 -8q-4 0 -32 -37l8 -4l53 65q0 -4 4 -4l-37 -53q8 -1 8 -8v-4q-29 -34 -48 -69h4q33 33 57 73h8v-4l-8 -12v-4l8 4l4 -8q-25 -12 -33 -25l4 -8v-4h-4l-8 4v-4q4 -7 4 -16 q-17 -25 -36 -25l8 -12q-25 -32 -25 -36v-8h13q12 19 12 28q8 0 24 24h4v-8h8v8h-8q9 25 17 25v-4q-5 -8 -5 -12h9q0 12 8 12v-8q-3 -11 -41 -45q0 4 -4 4l-4 -8l8 -12q-13 -2 -32 -57q-6 0 -13 -13v-4h4l17 13q0 -4 4 -4l-73 -114q-27 -53 -41 -53q4 -8 4 -12q-4 -8 -4 -13 q64 -77 73 -81q8 4 12 4l4 -8q-4 -8 -4 -12q4 0 4 -4q7 4 17 4v4l-25 32v5h8q0 -11 21 -29h4q10 29 20 29l-4 8q24 27 24 40q19 0 94 106l16 8q0 -4 4 -4q0 6 21 20l4 -8q-13 -27 -25 -40q8 -2 8 -8q-38 -62 -48 -74v-12h4l28 29q8 -2 8 -9q-36 -37 -110 -178 q-44 -56 -89 -70q-7 -4 -16 -4h-4q-55 54 -114 143h-8q-60 -121 -102 -163q-11 11 -81 45q0 17 -45 28q0 4 -37 37v16q57 66 131 203q-87 90 -151 212q-4 22 -4 32zM322 655h8l16 36h-4zM366 728h4q5 0 29 37v4q-6 0 -33 -37v-4zM387 594h4q9 0 12 -21q-8 2 -16 21zM391 830 h8q0 4 4 12v4h-4q0 -6 -8 -16zM407 785q6 0 20 24h-4q-5 0 -16 -20v-4zM415 870h4q8 0 8 8v4q-5 0 -12 -12zM427 939h8l5 17q-7 0 -13 -17zM444 1094h4q0 8 8 8v8q-6 0 -12 -12v-4zM513 984l8 4l4 -8v-8q-6 0 -12 12z" />
<glyph unicode="y" horiz-adv-x="756" d="M-24 723h4l-4 8v17q8 10 8 25h5l21 -29h4q-4 37 -9 46l9 4l8 -12v-30h9q0 4 8 34v63q13 14 13 21h8v-17h4q0 11 9 21l-4 30h-5q-8 -2 -8 -9q4 -8 4 -12l-8 -5l-4 9q0 4 4 4l-4 8v9l29 21h-4q-8 -4 -17 -4l-4 8q4 0 4 4q-4 0 -4 5l8 4q1 -9 9 -9q15 51 25 51q12 0 12 8 q-9 0 -16 4q16 28 16 42h5v-8h8l-4 21q15 0 21 34q6 0 29 25q9 0 9 -13l-38 -176q8 -14 8 -21q-8 0 -12 -55q4 -8 4 -13l-4 -16l4 -30q-4 -8 -4 -13q8 -21 8 -29q-8 -1 -8 -8q6 0 16 -42q5 0 13 -17q-3 -17 -8 -17q5 -43 12 -51q0 -4 -4 -4l55 -84h12q92 49 106 101 q21 56 42 151q0 48 -26 106l17 21l-8 21l4 8q-4 8 -4 13l4 8l-38 72q4 0 4 4l9 -4h4l-4 21l12 8h5q15 -13 37 -21q9 4 13 4q0 -5 21 -21q0 13 8 13q66 -78 101 -185q10 0 68 -135h8q64 117 202 286l4 -8v-4l-12 -17l8 -13v-4q0 -14 -13 -29v-9l26 21l4 -8v-4 q-32 -33 -46 -76q-37 -27 -89 -189q-8 0 -46 -68q13 -29 17 -59h-13v-8q13 0 13 -9v-8h-4l-9 4q0 -7 -8 -21q7 0 21 -109h12q0 -9 -12 -9q7 -63 21 -63l8 5q0 -14 5 -21l-5 -9l5 -8l-9 -26q4 -8 4 -12q-8 0 -8 -17q-6 0 -13 13q4 8 4 12v4h-4q-5 -37 -25 -63q-8 -33 -8 -50 l4 -42h-9l5 -9v-4q-17 0 -17 -38h12v-8q0 -8 -8 -8h-4l-9 4v-4q2 -9 9 -9q-19 -70 -30 -84q5 -8 5 -13q-5 0 -38 -63h-5l5 -8q-6 0 -84 -97h12v-4l-17 -21q5 0 5 -4l8 4h4q-18 -27 -88 -55q-4 0 -4 4l-93 -8l-8 4q-5 0 -5 -4q-117 18 -117 55q-11 0 -21 50v42q0 84 67 236 l38 46l4 -8q-17 -26 -17 -38h9q31 60 80 181q31 38 63 101q32 33 63 113h-4q-38 -23 -118 -46h-21q-46 0 -198 55q-46 14 -93 71q0 6 -29 67l4 9q-12 45 -25 122zM10 807v4q1 9 8 9h4v-5q0 -8 -8 -8h-4zM52 958l8 5l4 -9l-8 -4zM300 -173v-42q1 -30 8 -30q8 5 13 5v33h8v-21 h5q61 48 113 160q72 158 72 395v17q0 47 -13 47q-36 -25 -46 -51v-8h17q0 -22 -72 -152q-34 -70 -59 -143q1 -8 9 -8q-34 -50 -34 -68h8q-12 -59 -21 -79l5 -9q-5 -8 -5 -13l5 -21q-7 0 -13 -12zM321 -194q0 20 21 109h8l-16 -76v-25q0 -8 -9 -8h-4zM447 -224v-4q7 0 17 17 h-4q-6 0 -13 -13zM456 315q8 0 8 8l-8 4v-12zM506 -249l8 4h5v-4q0 -8 -9 -8zM578 -161l4 21h8l-4 -21h-8zM603 -106q8 25 17 25h4q-13 -19 -13 -25h-8zM666 462v21h8v-29q-8 0 -8 8zM678 378v13h9v-13h-9zM775 921h9q0 8 16 29v4q-5 0 -25 -29v-4z" />
<glyph unicode="z" horiz-adv-x="706" d="M-31 648q21 44 112 104q3 0 122 82q0 6 13 13q7 -4 17 -4q12 34 43 34q19 22 30 22q-14 10 -112 52q-88 51 -91 91v17l26 39h4q31 -13 44 -52q26 0 26 -17h25v4q-20 0 -30 22q-21 0 -21 8v5h4l52 -13v13q-4 0 -35 4v13l22 4l108 -21q17 22 17 26q199 -41 199 -82 q-4 -9 -4 -13q10 0 13 -35l-9 -4l13 -22l-13 -17l17 -57l-4 -8q9 -14 9 -22q-35 0 -69 -39q12 0 21 -43h5q17 29 121 147q0 9 82 74q0 5 30 26h9q13 -5 13 -26q-9 -2 -9 -9v-17q13 0 13 -9q-26 -15 -26 -39v-9l9 -13h-5q-8 5 -13 5q-51 -49 -51 -65v-4l13 8l4 -17 q-26 -6 -26 -13h9v-9h-26q0 -10 -96 -129v-5h18q8 39 21 39q5 -13 5 -26q-5 -21 -18 -21l5 -9q-19 -26 -22 -26q35 -139 35 -238q0 -229 -69 -493q-37 -96 -48 -104q0 -16 -39 -52q-8 5 -17 5v-5l4 -8l-9 -5h-4v9h-9q0 -17 -8 -17q-8 4 -18 4l-4 -9q13 0 13 -8l-26 -26l-4 8 q4 0 4 5l-8 4q0 -13 -9 -13h-22q0 -4 -4 -13q4 0 4 -4q-21 -3 -21 -13h8v-4q-75 -39 -125 -48q-4 8 -4 13h-9l4 -9v-4h-8q-31 10 -31 22h-34q-98 22 -117 52q-22 27 -30 95l4 8q0 5 -4 5q16 210 134 436q27 44 34 44h5v-5q-19 -23 -39 -73v-4h8q5 21 212 333v4h-4 q-222 -35 -277 -48q-36 27 -60 113l4 21q-19 0 -26 65zM125 -208q0 -38 8 -100h9q71 0 173 191q52 115 82 277q17 89 17 160l-8 13l8 12v9h-8v9l13 17q-5 8 -5 13h-4q0 -16 -39 -60h-8l56 86q-5 8 -5 13h-4q0 -24 -47 -74l4 -8l-9 -13l5 -9q-15 0 -52 -60q4 0 4 -5l9 5 q8 -2 8 -9v-9l-30 -47h-9v26h5l8 -5q0 21 9 31q0 6 -17 17l-5 -9h9l-4 -21h-5l-13 8l-4 -8q0 -9 13 -9v-4q-27 -62 -56 -104q0 -5 -5 -13l-8 4h-4v-8h8v-9q-43 -80 -78 -238q-3 0 -17 -34l4 -9v-13zM159 112h9q0 5 4 13l-8 4q0 -9 -5 -17zM177 155q4 -8 4 -13h9v18h-5z M207 129h9v18q-9 -2 -9 -9v-9zM216 211q25 0 25 -8v-5q0 -8 -13 -8q2 -9 9 -9q9 0 9 9l8 -5h5q-9 35 -43 35v-9zM220 151q7 0 17 17v4h-17v-21zM224 -398v-5h13v9q-8 -4 -13 -4zM263 233h4q0 5 5 13v4h-5q0 -4 -4 -13v-4zM289 -364v-8q8 4 13 4v4h-13zM306 294q2 -9 9 -9 l4 9h-13zM319 -342v-4h5q0 6 13 17q-18 -7 -18 -13zM332 324h9l4 17h-8zM341 752h13q0 13 22 13v4h-13q-15 -13 -22 -13v-4zM345 298v4q0 6 13 13h5q-5 -26 -13 -26zM397 795h4q9 5 13 5v8q-17 -6 -17 -13zM453 -256v-4q2 -9 9 -9v13h-9zM458 -217q13 0 26 -17v17q0 9 -9 9 h-9q-8 -1 -8 -9zM471 -182q0 -6 13 -13v4q0 9 -9 9h-4zM709 821v5q6 17 13 17h8q0 -9 9 -9q0 -6 -13 -13h-17zM730 886q2 -9 9 -9l4 9v9q-8 -5 -13 -5v-4zM734 856h13v-13q0 -9 -8 -9zM739 921q6 0 13 13v4q-9 -4 -13 -4v-13zM743 955h13v9h-4q-9 -1 -9 -9zM752 973 q4 0 4 -5q8 5 13 5v8h-9q-8 -1 -8 -8z" />
<glyph unicode="{" d="M240 638v60q172 5 223 71t51 133v468q0 74 77 141.5t185 67.5h108v-50h-90q-61 0 -107 -33.5t-47 -91.5v-500q0 -83 -60.5 -158.5t-142.5 -76.5v-2q82 -1 143 -76t61 -158l-1 -500q1 -58 47 -91.5t107 -33.5h90v-50h-108q-108 0 -184.5 67.5t-77.5 141.5v468 q0 66 -51 132t-223 71z" />
<glyph unicode="|" d="M427 -418v1995h160v-1995h-160z" />
<glyph unicode="}" d="M130 -192h90q61 0 107 33.5t47 91.5l-1 500q0 83 61 158t144 76v2q-83 1 -143.5 76.5t-60.5 158.5v500q-1 58 -47 91.5t-107 33.5h-90v50h108q108 0 185 -67.5t77 -141.5v-468q0 -67 51 -133t223 -71v-60q-172 -5 -223 -71t-51 -132v-468q-1 -74 -77.5 -141.5 t-184.5 -67.5h-108v50z" />
<glyph unicode="~" d="M94 556v156q64 73 123 99t114 26q64 0 181.5 -49.5t172.5 -49.5q52 0 108.5 28t129.5 112v-156q-63 -72 -122 -97.5t-116 -25.5q-60 0 -177.5 48.5t-176.5 48.5q-51 0 -107.5 -28t-129.5 -112z" />
<glyph unicode="&#xa1;" horiz-adv-x="672" />
<glyph unicode="&#xa2;" horiz-adv-x="1139" />
<glyph unicode="&#xa3;" d="M76 673v60h135q-58 143 -58 253q0 226 123.5 347t306.5 121h4q75 0 185.5 -14t110.5 -34v-161h-58q-5 61 -77 102q-72 31 -160 31h-2q-100 0 -190 -101q-84 -93 -84 -241q0 -15 1 -30q0 -135 53 -273h360v-60h-334q14 -30 31 -60q35 -63 35 -138q0 -161 -162 -375h402 q130 0 189 132l49 -1l-103 -231h-719l1 50q187 238 187 418q0 77 -34 143q-17 32 -31 62h-161z" />
<glyph unicode="&#xa4;" d="M122 413l118 117q-32 46 -48 103q-12 42 -12 84q0 44 13 87q16 55 47 99l-118 118l80 81l118 -118q44 30 99 46q44 14 89 14q41 0 83 -12q57 -17 102 -48l118 118l80 -81l-117 -117q31 -46 48 -102q12 -42 12 -85q0 -42 -12 -85q-17 -56 -48 -102l117 -117l-80 -81 l-118 118q-45 -32 -101 -48q-42 -12 -85 -12q-42 0 -85 12q-57 16 -102 48l-118 -118zM284 716q0 -28 9 -56q16 -59 57 -100q41 -40 99 -57q29 -8 58 -8t58 8q58 17 99 57q40 41 57 99q9 29 9 58t-9 58q-17 58 -57 99q-41 40 -100 57q-29 8 -58 8t-58 -9q-58 -17 -98 -56 q-39 -40 -56 -98q-10 -30 -10 -60z" />
<glyph unicode="&#xa5;" horiz-adv-x="1262" d="M8 1176q0 19 10.5 27.5t32.5 8.5q27 0 123 -8t164 -8h88q33 0 41 -6.5t8 -26.5q0 -8 -15 -14t-38 -6q-6 0 -18.5 2t-18.5 2q-24 0 -37.5 -9.5t-13.5 -25.5q0 -18 16.5 -52t46.5 -77l158 -221q13 -19 33 -53q41 -70 71 -70q9 0 16.5 5t14.5 15l277 396q8 12 13 26.5 t5 24.5q0 18 -10 27t-37 14q-15 2 -41 4q-47 3 -47 25q0 15 8 22.5t25 7.5q3 0 15 -1q56 -7 108 -7h139q30 0 65 1t37 1q11 0 18.5 -4.5t8.5 -11.5q0 -28 -38 -34q-18 -3 -27 -5q-63 -15 -147 -117q-7 -9 -12 -15l-169 -206h323q15 0 24 -6t9 -17q0 -15 -6 -20.5t-23 -5.5 h-366q-46 -57 -96.5 -112.5t-52.5 -59.5h511q18 0 25.5 -5.5t7.5 -17.5q0 -14 -7 -21t-22 -7h-530q0 -11 -1 -30.5t-1 -29.5l2 -215q0 -114 5.5 -150t20.5 -44q30 -17 107.5 -19t77.5 -31q0 -12 -10 -20t-25 -8q-2 0 -35.5 4t-64.5 4q-91 0 -208.5 -4t-142.5 -4q-31 0 -40 4 t-9 16t8 18.5t37 12.5q9 2 25 5q74 16 92 32q17 13 24 47t7 102l-2 242q0 19 -1.5 35t-4.5 32l-484 1q-14 0 -21 6.5t-7 19.5t6.5 19t21.5 6h467l-121 172h-344q-17 0 -23.5 5.5t-6.5 18.5q0 14 6 19.5t22 5.5h307q-43 57 -108 155q-131 197 -227 197q-7 0 -13 5.5t-6 11.5z " />
<glyph unicode="&#xa6;" d="M427 371h160v-789h-160v789zM427 789v789h160v-789h-160z" />
<glyph unicode="&#xa7;" d="M170 1130q0 148 89 237q82 79 216 86q8 1 17 1h3q66 0 163 -16.5t97 -41.5v-194h-51q-5 81 -80 132q-70 47 -149 51h-15q-78 0 -125 -44.5t-47 -117.5q0 -132 287 -269q149 -67 204.5 -143.5t55.5 -187.5q0 -171 -101 -282q-47 -39 -99 -64q108 -56 154 -118 q55 -77 55 -187q0 -171 -101 -283q-124 -102 -277 -105v1q-6 -1 -13 -1h-3q-66 0 -163 16.5t-97 41.5v194h51q5 -81 80 -132q68 -45 145 -50q113 6 185 69q72 64 72 165q0 125 -316 276q-123 64 -175.5 137t-52.5 177q0 148 89 237q67 65 170 82l-40 19q-123 64 -175.5 137 t-52.5 177zM297 571q0 -123 248 -250q56 16 97 53q73 65 73 166q0 5 -1 10h-2q-1 14 -4 27q-22 61 -113 127q-59 29 -126 29q-78 0 -125 -44.5t-47 -117.5z" />
<glyph unicode="&#xa8;" horiz-adv-x="1024" d="M209 1263q0 13 14 26l71 72q13 12 25 12q11 0 27 -14l69 -73q10 -14 10 -25q0 -13 -12 -27l-69 -75q-17 -17 -25 -17q-14 0 -25 12l-76 86q-9 12 -9 23zM574 1263q0 13 14 26l71 72q13 12 25 12q11 0 27 -13l69 -74q10 -14 10 -25q0 -13 -12 -26l-69 -76q-17 -17 -25 -17 q-14 0 -25 12l-76 87q-9 11 -9 22z" />
<glyph unicode="&#xa9;" horiz-adv-x="1674" d="M100 718q0 148 55.5 283t159.5 238q102 104 238.5 160.5t286.5 56.5q145 0 280 -56.5t239 -160.5q102 -101 158.5 -238t56.5 -283q0 -147 -56.5 -282t-162.5 -240q-105 -105 -239 -159.5t-283 -54.5q-146 0 -278 55.5t-238 160.5q-106 104 -161.5 237.5t-55.5 282.5z M160 718q0 -137 51 -259t148 -219q98 -96 219 -147t256 -51q137 0 259.5 50.5t219.5 145.5q97 98 149 221.5t52 258.5q0 134 -52 259.5t-145 219.5q-96 96 -220 147.5t-258 51.5q-137 0 -262 -51.5t-220 -147.5t-146 -219.5t-51 -259.5zM351 719q0 126 65.5 244t187.5 184.5 t254 66.5q38 0 75 -6.5t76 -20.5q5 -1 9 -1q19 0 26 30h42l72 -198h-44q-52 94 -131 124q-72 26 -147 26h-15q-86 -8 -166.5 -71t-121.5 -177q-33 -90 -33 -184q0 -25 2 -50q11 -121 69.5 -224t149.5 -152q72 -40 166 -42q124 0 194 56t70 126h53v-100q0 -46 -96.5 -86.5 t-242.5 -40.5q-142 0 -264 68t-186 185t-64 243z" />
<glyph unicode="&#xaa;" horiz-adv-x="648" />
<glyph unicode="&#xab;" horiz-adv-x="944" d="M174 479l342 303h14v-37l-205 -266l205 -266v-37h-14zM487 479l342 303h14v-37l-205 -266l205 -266v-37h-14z" />
<glyph unicode="&#xac;" d="M87 667v100h840v-491l-1 -1h-98v392h-741z" />
<glyph unicode="&#xad;" horiz-adv-x="670" d="M116 437v83q0 29 41 29h356q41 0 41 -29v-83q0 -28 -40 -28h-358q-40 0 -40 28z" />
<glyph unicode="&#xae;" horiz-adv-x="1674" d="M100 718q0 148 55.5 283t159.5 238q102 104 238.5 160.5t286.5 56.5q145 0 280 -56.5t239 -160.5q102 -101 158.5 -238t56.5 -283q0 -147 -56.5 -282t-162.5 -240q-105 -105 -239 -159.5t-283 -54.5q-146 0 -278 55.5t-238 160.5q-106 104 -161.5 237.5t-55.5 282.5z M160 718q0 -137 51 -259t148 -219q98 -96 219 -147t256 -51q137 0 259.5 50.5t219.5 145.5q97 98 149 221.5t52 258.5q0 134 -52 259.5t-145 219.5q-96 96 -220 147.5t-258 51.5q-137 0 -262 -51.5t-220 -147.5t-146 -219.5t-51 -259.5zM524 269v50h43q37 0 37 121v538 q0 121 -37 121h-43v70h356q64 -1 125 -42q60 -41 92.5 -114t32.5 -152q0 -78 -32 -150.5t-114 -134.5l82 -116q100 -141 150 -141h34v-50h-346v50h45q30 0 30 22q0 29 -69 114l-75 102q-42 0 -84 42v-159q0 -121 36 -121h53v-50h-316zM751 725l3 -8q23 -56 56 -81 q29 -22 56 -22h6q31 4 61.5 38.5t46.5 97.5q13 50 13 103q0 13 -1 27q-4 67 -28 124.5t-56.5 76t-63.5 18.5h-93v-374z" />
<glyph unicode="&#xaf;" horiz-adv-x="670" />
<glyph unicode="&#xb0;" horiz-adv-x="674" d="M60 1164q0 116 81.5 197t197.5 81q115 0 196 -81.5t81 -196.5q0 -114 -82 -196t-197 -82q-117 0 -197 81t-80 197zM130 1163q0 -87 61 -147t148 -60t147 60t60 147t-60.5 148t-146.5 61t-147.5 -61t-61.5 -148z" />
<glyph unicode="&#xb1;" />
<glyph unicode="&#xb2;" />
<glyph unicode="&#xb3;" />
<glyph unicode="&#xb4;" horiz-adv-x="1024" d="M316 1078l291 297q35 35 55.5 47t40.5 12q33 0 53.5 -20t20.5 -51q0 -22 -15.5 -42t-46.5 -40l-330 -203h-69z" />
<glyph unicode="&#xb5;" horiz-adv-x="1180" />
<glyph unicode="&#xb6;" horiz-adv-x="1024" d="M93 1086q0 157 107.5 253t285.5 96h443v-70h-127v-1365h-82v1365h-166v-1365h-84v738q-174 8 -275.5 102.5t-101.5 245.5z" />
<glyph unicode="&#xb7;" horiz-adv-x="508" d="M129 709q0 15 16 31l82 84q15 14 29 14q13 0 31 -16l80 -86q12 -16 12 -29q0 -15 -14 -31l-80 -88q-20 -20 -29 -20q-16 0 -29 14l-88 101q-10 13 -10 26z" />
<glyph unicode="&#xb8;" horiz-adv-x="1024" d="M360 -290q85 -52 152 -52q66 0 94.5 21.5t28.5 66.5t-49 64q-40 16 -102 16q-16 0 -34 -2l48 176h63l-37 -104q32 4 62 5q86 0 134 -40.5t48 -113.5q0 -76 -58.5 -120.5t-160.5 -44.5q-109 0 -189 32v96z" />
<glyph unicode="&#xb9;" />
<glyph unicode="&#xba;" horiz-adv-x="718" />
<glyph unicode="&#xbb;" horiz-adv-x="944" d="M101 176v37l205 266l-205 266v37h14l342 -303l-342 -303h-14zM414 176v37l205 266l-205 266v37h14l342 -303l-342 -303h-14z" />
<glyph unicode="&#xbc;" horiz-adv-x="1708" />
<glyph unicode="&#xbd;" horiz-adv-x="1964" />
<glyph unicode="&#xbe;" horiz-adv-x="1708" />
<glyph unicode="&#xbf;" horiz-adv-x="748" />
<glyph unicode="&#xc0;" horiz-adv-x="1540" />
<glyph unicode="&#xc1;" horiz-adv-x="1540" />
<glyph unicode="&#xc2;" horiz-adv-x="1540" />
<glyph unicode="&#xc3;" horiz-adv-x="1540" />
<glyph unicode="&#xc4;" horiz-adv-x="1540" />
<glyph unicode="&#xc5;" horiz-adv-x="1540" />
<glyph unicode="&#xc6;" horiz-adv-x="2118" />
<glyph unicode="&#xc7;" horiz-adv-x="1399" />
<glyph unicode="&#xc8;" horiz-adv-x="1151" />
<glyph unicode="&#xc9;" horiz-adv-x="1151" />
<glyph unicode="&#xca;" horiz-adv-x="1151" />
<glyph unicode="&#xcb;" horiz-adv-x="1151" />
<glyph unicode="&#xcc;" horiz-adv-x="657" />
<glyph unicode="&#xcd;" horiz-adv-x="657" />
<glyph unicode="&#xce;" horiz-adv-x="657" />
<glyph unicode="&#xcf;" horiz-adv-x="657" />
<glyph unicode="&#xd0;" horiz-adv-x="1518" />
<glyph unicode="&#xd1;" horiz-adv-x="1554" />
<glyph unicode="&#xd2;" horiz-adv-x="1614" />
<glyph unicode="&#xd3;" horiz-adv-x="1614" />
<glyph unicode="&#xd4;" horiz-adv-x="1614" />
<glyph unicode="&#xd5;" horiz-adv-x="1614" />
<glyph unicode="&#xd6;" horiz-adv-x="1614" />
<glyph unicode="&#xd7;" d="M161 470l247 247l-247 248l99 98l247 -247l248 247l98 -99l-247 -247l247 -247l-99 -99l-247 247l-247 -247z" />
<glyph unicode="&#xd8;" horiz-adv-x="1614" />
<glyph unicode="&#xd9;" horiz-adv-x="1501" />
<glyph unicode="&#xda;" horiz-adv-x="1501" />
<glyph unicode="&#xdb;" horiz-adv-x="1501" />
<glyph unicode="&#xdc;" horiz-adv-x="1501" />
<glyph unicode="&#xdd;" horiz-adv-x="1233" />
<glyph unicode="&#xde;" horiz-adv-x="1120" />
<glyph unicode="&#xdf;" horiz-adv-x="1251" />
<glyph unicode="&#xe0;" horiz-adv-x="922" />
<glyph unicode="&#xe1;" horiz-adv-x="922" />
<glyph unicode="&#xe2;" horiz-adv-x="922" />
<glyph unicode="&#xe3;" horiz-adv-x="922" />
<glyph unicode="&#xe4;" horiz-adv-x="922" />
<glyph unicode="&#xe5;" horiz-adv-x="922" />
<glyph unicode="&#xe6;" horiz-adv-x="1454" />
<glyph unicode="&#xe7;" horiz-adv-x="905" />
<glyph unicode="&#xe8;" horiz-adv-x="909" />
<glyph unicode="&#xe9;" horiz-adv-x="909" />
<glyph unicode="&#xea;" horiz-adv-x="909" />
<glyph unicode="&#xeb;" horiz-adv-x="909" />
<glyph unicode="&#xec;" horiz-adv-x="514" />
<glyph unicode="&#xed;" horiz-adv-x="514" />
<glyph unicode="&#xee;" horiz-adv-x="514" />
<glyph unicode="&#xef;" horiz-adv-x="514" />
<glyph unicode="&#xf0;" horiz-adv-x="1139" />
<glyph unicode="&#xf1;" horiz-adv-x="1108" />
<glyph unicode="&#xf2;" horiz-adv-x="1010" />
<glyph unicode="&#xf3;" horiz-adv-x="1010" />
<glyph unicode="&#xf4;" horiz-adv-x="1010" />
<glyph unicode="&#xf5;" horiz-adv-x="1010" />
<glyph unicode="&#xf6;" horiz-adv-x="1010" />
<glyph unicode="&#xf7;" d="M87 647v140h839l1 -1v-139h-840zM382 377q0 15 16 31l82 84q15 14 29 14q13 0 31 -16l80 -86q12 -16 12 -29q0 -15 -14 -31l-80 -88q-20 -20 -29 -20q-16 0 -29 14l-88 101q-10 13 -10 26zM382 1070q0 15 16 31l82 84q15 14 29 14q13 0 31 -16l80 -86q12 -16 12 -29 q0 -15 -14 -31l-80 -88q-20 -20 -29 -20q-16 0 -29 14l-88 101q-10 13 -10 26z" />
<glyph unicode="&#xf8;" horiz-adv-x="1010" />
<glyph unicode="&#xf9;" horiz-adv-x="1059" />
<glyph unicode="&#xfa;" horiz-adv-x="1059" />
<glyph unicode="&#xfb;" horiz-adv-x="1059" />
<glyph unicode="&#xfc;" horiz-adv-x="1059" />
<glyph unicode="&#xfd;" horiz-adv-x="868" />
<glyph unicode="&#xfe;" horiz-adv-x="1010" />
<glyph unicode="&#xff;" horiz-adv-x="868" />
<glyph unicode="&#x2c6;" horiz-adv-x="1024" d="M221 1079l232 355h118l232 -355h-58l-233 216l-233 -216h-58z" />
<glyph unicode="&#x2dc;" horiz-adv-x="1024" d="M234 1132q19 106 68 158.5t129 52.5q46 -1 113 -24q64 -23 112 -23h4q36 0 58 20t36 66h54q-20 -103 -68.5 -154t-126.5 -51h-4q-50 0 -113 23q-66 24 -114 24q-39 0 -60.5 -20.5t-33.5 -71.5h-54z" />
<glyph unicode="&#x2000;" horiz-adv-x="907" />
<glyph unicode="&#x2001;" horiz-adv-x="1815" />
<glyph unicode="&#x2002;" horiz-adv-x="907" />
<glyph unicode="&#x2003;" horiz-adv-x="1815" />
<glyph unicode="&#x2004;" horiz-adv-x="605" />
<glyph unicode="&#x2005;" horiz-adv-x="453" />
<glyph unicode="&#x2006;" horiz-adv-x="302" />
<glyph unicode="&#x2007;" horiz-adv-x="302" />
<glyph unicode="&#x2008;" horiz-adv-x="226" />
<glyph unicode="&#x2009;" horiz-adv-x="363" />
<glyph unicode="&#x200a;" horiz-adv-x="100" />
<glyph unicode="&#x2010;" horiz-adv-x="670" d="M116 437v83q0 29 41 29h356q41 0 41 -29v-83q0 -28 -40 -28h-358q-40 0 -40 28z" />
<glyph unicode="&#x2011;" horiz-adv-x="670" d="M116 437v83q0 29 41 29h356q41 0 41 -29v-83q0 -28 -40 -28h-358q-40 0 -40 28z" />
<glyph unicode="&#x2012;" horiz-adv-x="670" d="M116 437v83q0 29 41 29h356q41 0 41 -29v-83q0 -28 -40 -28h-358q-40 0 -40 28z" />
<glyph unicode="&#x2013;" horiz-adv-x="1108" d="M56 419v120h996v-120h-996z" />
<glyph unicode="&#x2014;" horiz-adv-x="2048" d="M0 419v120h2048v-120h-2048z" />
<glyph unicode="&#x2018;" horiz-adv-x="557" d="M186 1233q0 109 71 226.5t139 117.5v-43q-73 -43 -87 -190q0 -119 129 -161v-42l-119 -125q-44 0 -88.5 65.5t-44.5 151.5z" />
<glyph unicode="&#x2019;" horiz-adv-x="557" d="M119 1410v42l119 125q44 0 88.5 -65.5t44.5 -151.5q0 -109 -71 -226.5t-139 -117.5v43q73 43 87 190q0 119 -129 161z" />
<glyph unicode="&#x201a;" horiz-adv-x="557" d="M119 114v42l119 125q44 0 88.5 -65.5t44.5 -151.5q0 -109 -71 -226.5t-139 -117.5v43q73 43 87 190q0 119 -129 161z" />
<glyph unicode="&#x201c;" horiz-adv-x="910" d="M186 1233q0 109 71 226.5t139 117.5v-43q-73 -43 -87 -190q0 -119 129 -161v-42l-119 -125q-44 0 -88.5 65.5t-44.5 151.5zM539 1233q0 109 71 226.5t139 117.5v-43q-73 -43 -87 -190q0 -119 129 -161v-42l-119 -125q-44 0 -88.5 65.5t-44.5 151.5z" />
<glyph unicode="&#x201d;" horiz-adv-x="910" d="M119 1410v42l119 125q44 0 88.5 -65.5t44.5 -151.5q0 -109 -71 -226.5t-139 -117.5v43q73 43 87 190q0 119 -129 161zM472 1410v42l119 125q44 0 88.5 -65.5t44.5 -151.5q0 -109 -71 -226.5t-139 -117.5v43q73 43 87 190q0 119 -129 161z" />
<glyph unicode="&#x201e;" horiz-adv-x="910" d="M119 114v42l119 125q44 0 88.5 -65.5t44.5 -151.5q0 -109 -71 -226.5t-139 -117.5v43q73 43 87 190q0 119 -129 161zM472 114v42l119 125q44 0 88.5 -65.5t44.5 -151.5q0 -109 -71 -226.5t-139 -117.5v43q73 43 87 190q0 119 -129 161z" />
<glyph unicode="&#x2022;" horiz-adv-x="1024" d="M216 718q0 123 87 209t210 86q122 0 208.5 -86.5t86.5 -208.5t-87.5 -209.5t-209.5 -87.5q-123 0 -209 87t-86 210z" />
<glyph unicode="&#x2026;" horiz-adv-x="2048" d="M129 136q0 15 16 31l82 84q15 14 29 14q13 0 31 -16l80 -86q12 -16 12 -29q0 -15 -14 -31l-80 -88q-20 -20 -29 -20q-16 0 -29 14l-88 101q-10 13 -10 26zM812 136q0 15 16 31l82 84q15 14 29 14q13 0 31 -16l80 -86q12 -16 12 -29q0 -15 -14 -31l-80 -88 q-20 -20 -29 -20q-16 0 -29 14l-88 101q-10 13 -10 26zM1495 136q0 15 16 31l82 84q15 14 29 14q13 0 31 -16l80 -86q12 -16 12 -29q0 -15 -14 -31l-80 -88q-20 -20 -29 -20q-16 0 -29 14l-88 101q-10 13 -10 26z" />
<glyph unicode="&#x202f;" horiz-adv-x="363" />
<glyph unicode="&#x2039;" horiz-adv-x="631" d="M174 479l342 303h14v-37l-205 -266l205 -266v-37h-14z" />
<glyph unicode="&#x203a;" horiz-adv-x="631" d="M101 176v37l205 266l-205 266v37h14l342 -303l-342 -303h-14z" />
<glyph unicode="&#x205f;" horiz-adv-x="453" />
<glyph unicode="&#x20ac;" d="M-44 653l17 60h87v29q0 16 1 31h-71l17 60h58q14 145 76 281q81 178 226 274t298 96q43 0 87 -8q40 -10 82 -29q8 -6 16 -6q20 0 34 45h41l84 -281l-40 -1q-49 134 -138 178q-43 22 -81 32v3q-50 16 -101 16q-17 0 -34 -2q-120 -12 -226 -113.5t-157 -273.5 q-32 -104 -39 -211h706l-17 -60h-692q0 -30 2 -60h674l-17 -60h-652q17 -158 83 -298q74 -157 193 -236q102 -68 216 -69q186 3 256 91q74 91 74 185h48v-143q0 -70 -111 -127q-105 -54 -267 -56q-181 0 -325.5 98t-223.5 274q-62 135 -76 281h-108z" />
<glyph unicode="&#x2122;" horiz-adv-x="1497" />
<glyph unicode="&#x25fc;" horiz-adv-x="1160" d="M0 0v1160h1160v-1160h-1160z" />
</font>
</defs>
</svg>
